<?xml version="1.0" encoding="utf-8"?>
<!-- Generator: Adobe Illustrator 16.0.3, SVG Export Plug-In . SVG Version: 6.00 Build 0)  -->
<!DOCTYPE svg PUBLIC "-//W3C//DTD SVG 1.1//EN" "http://www.w3.org/Graphics/SVG/1.1/DTD/svg11.dtd">
<svg version="1.1" id="Layer_1" xmlns="http://www.w3.org/2000/svg" xmlns:xlink="http://www.w3.org/1999/xlink" x="0px" y="0px"
	 width="72px" height="72px" viewBox="0 0 72 72" enable-background="new 0 0 72 72" xml:space="preserve">
<g>
	<g>
		<path fill="#373A4A" d="M24.928,46.998c-0.479,0-0.959-0.191-1.389-0.555l-6.829-5.564c-0.708-0.6-1.045-1.488-0.893-2.334
			c0.133-0.742,0.642-1.34,1.36-1.6l8.549-3.085c0.837-0.301,1.765-0.039,2.346,0.656c0.479,0.572,0.685,1.361,0.551,2.111
			l-1.773,8.516C26.648,46.26,25.893,46.998,24.928,46.998z M26.447,35.731l-8.59,3.095c-0.063,0.021-0.065,0.037-0.071,0.072
			c-0.021,0.117,0.041,0.305,0.201,0.44l6.828,5.563c0.01,0.009,0.02,0.017,0.028,0.023c0.016-0.043,0.031-0.098,0.043-0.166
			l1.773-8.515c0.03-0.177-0.045-0.355-0.121-0.446C26.497,35.75,26.461,35.731,26.447,35.731z"/>
	</g>
	<g>
		<path fill="#373A4A" d="M36,68.482C18.089,68.482,3.518,53.91,3.518,36C3.518,18.089,18.089,3.518,36,3.518
			S68.482,18.089,68.482,36C68.482,53.91,53.911,68.482,36,68.482z M36,7.518C20.295,7.518,7.518,20.295,7.518,36
			S20.295,64.482,36,64.482S64.482,51.705,64.482,36S51.705,7.518,36,7.518z"/>
	</g>
	<g>
		<path fill="#373A4A" d="M36,51.73c-0.553,0-1-0.447-1-1c0-0.554,0.447-1,1-1c7.57,0,13.73-6.16,13.73-13.73
			c0-7.571-6.16-13.73-13.73-13.73c-7.571,0-13.73,6.159-13.73,13.73c0,0.552-0.447,1-1,1s-1-0.447-1-1
			c0-8.674,7.057-15.73,15.73-15.73S51.73,27.327,51.73,36C51.73,44.674,44.674,51.73,36,51.73z"/>
	</g>
	<g>
		<path fill="#F62459" d="M60.148,37c-0.553,0-1-0.447-1-1c0-10.407-7.004-19.59-17.029-22.331
			c-0.533-0.146-0.848-0.695-0.701-1.229c0.146-0.533,0.702-0.843,1.229-0.701C53.54,14.718,61.148,24.694,61.148,36
			C61.148,36.553,60.701,37,60.148,37z"/>
	</g>
	<g>
		<path fill="#F62459" d="M37.35,12.888c-0.02,0-0.037,0-0.057-0.002c-0.43-0.023-0.86-0.035-1.293-0.035c-0.553,0-1-0.447-1-1
			c0-0.553,0.447-1,1-1c0.47,0,0.938,0.014,1.402,0.039c0.552,0.029,0.974,0.501,0.943,1.053
			C38.316,12.475,37.876,12.888,37.35,12.888z"/>
	</g>
</g>
</svg>
