<?xml version="1.0" encoding="utf-8"?>
<!-- Generator: Adobe Illustrator 16.0.0, SVG Export Plug-In . SVG Version: 6.00 Build 0)  -->
<!DOCTYPE svg PUBLIC "-//W3C//DTD SVG 1.1//EN" "http://www.w3.org/Graphics/SVG/1.1/DTD/svg11.dtd">
<svg version="1.1" id="Layer_1" xmlns="http://www.w3.org/2000/svg" xmlns:xlink="http://www.w3.org/1999/xlink" x="0px" y="0px"
	 width="72px" height="72px" viewBox="0 0 72 72" enable-background="new 0 0 72 72" xml:space="preserve">
<g>
	<g>
		<path d="M35.622,68.087c-16.447,0-29.828-13.381-29.828-29.826c0-16.446,13.381-29.827,29.828-29.827
			c16.446,0,29.827,13.381,29.827,29.827C65.449,54.707,52.068,68.087,35.622,68.087z M35.622,12.434
			c-14.241,0-25.828,11.586-25.828,25.827c0,14.24,11.587,25.826,25.828,25.826s25.827-11.586,25.827-25.826
			C61.449,24.02,49.863,12.434,35.622,12.434z"/>
	</g>
	<g>
		<path d="M25.036,57.972c-0.167,0-0.337-0.041-0.492-0.129c-7.042-3.994-11.416-11.498-11.416-19.582c0-0.553,0.447-1,1-1
			s1,0.447,1,1c0,7.365,3.986,14.201,10.402,17.842c0.48,0.271,0.649,0.883,0.377,1.363C25.723,57.791,25.385,57.972,25.036,57.972z
			"/>
	</g>
	<g>
		<path d="M33.663,60.667c-0.03,0-0.06-0.002-0.091-0.004c-0.433-0.039-0.86-0.09-1.284-0.154c-0.547-0.082-0.923-0.59-0.842-1.137
			c0.082-0.545,0.59-0.916,1.137-0.842c0.387,0.059,0.775,0.105,1.169,0.141c0.55,0.049,0.955,0.535,0.906,1.086
			C34.611,60.277,34.175,60.667,33.663,60.667z"/>
	</g>
	<g>
		<path d="M11.146,24.802c-0.369,0-0.743-0.102-1.077-0.315c-3.322-2.129-5.306-5.753-5.306-9.696c0-6.347,5.164-11.51,11.511-11.51
			c4.637,0,8.799,2.759,10.604,7.027c0.431,1.018-0.045,2.191-1.063,2.621c-1.021,0.43-2.191-0.046-2.621-1.063
			c-1.179-2.786-3.896-4.586-6.921-4.586c-4.142,0-7.511,3.369-7.511,7.51c0,2.573,1.295,4.938,3.464,6.327
			c0.93,0.596,1.201,1.833,0.605,2.764C12.451,24.477,11.806,24.802,11.146,24.802z"/>
	</g>
	<g>
		<path d="M60.854,24.802c-0.659,0-1.305-0.325-1.687-0.921c-0.596-0.931-0.324-2.168,0.605-2.764
			c2.169-1.389,3.464-3.754,3.464-6.327c0-4.141-3.369-7.51-7.511-7.51c-3.025,0-5.742,1.8-6.921,4.586
			c-0.43,1.017-1.603,1.493-2.621,1.063c-1.018-0.43-1.493-1.604-1.063-2.621c1.806-4.269,5.968-7.027,10.604-7.027
			c6.347,0,11.511,5.163,11.511,11.51c0,3.943-1.983,7.567-5.306,9.696C61.597,24.701,61.223,24.802,60.854,24.802z"/>
	</g>
	<g>
		<path d="M14.542,68.72c-0.423,0-0.85-0.135-1.212-0.412c-0.878-0.67-1.046-1.926-0.375-2.803l4.381-5.732
			c0.67-0.879,1.924-1.049,2.803-0.375c0.878,0.67,1.046,1.926,0.375,2.803l-4.381,5.732C15.739,68.449,15.145,68.72,14.542,68.72z"
			/>
	</g>
	<g>
		<path d="M56.034,68.72c-0.603,0-1.197-0.271-1.591-0.787l-4.381-5.732c-0.671-0.877-0.503-2.133,0.375-2.803
			c0.878-0.674,2.132-0.504,2.803,0.375l4.381,5.732c0.671,0.877,0.503,2.133-0.375,2.803C56.884,68.585,56.457,68.72,56.034,68.72z
			"/>
	</g>
	<g>
		<path d="M41.298,46.503c-0.516,0-1.03-0.198-1.422-0.594l-5.395-5.76c-0.371-0.374-0.276-0.88-0.276-1.406V22.929
			c0-1.104,0.896-2,2-2s2,0.896,2,2v14.992l4.817,5.176c0.775,0.785,0.618,2.052-0.167,2.828
			C42.465,46.311,41.806,46.503,41.298,46.503z"/>
	</g>
</g>
</svg>
