<?xml version="1.0" encoding="utf-8"?>
<!-- Generator: Adobe Illustrator 16.0.0, SVG Export Plug-In . SVG Version: 6.00 Build 0)  -->
<!DOCTYPE svg PUBLIC "-//W3C//DTD SVG 1.1//EN" "http://www.w3.org/Graphics/SVG/1.1/DTD/svg11.dtd">
<svg version="1.1" id="Layer_1" xmlns="http://www.w3.org/2000/svg" xmlns:xlink="http://www.w3.org/1999/xlink" x="0px" y="0px"
	 width="72px" height="72px" viewBox="0 0 72 72" enable-background="new 0 0 72 72" xml:space="preserve">
<g>
	<g>
		<path d="M35.992,68.27c-8.619,0-16.723-3.357-22.817-9.451C0.593,46.236,0.593,25.764,13.175,13.182
			C19.27,7.088,27.374,3.73,35.994,3.73c8.62,0,16.723,3.357,22.817,9.451c6.095,6.096,9.451,14.199,9.451,22.818
			s-3.356,16.723-9.451,22.816C52.716,64.912,44.611,68.27,35.992,68.27z M35.994,7.73c-7.552,0-14.65,2.941-19.99,8.279
			C4.982,27.033,4.981,44.967,16.002,55.99c5.339,5.338,12.438,8.279,19.989,8.279c7.551,0,14.651-2.941,19.991-8.281
			C61.321,50.65,64.262,43.551,64.262,36s-2.94-14.65-8.279-19.99C50.644,10.672,43.545,7.73,35.994,7.73z"/>
	</g>
	<g>
		<g>
			<path d="M8.136,33.051c-0.053,0-0.106-0.004-0.16-0.014c-0.798-0.129-1.609-0.232-2.413-0.309
				c-0.55-0.051-0.954-0.539-0.902-1.088c0.052-0.551,0.535-0.979,1.09-0.902c0.848,0.08,1.703,0.189,2.544,0.324
				c0.545,0.088,0.916,0.602,0.828,1.146C9.043,32.701,8.619,33.051,8.136,33.051z"/>
		</g>
		<g>
			<path d="M38.726,59.639c-0.427,0-0.822-0.275-0.955-0.705c-0.508-1.65-1.138-3.281-1.871-4.844
				c-0.234-0.502-0.02-1.096,0.48-1.33c0.502-0.234,1.096-0.02,1.331,0.48c0.772,1.648,1.436,3.365,1.971,5.105
				c0.163,0.527-0.133,1.086-0.661,1.25C38.923,59.625,38.823,59.639,38.726,59.639z M34.209,50.008
				c-0.326,0-0.646-0.16-0.838-0.453c-0.94-1.441-1.995-2.834-3.136-4.143c-0.363-0.416-0.319-1.049,0.097-1.412
				s1.048-0.318,1.411,0.098c1.201,1.377,2.313,2.846,3.303,4.363c0.302,0.463,0.171,1.082-0.291,1.385
				C34.586,49.955,34.397,50.008,34.209,50.008z M27.217,41.982c-0.233,0-0.467-0.08-0.656-0.246
				c-1.31-1.139-2.703-2.191-4.144-3.131c-0.463-0.301-0.593-0.92-0.292-1.383c0.302-0.463,0.923-0.592,1.384-0.293
				c1.518,0.99,2.986,2.1,4.364,3.299c0.417,0.363,0.461,0.994,0.099,1.41C27.774,41.867,27.497,41.982,27.217,41.982z
				 M18.303,36.176c-0.143,0-0.286-0.031-0.424-0.096c-1.565-0.732-3.195-1.359-4.846-1.867c-0.527-0.162-0.824-0.721-0.662-1.25
				c0.163-0.525,0.724-0.822,1.249-0.662c1.739,0.535,3.457,1.197,5.106,1.969c0.501,0.234,0.716,0.83,0.482,1.33
				C19.04,35.963,18.679,36.176,18.303,36.176z"/>
		</g>
		<g>
			<path d="M40.258,67.336c-0.51,0-0.945-0.389-0.995-0.906c-0.076-0.805-0.18-1.617-0.308-2.414
				c-0.088-0.545,0.283-1.059,0.828-1.146c0.543-0.094,1.059,0.283,1.146,0.828c0.135,0.84,0.243,1.695,0.324,2.543
				c0.052,0.551-0.352,1.039-0.901,1.09C40.32,67.334,40.289,67.336,40.258,67.336z"/>
		</g>
	</g>
	<g>
		<g>
			<path d="M31.506,9.678c-0.482,0-0.907-0.35-0.986-0.842c-0.135-0.84-0.244-1.695-0.324-2.543c-0.053-0.549,0.351-1.037,0.9-1.09
				c0.56-0.068,1.038,0.352,1.091,0.9c0.076,0.807,0.18,1.619,0.308,2.414c0.088,0.547-0.283,1.059-0.828,1.146
				C31.613,9.674,31.559,9.678,31.506,9.678z"/>
		</g>
		<g>
			<path d="M58.098,40.268c-0.097,0-0.196-0.014-0.294-0.043c-1.739-0.535-3.457-1.199-5.106-1.973
				c-0.5-0.234-0.715-0.828-0.48-1.33c0.234-0.498,0.826-0.715,1.33-0.48c1.564,0.734,3.194,1.363,4.845,1.871
				c0.528,0.162,0.824,0.723,0.662,1.25C58.921,39.992,58.525,40.268,58.098,40.268z M48.464,35.752
				c-0.188,0-0.377-0.053-0.546-0.162c-1.52-0.992-2.987-2.104-4.363-3.303c-0.416-0.363-0.459-0.996-0.097-1.412
				c0.364-0.416,0.996-0.457,1.411-0.096c1.307,1.139,2.7,2.193,4.143,3.135c0.462,0.301,0.593,0.922,0.291,1.385
				C49.11,35.592,48.79,35.752,48.464,35.752z M40.44,28.76c-0.278,0-0.557-0.115-0.754-0.344c-1.198-1.375-2.308-2.844-3.299-4.363
				c-0.301-0.463-0.171-1.082,0.292-1.385c0.463-0.301,1.082-0.17,1.384,0.293c0.94,1.441,1.994,2.836,3.131,4.143
				c0.363,0.416,0.319,1.049-0.098,1.41C40.907,28.68,40.674,28.76,40.44,28.76z M34.633,19.846c-0.376,0-0.735-0.213-0.906-0.576
				c-0.771-1.646-1.433-3.365-1.968-5.105c-0.162-0.529,0.135-1.088,0.663-1.25s1.087,0.135,1.249,0.662
				c0.508,1.652,1.136,3.283,1.867,4.846c0.234,0.5,0.019,1.094-0.481,1.328C34.92,19.814,34.776,19.846,34.633,19.846z"/>
		</g>
		<g>
			<path d="M65.794,41.801c-0.031,0-0.063-0.002-0.095-0.006c-0.847-0.078-1.703-0.188-2.544-0.324
				c-0.545-0.088-0.916-0.602-0.828-1.146s0.6-0.918,1.146-0.828c0.798,0.129,1.609,0.232,2.413,0.309
				c0.55,0.053,0.954,0.539,0.901,1.09C66.74,41.412,66.304,41.801,65.794,41.801z"/>
		</g>
	</g>
</g>
</svg>
