<?xml version="1.0" encoding="utf-8"?>
<!-- Generator: Adobe Illustrator 16.0.0, SVG Export Plug-In . SVG Version: 6.00 Build 0)  -->
<!DOCTYPE svg PUBLIC "-//W3C//DTD SVG 1.1//EN" "http://www.w3.org/Graphics/SVG/1.1/DTD/svg11.dtd">
<svg version="1.1" id="Layer_1" xmlns="http://www.w3.org/2000/svg" xmlns:xlink="http://www.w3.org/1999/xlink" x="0px" y="0px"
	 width="72px" height="72px" viewBox="0 0 72 72" enable-background="new 0 0 72 72" xml:space="preserve">
<g>
	<g>
		<path d="M26.359,69.104c-0.032,0-0.063,0-0.096,0c-2.272,0-4.224-1.549-6.824-4.15L6.711,52.228
			c-5.096-5.097-6.28-8.172-0.42-14.031L35.209,10.28c0.795-0.766,2.062-0.745,2.827,0.051c0.768,0.794,0.745,2.061-0.05,2.827
			L9.094,41.05c-3.692,3.692-3.665,4.24,0.445,8.352l12.729,12.728c1.466,1.466,3.096,2.967,4.067,2.984
			c0.934,0.003,2.565-1.443,3.997-2.875L59.25,34.322c0.794-0.767,2.062-0.745,2.827,0.05c0.768,0.794,0.745,2.061-0.05,2.827
			L33.135,65.086C30.602,67.62,28.66,69.104,26.359,69.104z"/>
	</g>
	<g>
		<path d="M34.84,62.56c-0.523,0-1.047-0.204-1.438-0.611c-0.768-0.794-0.745-2.061,0.05-2.827l28.893-27.892
			c3.691-3.693,3.664-4.241-0.446-8.352L49.17,10.149c-3.971-3.971-4.196-3.978-8.065-0.109L12.187,37.956
			c-0.793,0.769-2.061,0.747-2.827-0.05c-0.768-0.794-0.745-2.06,0.05-2.827L38.302,7.187c5.382-5.383,8.203-5.359,13.696,0.134
			l12.728,12.729c2.615,2.614,4.158,4.579,4.307,6.887c0.164,2.541-1.435,4.694-3.886,7.146L36.229,61.998
			C35.841,62.373,35.34,62.56,34.84,62.56z"/>
	</g>
	<g>
		<path d="M63.467,22.205c-0.512,0-1.023-0.195-1.414-0.586c-0.781-0.781-0.781-2.047,0-2.828l0.442-0.442
			c4.087-4.086,4.126-4.89,0.421-8.596c-3.864-3.863-4.945-3.852-8.906,0.11l-0.442,0.442c-0.781,0.781-2.047,0.781-2.828,0
			s-0.781-2.047,0-2.828l0.442-0.442c5.485-5.485,9.16-5.514,14.563-0.11c5.881,5.882,4.55,9.282-0.421,14.252l-0.442,0.442
			C64.49,22.009,63.979,22.205,63.467,22.205z"/>
	</g>
	<g>
		<path d="M18.99,38.639c-0.256,0-0.512-0.098-0.707-0.293c-0.391-0.391-0.391-1.023,0-1.414l0.707-0.707
			c0.391-0.391,1.023-0.391,1.414,0c0.391,0.39,0.391,1.023,0,1.414l-0.707,0.707C19.502,38.541,19.246,38.639,18.99,38.639z"/>
	</g>
	<g>
		<path d="M23.232,34.397c-0.266,0-0.53-0.105-0.727-0.313c-0.38-0.401-0.361-1.034,0.04-1.413l6.682-6.311
			c0.401-0.38,1.035-0.361,1.413,0.04c0.38,0.401,0.361,1.034-0.04,1.413l-6.682,6.311C23.726,34.306,23.479,34.397,23.232,34.397z"
			/>
	</g>
	<g>
		<path d="M46.252,26.993c-0.266,0-0.53-0.105-0.728-0.313c-0.379-0.401-0.36-1.034,0.041-1.414l6.208-5.862
			c0.402-0.378,1.034-0.359,1.414,0.041c0.379,0.401,0.36,1.034-0.041,1.414l-6.208,5.862
			C46.745,26.902,46.498,26.993,46.252,26.993z"/>
	</g>
	<g>
		<path d="M52.287,27.166c-0.266,0-0.53-0.105-0.727-0.313l-5.863-6.208c-0.38-0.401-0.361-1.034,0.04-1.413
			c0.402-0.38,1.035-0.36,1.413,0.04l5.863,6.208c0.38,0.401,0.361,1.034-0.04,1.413C52.78,27.075,52.533,27.166,52.287,27.166z"/>
	</g>
	<g>
		<path d="M23.102,56.35c-0.266,0-0.53-0.105-0.727-0.313l-5.862-6.207c-0.38-0.401-0.361-1.034,0.04-1.413
			c0.402-0.38,1.035-0.36,1.413,0.04l5.862,6.207c0.38,0.401,0.361,1.034-0.04,1.413C23.595,56.259,23.348,56.35,23.102,56.35z"/>
	</g>
</g>
</svg>
