<?xml version="1.0" encoding="utf-8"?>
<!-- Generator: Adobe Illustrator 16.0.0, SVG Export Plug-In . SVG Version: 6.00 Build 0)  -->
<!DOCTYPE svg PUBLIC "-//W3C//DTD SVG 1.1//EN" "http://www.w3.org/Graphics/SVG/1.1/DTD/svg11.dtd">
<svg version="1.1" id="Layer_1" xmlns="http://www.w3.org/2000/svg" xmlns:xlink="http://www.w3.org/1999/xlink" x="0px" y="0px"
	 width="72px" height="72px" viewBox="0 0 72 72" enable-background="new 0 0 72 72" xml:space="preserve">
<g>
	<g>
		<path d="M37.732,69.5h-4c-8.277,0-9.232-2.998-9.232-10.166V58.5c0-1.105,0.896-2,2-2s2,0.895,2,2v0.834
			c0,5.762-0.014,6.166,5.232,6.166h4c5.61,0,6.768-0.75,6.768-6.166V58.5c0-1.105,0.896-2,2-2s2,0.895,2,2v0.834
			C48.5,67.03,45.596,69.5,37.732,69.5z"/>
	</g>
	<g>
		<path d="M68.5,52.25c0,4.557-3.693,8.25-8.25,8.25h-48.5c-4.557,0-8.25-3.693-8.25-8.25v-0.5c0-4.557,3.693-8.25,8.25-8.25h48.5
			c4.557,0,8.25,3.693,8.25,8.25V52.25z M64.5,51.75c0-2.348-1.902-4.25-4.25-4.25h-48.5c-2.348,0-4.25,1.902-4.25,4.25v0.5
			c0,2.348,1.902,4.25,4.25,4.25h48.5c2.348,0,4.25-1.902,4.25-4.25V51.75z"/>
	</g>
	<g>
		<path d="M59.5,47.5c-1.104,0-2-0.896-2-2V26.991C57.5,15.692,48.021,6.5,36.838,6.5H35.4c-11.184,0-19.9,9.192-19.9,20.491V45.5
			c0,1.104-0.896,2-2,2s-2-0.896-2-2V26.991C11.5,13.486,22.012,2.5,35.4,2.5h1.438C50.227,2.5,61.5,13.486,61.5,26.991V45.5
			C61.5,46.604,60.604,47.5,59.5,47.5z"/>
	</g>
	<g>
		<path d="M53.119,30.479c-0.553,0-1-0.447-1-1c0-7.067-4.187-13.463-10.665-16.293c-0.506-0.221-0.737-0.811-0.516-1.316
			c0.221-0.505,0.807-0.739,1.316-0.516c7.207,3.147,11.864,10.263,11.864,18.125C54.119,30.032,53.672,30.479,53.119,30.479z"/>
	</g>
	<g>
		<path d="M36.12,11.792c-0.031,0-0.063-0.001-0.095-0.004c-0.548-0.052-1.112-0.078-1.676-0.078c-0.553,0-1-0.447-1-1s0.447-1,1-1
			c0.626,0,1.253,0.029,1.863,0.086c0.55,0.052,0.953,0.54,0.902,1.09C37.066,11.403,36.631,11.792,36.12,11.792z"/>
	</g>
</g>
</svg>
