<?xml version="1.0" encoding="utf-8"?>
<!-- Generator: Adobe Illustrator 16.0.0, SVG Export Plug-In . SVG Version: 6.00 Build 0)  -->
<!DOCTYPE svg PUBLIC "-//W3C//DTD SVG 1.1//EN" "http://www.w3.org/Graphics/SVG/1.1/DTD/svg11.dtd">
<svg version="1.1" id="Layer_1" xmlns="http://www.w3.org/2000/svg" xmlns:xlink="http://www.w3.org/1999/xlink" x="0px" y="0px"
	 width="72px" height="72px" viewBox="0 0 72 72" enable-background="new 0 0 72 72" xml:space="preserve">
<g>
	<g>
		<path d="M34.875,68.54c-1.104,0-2-0.896-2-2v-61c0-1.104,0.896-2,2-2s2,0.896,2,2v61C36.875,67.645,35.979,68.54,34.875,68.54z"/>
	</g>
	<g>
		<path d="M12.611,52.825c-0.66,0-1.306-0.326-1.688-0.923c-0.595-0.932-0.322-2.168,0.608-2.764l44.116-28.192L33.815,7.236
			c-0.937-0.585-1.222-1.819-0.636-2.756c0.586-0.936,1.819-1.222,2.757-0.635l24.515,15.388c0.581,0.363,0.938,1,0.939,1.686
			s-0.346,1.325-0.924,1.695l-46.78,29.898C13.353,52.725,12.979,52.825,12.611,52.825z"/>
	</g>
	<g>
		<path d="M48.339,21.892c-0.181,0-0.364-0.049-0.528-0.152l-1.625-1.016c-0.468-0.293-0.609-0.909-0.316-1.378
			c0.292-0.469,0.908-0.611,1.378-0.317l1.624,1.016c0.468,0.293,0.609,0.909,0.316,1.378
			C48.998,21.726,48.672,21.892,48.339,21.892z"/>
	</g>
	<g>
		<path d="M44.578,19.54c-0.182,0-0.364-0.049-0.529-0.152l-4.926-3.08c-0.469-0.293-0.609-0.909-0.316-1.378
			c0.291-0.468,0.907-0.611,1.377-0.317l4.926,3.08c0.469,0.293,0.611,0.909,0.317,1.378C45.236,19.374,44.911,19.54,44.578,19.54z"
			/>
	</g>
	<g>
		<path d="M34.877,68.497c-0.663,0-1.312-0.329-1.692-0.931c-0.591-0.934-0.313-2.168,0.62-2.76l21.859-13.981L11.532,22.624
			c-0.931-0.595-1.203-1.832-0.608-2.763c0.595-0.93,1.831-1.201,2.763-0.608l46.781,29.896c0.576,0.367,0.925,1.006,0.923,1.688
			c0,0.685-0.353,1.319-0.93,1.687L35.945,68.188C35.613,68.396,35.243,68.497,34.877,68.497z"/>
	</g>
</g>
</svg>
