<?xml version="1.0" encoding="utf-8"?>
<!-- Generator: Adobe Illustrator 16.0.0, SVG Export Plug-In . SVG Version: 6.00 Build 0)  -->
<!DOCTYPE svg PUBLIC "-//W3C//DTD SVG 1.1//EN" "http://www.w3.org/Graphics/SVG/1.1/DTD/svg11.dtd">
<svg version="1.1" id="Layer_1" xmlns="http://www.w3.org/2000/svg" xmlns:xlink="http://www.w3.org/1999/xlink" x="0px" y="0px"
	 width="72px" height="72px" viewBox="0 0 72 72" enable-background="new 0 0 72 72" xml:space="preserve">
<g>
	<g>
		<path d="M63,61.069C63,64.897,59.896,68,56.068,68H15.932C12.104,68,9,64.897,9,61.069V10.932C9,7.104,12.104,4,15.932,4h40.137
			C59.896,4,63,7.104,63,10.932V61.069z M59,10.932C59,9.313,57.688,8,56.068,8H15.932C14.313,8,13,9.313,13,10.932v50.137
			C13,62.688,14.313,64,15.932,64h40.137C57.688,64,59,62.688,59,61.069V10.932z"/>
	</g>
	<g>
		<path d="M23,67c-0.553,0-1-0.447-1-1V6c0-0.553,0.447-1,1-1c0.552,0,1,0.447,1,1v60C24,66.553,23.552,67,23,67z"/>
	</g>
	<g>
		<g>
			<path d="M51.527,62H35.125c-0.553,0-1-0.447-1-1s0.447-1,1-1h16.402C53.105,60,55,58.11,55,55.184V52c0-0.553,0.447-1,1-1
				s1,0.447,1,1v3.184C57,59.325,54.32,62,51.527,62z"/>
		</g>
		<g>
			<path d="M55.245,47.951c-0.271,0-0.521-0.101-0.71-0.29c-0.181-0.181-0.29-0.44-0.29-0.71c0-0.261,0.109-0.521,0.29-0.71
				c0.37-0.36,1.04-0.37,1.409,0c0.19,0.189,0.301,0.449,0.301,0.71c0,0.27-0.11,0.52-0.29,0.71
				C55.765,47.85,55.505,47.951,55.245,47.951z"/>
		</g>
	</g>
	<g>
		<path d="M49,26.432c-0.147,0-0.295-0.032-0.432-0.099L43,23.666l-5.568,2.668c-0.31,0.15-0.677,0.128-0.968-0.055
			c-0.291-0.184-0.471-0.503-0.471-0.847V6c0-0.553,0.454-1.318,1.007-1.318h12c0.553,0,0.993,0.766,0.993,1.318v19.432
			c0,0.344-0.174,0.663-0.463,0.847C49.368,26.38,49.186,26.432,49,26.432z M43,21.557c0.147,0,0.292,0.033,0.429,0.099l4.564,2.188
			V6.682h-10v17.162l4.572-2.188C42.7,21.59,42.853,21.557,43,21.557z"/>
	</g>
</g>
</svg>
