<?xml version="1.0" encoding="utf-8"?>
<!-- Generator: Adobe Illustrator 16.0.0, SVG Export Plug-In . SVG Version: 6.00 Build 0)  -->
<!DOCTYPE svg PUBLIC "-//W3C//DTD SVG 1.1//EN" "http://www.w3.org/Graphics/SVG/1.1/DTD/svg11.dtd">
<svg version="1.1" id="Layer_1" xmlns="http://www.w3.org/2000/svg" xmlns:xlink="http://www.w3.org/1999/xlink" x="0px" y="0px"
	 width="72px" height="72px" viewBox="0 0 72 72" enable-background="new 0 0 72 72" xml:space="preserve">
<g>
	<g>
		<path d="M53.568,69H18.432c-3.822,0-6.932-3.109-6.932-6.932c0-0.036,0.001-0.071,0.003-0.107L13.5,24.873
			C13.532,21.078,16.629,18,20.432,18h31.137c3.803,0,6.899,3.078,6.932,6.873l1.997,37.088c0.002,0.036,0.003,0.071,0.003,0.107
			C60.5,65.891,57.391,69,53.568,69z M15.5,62.115C15.525,63.71,16.831,65,18.432,65h35.137c1.601,0,2.906-1.29,2.932-2.885
			l-1.997-37.076c-0.002-0.036-0.003-0.071-0.003-0.107c0-1.616-1.315-2.932-2.932-2.932H20.432c-1.616,0-2.932,1.315-2.932,2.932
			c0,0.036-0.001,0.071-0.003,0.107L15.5,62.115z"/>
	</g>
	<g>
		<g>
			<path d="M21.462,43c-0.018,0-0.035,0-0.054,0c-0.551,0-0.975-0.623-0.946-1.176l0.039-0.808c0.029-0.551,0.472-1.003,1.052-0.977
				c0.551,0.029,0.975,0.484,0.946,1.036l-0.039,0.861C22.432,42.471,21.99,43,21.462,43z"/>
		</g>
		<g>
			<path d="M20.501,61c-0.018,0-0.036,0-0.054-0.001c-0.552-0.029-0.975-0.5-0.946-1.052l0.792-15.038
				c0.029-0.551,0.497-0.984,1.052-0.946c0.552,0.029,0.975,0.5,0.946,1.052l-0.792,15.038C21.471,60.586,21.029,61,20.501,61z"/>
		</g>
	</g>
	<g>
		<path d="M44.881,22c-1.104,0-2-0.896-2-2V9.077C42.881,7.699,41.569,7,39.734,7h-7.137c-0.727,0-2.717,0.149-2.717,2.077V20
			c0,1.104-0.896,2-2,2s-2-0.896-2-2V9.077C25.881,5.499,28.419,3,32.598,3h7.137c4.047,0,7.146,2.442,7.146,6.077V20
			C46.881,21.104,45.985,22,44.881,22z"/>
	</g>
</g>
</svg>
