<?xml version="1.0" encoding="utf-8"?>
<!-- Generator: Adobe Illustrator 16.0.0, SVG Export Plug-In . SVG Version: 6.00 Build 0)  -->
<!DOCTYPE svg PUBLIC "-//W3C//DTD SVG 1.1//EN" "http://www.w3.org/Graphics/SVG/1.1/DTD/svg11.dtd">
<svg version="1.1" id="Layer_1" xmlns="http://www.w3.org/2000/svg" xmlns:xlink="http://www.w3.org/1999/xlink" x="0px" y="0px"
	 width="72px" height="72px" viewBox="0 0 72 72" enable-background="new 0 0 72 72" xml:space="preserve">
<g>
	<g>
		<path d="M68.5,53.569c0,3.828-3.104,6.932-6.932,6.932H10.432c-3.828,0-6.932-3.104-6.932-6.932V18.432
			c0-3.828,3.104-6.932,6.932-6.932h51.137c3.828,0,6.932,3.104,6.932,6.932V53.569z M64.5,18.432c0-1.619-1.313-2.932-2.932-2.932
			H10.432c-1.619,0-2.932,1.313-2.932,2.932v35.137c0,1.619,1.313,2.932,2.932,2.932h51.137c1.619,0,2.932-1.313,2.932-2.932V18.432
			z"/>
	</g>
	<g>
		<path d="M55.5,57.5c-0.553,0-1-0.447-1-1v-2.6c0-2.303-1.92-4.4-3.978-4.4H21.386c-2.058,0-3.886,2.098-3.886,4.4v2.6
			c0,0.553-0.448,1-1,1c-0.553,0-1-0.447-1-1v-2.6c0-3.41,2.726-6.4,5.886-6.4h29.137c3.159,0,5.978,2.99,5.978,6.4v2.6
			C56.5,57.053,56.052,57.5,55.5,57.5z"/>
	</g>
	<g>
		<path d="M47.892,42.5H24.017c-5.824,0-10.563-4.445-10.563-9.908c0-0.553,0.447-1,1-1c0.552,0,1,0.447,1,1
			c0,4.433,3.761,7.908,8.563,7.908h23.875c4.881,0,8.608-3.248,8.608-7.556v-0.826c0-4.591-4.047-8.618-8.608-8.618H24.017
			c-2.07,0-3.925,1.016-5.115,1.868c-0.45,0.32-1.075,0.216-1.396-0.231c-0.321-0.449-0.218-1.074,0.231-1.396
			c2.05-1.466,4.221-2.241,6.279-2.241h23.875c5.627,0,10.608,4.962,10.608,10.618v0.826C58.5,38.391,53.913,42.5,47.892,42.5z"/>
	</g>
	<g>
		<path d="M14.929,30.289c-0.108,0-0.219-0.018-0.327-0.055c-0.521-0.181-0.799-0.75-0.618-1.272
			c0.149-0.431,0.33-0.855,0.536-1.262c0.251-0.492,0.852-0.688,1.346-0.437c0.491,0.25,0.688,0.853,0.437,1.345
			c-0.165,0.324-0.309,0.663-0.428,1.008C15.73,30.029,15.343,30.289,14.929,30.289z"/>
	</g>
	<g>
		<path d="M25.517,38.78c-3.343,0-6.063-2.72-6.063-6.063s2.72-6.063,6.063-6.063s6.063,2.72,6.063,6.063S28.859,38.78,25.517,38.78
			z M25.517,28.654c-2.24,0-4.063,1.822-4.063,4.063s1.822,4.063,4.063,4.063s4.063-1.823,4.063-4.063S27.757,28.654,25.517,28.654z
			"/>
	</g>
	<g>
		<path d="M47.517,38.78c-3.343,0-6.063-2.72-6.063-6.063s2.72-6.063,6.063-6.063s6.063,2.72,6.063,6.063S50.859,38.78,47.517,38.78
			z M47.517,28.654c-2.24,0-4.063,1.822-4.063,4.063s1.822,4.063,4.063,4.063s4.063-1.823,4.063-4.063S49.757,28.654,47.517,28.654z
			"/>
	</g>
</g>
</svg>
