<?xml version="1.0" encoding="utf-8"?>
<!-- Generator: Adobe Illustrator 16.0.3, SVG Export Plug-In . SVG Version: 6.00 Build 0)  -->
<!DOCTYPE svg PUBLIC "-//W3C//DTD SVG 1.1//EN" "http://www.w3.org/Graphics/SVG/1.1/DTD/svg11.dtd">
<svg version="1.1" id="Layer_1" xmlns="http://www.w3.org/2000/svg" xmlns:xlink="http://www.w3.org/1999/xlink" x="0px" y="0px"
	 width="72px" height="72px" viewBox="0 0 72 72" enable-background="new 0 0 72 72" xml:space="preserve">
<g>
	<g>
		<path fill="#373A4A" d="M43,63.375H18c-8.822,0-16-7.271-16-16.209c0-5.592,2.925-10.874,7.541-13.78
			c0.421-4.596,4.018-8.287,8.569-8.854c4.411-9.706,13.979-15.907,24.724-15.907C57.812,8.625,70,20.812,70,35.791
			c0,14.641-11.616,26.752-26.048,27.346C43.568,63.34,43.203,63.375,43,63.375z M19.251,28.455
			c-3.134,0.002-5.751,2.619-5.751,5.836l0.013,0.2c0.024,0.767-0.391,1.48-1.07,1.837C8.528,38.379,6,42.633,6,47.167
			c0,6.731,5.383,12.209,12,12.209h24.256c0.367-0.187,0.717-0.217,0.912-0.217C55.746,58.993,66,48.51,66,35.791
			c0-12.773-10.393-23.166-23.166-23.166c-9.532,0-17.978,5.724-21.516,14.581c-0.311,0.775-1.089,1.288-1.903,1.257
			C19.38,28.463,19.286,28.457,19.251,28.455z"/>
	</g>
	<g>
		<path fill="#F62459" d="M60.834,35.375c-0.552,0-0.999-0.589-1-1.141c-0.001-0.525-0.029-1.121-0.083-1.631
			c-0.058-0.549,0.341-1.076,0.89-1.135c0.557-0.062,1.043,0.323,1.101,0.872c0.062,0.577,0.093,1.305,0.094,1.898
			c0.001,0.553-0.446,1.136-0.998,1.136C60.835,35.375,60.834,35.375,60.834,35.375z"/>
	</g>
	<g>
		<path fill="#F62459" d="M58.907,27.547c-0.354,0-0.696-0.188-0.878-0.519c-2.586-4.713-7.527-7.64-12.896-7.64
			c-0.553,0-1-0.447-1-1c0-0.553,0.447-1,1-1c6.1,0,11.713,3.325,14.649,8.677c0.267,0.484,0.089,1.093-0.396,1.358
			C59.234,27.507,59.068,27.547,58.907,27.547z"/>
	</g>
</g>
</svg>
