<?xml version="1.0" encoding="utf-8"?>
<!-- Generator: Adobe Illustrator 16.0.3, SVG Export Plug-In . SVG Version: 6.00 Build 0)  -->
<!DOCTYPE svg PUBLIC "-//W3C//DTD SVG 1.1//EN" "http://www.w3.org/Graphics/SVG/1.1/DTD/svg11.dtd">
<svg version="1.1" id="Layer_1" xmlns="http://www.w3.org/2000/svg" xmlns:xlink="http://www.w3.org/1999/xlink" x="0px" y="0px"
	 width="72px" height="72px" viewBox="0 0 72 72" enable-background="new 0 0 72 72" xml:space="preserve">
<g opacity="0.2">
	<g>
		<path fill="#1B1D29" d="M68.5,61.068c0,3.828-3.104,6.933-6.932,6.933H10.432C6.604,68,3.5,64.896,3.5,61.068V10.932
			C3.5,7.104,6.604,4,10.432,4h51.136c3.828,0,6.933,3.104,6.933,6.932L68.5,61.068L68.5,61.068z M64.5,10.932
			C64.5,9.313,63.188,8,61.568,8H10.432C8.813,8,7.5,9.313,7.5,10.932v50.136C7.5,62.688,8.813,64,10.432,64h51.136
			c1.619,0,2.933-1.312,2.933-2.932L64.5,10.932L64.5,10.932z"/>
	</g>
	<g>
		<path fill="#1B1D29" d="M66.119,19h-61c-0.553,0-1-0.447-1-1s0.447-1,1-1h61c0.552,0,1,0.447,1,1S66.671,19,66.119,19z"/>
	</g>
	<g>
		<path fill="#1B1D29" d="M12.119,14h-1c-0.553,0-1-0.447-1-1s0.447-1,1-1h1c0.552,0,1,0.447,1,1S12.671,14,12.119,14z"/>
	</g>
	<g>
		<path fill="#1B1D29" d="M19.119,14h-1c-0.553,0-1-0.447-1-1s0.447-1,1-1h1c0.552,0,1,0.447,1,1S19.671,14,19.119,14z"/>
	</g>
	<g>
		<path fill="#1B1D29" d="M26.119,14h-1c-0.553,0-1-0.447-1-1s0.447-1,1-1h1c0.552,0,1,0.447,1,1S26.671,14,26.119,14z"/>
	</g>
	<g>
		<g>
			<path fill="#1B1D29" d="M25.286,54.48c-0.291,0-0.58-0.127-0.777-0.369l-9.167-11.312c-0.297-0.367-0.297-0.893,0-1.26
				l5.647-6.97c0.348-0.428,0.978-0.493,1.406-0.147c0.43,0.348,0.495,0.978,0.147,1.406l-5.137,6.34l8.656,10.684
				c0.348,0.431,0.281,1.06-0.147,1.406C25.729,54.409,25.507,54.48,25.286,54.48z"/>
		</g>
		<g>
			<path fill="#1B1D29" d="M24.371,32.984c-0.221,0-0.443-0.073-0.629-0.224c-0.429-0.348-0.495-0.978-0.147-1.406l0.914-1.127
				c0.349-0.429,0.978-0.494,1.406-0.146c0.428,0.348,0.495,0.978,0.147,1.406l-0.914,1.127
				C24.951,32.857,24.662,32.984,24.371,32.984z"/>
		</g>
		<g>
			<path fill="#1B1D29" d="M46.952,54.48c-0.222,0-0.444-0.071-0.629-0.223c-0.431-0.348-0.495-0.977-0.147-1.406l8.656-10.684
				l-8.656-10.682c-0.348-0.43-0.281-1.06,0.147-1.407c0.427-0.347,1.058-0.281,1.405,0.147l9.166,11.313
				c0.299,0.367,0.299,0.893,0,1.26l-9.166,11.312C47.531,54.354,47.243,54.48,46.952,54.48z"/>
		</g>
		<g>
			<path fill="#1B1D29" d="M31.952,49.168c-0.221,0-0.443-0.072-0.629-0.223c-0.429-0.348-0.495-0.978-0.147-1.406l9.167-11.313
				c0.349-0.428,0.978-0.494,1.406-0.148c0.429,0.348,0.495,0.979,0.147,1.408l-9.167,11.312
				C32.532,49.042,32.243,49.168,31.952,49.168z"/>
		</g>
	</g>
</g>
</svg>
