<?xml version="1.0" encoding="utf-8"?>
<!-- Generator: Adobe Illustrator 16.0.0, SVG Export Plug-In . SVG Version: 6.00 Build 0)  -->
<!DOCTYPE svg PUBLIC "-//W3C//DTD SVG 1.1//EN" "http://www.w3.org/Graphics/SVG/1.1/DTD/svg11.dtd">
<svg version="1.1" id="Layer_1" xmlns="http://www.w3.org/2000/svg" xmlns:xlink="http://www.w3.org/1999/xlink" x="0px" y="0px"
	 width="72px" height="72px" viewBox="0 0 72 72" enable-background="new 0 0 72 72" xml:space="preserve">
<g>
	<g>
		<path d="M54.088,60.794c-1.104,0-2-0.896-2-2s0.896-2,2-2c5.548,0,10.416-9.492,10.416-15.229c0-4.258-2.601-4.978-10.416-4.978
			c-1.104,0-2-0.895-2-2s0.896-2,2-2c6.084,0,14.416,0,14.416,8.977C68.504,49.129,62.313,60.794,54.088,60.794z"/>
	</g>
	<g>
		<path d="M45.088,68.566h-32c-8.192,0-9.592-3.885-9.592-10.981V29.286c0-1.104,0.796-1.719,1.9-1.719h48
			c1.104,0,2.1,0.614,2.1,1.719v28.299C55.496,65.485,52.698,68.566,45.088,68.566z M7.496,31.567v26.018
			c0,6.012,0.485,6.981,5.592,6.981h32c5.365,0,6.408-1.283,6.408-6.981V31.567H7.496z"/>
	</g>
	<g>
		<g>
			<path d="M11.086,46.305c-0.26,0-0.52-0.109-0.71-0.29c-0.18-0.189-0.29-0.449-0.29-0.71c0-0.27,0.11-0.529,0.29-0.71
				c0.37-0.37,1.05-0.37,1.42,0c0.18,0.19,0.29,0.44,0.29,0.71c0,0.261-0.11,0.521-0.29,0.71
				C11.606,46.195,11.346,46.305,11.086,46.305z"/>
		</g>
		<g>
			<path d="M17.841,61.122c-5.667,0-7.345-1.733-7.345-7.417v-3.42c0-0.553,0.447-1,1-1c0.552,0,1,0.447,1,1v3.42
				c0,4.607,0.757,5.417,5.345,5.417c0.552,0,1,0.447,1,1S18.393,61.122,17.841,61.122z"/>
		</g>
	</g>
	<g>
		<g>
			<path d="M22.276,24.294c-0.576,0-1.148-0.248-1.544-0.727c-0.703-0.852-0.582-2.112,0.27-2.815
				c1.556-1.285,2.497-2.611,2.518-3.549c0.006-0.314-0.071-0.812-0.822-1.487c-2.091-1.881-6.441-5.796-2.336-11.457
				c0.649-0.895,1.899-1.093,2.793-0.445c0.895,0.648,1.094,1.899,0.445,2.793c-1.602,2.209-1.254,3.413,1.773,6.137
				c1.818,1.637,2.17,3.375,2.146,4.545c-0.047,2.179-1.42,4.442-3.97,6.548C23.176,24.144,22.725,24.294,22.276,24.294z"/>
		</g>
		<g>
			<path d="M34.276,24.294c-0.576,0-1.148-0.248-1.544-0.727c-0.703-0.852-0.582-2.112,0.27-2.815
				c1.556-1.285,2.497-2.611,2.518-3.549c0.006-0.314-0.071-0.812-0.822-1.487c-2.091-1.881-6.441-5.796-2.336-11.457
				c0.648-0.895,1.899-1.093,2.793-0.445c0.895,0.648,1.094,1.899,0.445,2.793c-1.602,2.209-1.254,3.413,1.773,6.137
				c1.818,1.637,2.17,3.375,2.146,4.545c-0.047,2.179-1.42,4.442-3.97,6.548C35.176,24.144,34.725,24.294,34.276,24.294z"/>
		</g>
	</g>
</g>
</svg>
