<?xml version="1.0" encoding="utf-8"?>
<!-- Generator: Adobe Illustrator 16.0.0, SVG Export Plug-In . SVG Version: 6.00 Build 0)  -->
<!DOCTYPE svg PUBLIC "-//W3C//DTD SVG 1.1//EN" "http://www.w3.org/Graphics/SVG/1.1/DTD/svg11.dtd">
<svg version="1.1" id="Layer_1" xmlns="http://www.w3.org/2000/svg" xmlns:xlink="http://www.w3.org/1999/xlink" x="0px" y="0px"
	 width="72px" height="72px" viewBox="0 0 72 72" enable-background="new 0 0 72 72" xml:space="preserve">
<g>
	<g>
		<path d="M36,68.803C17.911,68.803,3.195,54.088,3.195,36S17.911,3.197,36,3.197S68.805,17.913,68.805,36S54.089,68.803,36,68.803z
			 M36,7.197C20.117,7.197,7.195,20.118,7.195,36S20.117,64.803,36,64.803S64.805,51.883,64.805,36S51.883,7.197,36,7.197z"/>
	</g>
	<g>
		<path d="M35.272,9.857c-1.104,0-2-0.896-2-2v-2c0-1.104,0.896-2,2-2s2,0.896,2,2v2C37.272,8.961,36.377,9.857,35.272,9.857z"/>
	</g>
	<g>
		<path d="M35.272,67.856c-1.104,0-2-0.895-2-2v-2c0-1.104,0.896-2,2-2s2,0.896,2,2v2C37.272,66.961,36.377,67.856,35.272,67.856z"
			/>
	</g>
	<g>
		<path d="M66,38.485h-3c-1.104,0-2-0.896-2-2s0.896-2,2-2h3c1.104,0,2,0.896,2,2S67.104,38.485,66,38.485z"/>
	</g>
	<g>
		<path d="M8,38.485H6.001c-1.104,0-2-0.896-2-2s0.896-2,2-2H8c1.104,0,2,0.896,2,2S9.104,38.485,8,38.485z"/>
	</g>
	<g>
		<path d="M26.339,46.826c-0.26,0-0.514-0.102-0.704-0.29c-0.274-0.271-0.367-0.677-0.24-1.04l5.095-14.557
			c0.101-0.285,0.323-0.51,0.607-0.611l14.228-5.095c0.36-0.129,0.768-0.04,1.041,0.231c0.274,0.271,0.367,0.677,0.239,1.04
			l-1.417,4.048c-0.182,0.521-0.751,0.8-1.273,0.613c-0.521-0.182-0.796-0.753-0.613-1.273l0.724-2.069L32.22,32.049l-4.244,12.128
			L39.78,39.95l0.569-1.624c0.182-0.52,0.752-0.798,1.274-0.612c0.521,0.183,0.795,0.753,0.612,1.274l-0.727,2.073
			c-0.1,0.284-0.322,0.509-0.606,0.61l-14.228,5.096C26.566,46.806,26.452,46.826,26.339,46.826z"/>
	</g>
	<g>
		<path d="M42.447,36.357c-0.109,0-0.221-0.018-0.33-0.057c-0.521-0.182-0.796-0.753-0.613-1.273l0.804-2.295
			c0.182-0.521,0.751-0.799,1.273-0.613c0.521,0.182,0.796,0.753,0.613,1.273l-0.804,2.295
			C43.247,36.099,42.86,36.357,42.447,36.357z"/>
	</g>
</g>
</svg>
