<?xml version="1.0" encoding="utf-8"?>
<!-- Generator: Adobe Illustrator 16.0.3, SVG Export Plug-In . SVG Version: 6.00 Build 0)  -->
<!DOCTYPE svg PUBLIC "-//W3C//DTD SVG 1.1//EN" "http://www.w3.org/Graphics/SVG/1.1/DTD/svg11.dtd">
<svg version="1.1" id="Layer_1" xmlns="http://www.w3.org/2000/svg" xmlns:xlink="http://www.w3.org/1999/xlink" x="0px" y="0px"
	 width="72px" height="72px" viewBox="0 0 72 72" enable-background="new 0 0 72 72" xml:space="preserve">
<g>
	<g>
		<path fill="#FFFFFF" d="M35.649,45.188c-5.066,0-9.188-4.121-9.188-9.188c0-5.066,4.121-9.188,9.188-9.188
			c5.065,0,9.188,4.122,9.188,9.188C44.837,41.066,40.715,45.188,35.649,45.188z M35.649,30.812c-2.86,0-5.188,2.327-5.188,5.188
			c0,2.861,2.327,5.188,5.188,5.188s5.188-2.326,5.188-5.188C40.837,33.139,38.51,30.812,35.649,30.812z"/>
	</g>
	<g>
		<path fill="#FFFFFF" d="M35.913,68.5H35.72c-3.65,0-6.958-2.748-8.125-6.572c-1.561-0.484-3.078-1.115-4.536-1.881
			c-1.498,0.842-3.155,1.297-4.777,1.297c-2.091,0-4.015-0.773-5.418-2.177l-0.172-0.183c-2.541-2.539-2.924-6.822-1.034-10.356
			c-0.752-1.44-1.274-2.976-1.768-4.585c-3.83-1.157-6.39-4.326-6.39-7.92V35.93c0-3.607,2.558-6.795,6.384-7.966
			c0.519-1.718,1.103-3.29,1.876-4.755c-1.943-3.501-1.652-7.604,0.887-10.144l0.126-0.139c1.462-1.462,3.494-2.269,5.731-2.269
			c1.628,0,3.261,0.424,4.717,1.211c1.364-0.705,2.781-1.292,4.236-1.753C28.459,6.262,31.806,3.5,35.72,3.5h0.193
			c3.858,0,7.03,2.714,7.96,6.625c1.475,0.469,2.909,1.065,4.288,1.783c1.399-0.82,2.991-1.262,4.597-1.262
			c2.262,0,4.368,0.86,5.932,2.422l0.103,0.095c2.772,2.771,3.104,6.936,1.002,10.354c0.729,1.394,1.437,2.813,1.897,4.242
			c3.904,0.924,6.81,4.232,6.81,8.171v0.193c0,3.918-2.905,7.207-6.815,8.121c-0.438,1.333-1.067,2.691-1.781,4.062
			c2.063,3.442,1.638,7.789-1.156,10.584l-0.146,0.213C57.104,60.6,55.098,61.5,52.982,61.5h0.002c-1.601,0-3.213-0.549-4.655-1.42
			c-1.47,0.779-3.003,1.38-4.583,1.873C42.663,65.838,39.531,68.5,35.913,68.5z M22.983,55.719c0.349,0,0.697,0.09,1.01,0.273
			c1.821,1.064,3.767,1.873,5.78,2.4c0.76,0.197,1.333,0.823,1.465,1.598c0.431,2.529,2.399,4.51,4.481,4.51h0.193
			c2.281,0,3.818-2.252,4.154-4.477c0.119-0.791,0.697-1.434,1.471-1.635c2.061-0.541,4.042-1.371,5.891-2.466
			c0.721-0.428,1.633-0.358,2.282,0.169c0.989,0.807,2.153,1.249,3.276,1.25l0,0c1.062,0,2.02-0.396,2.769-1.145l0.134-0.135
			c1.653-1.653,1.682-4.389,0.065-6.36c-0.524-0.642-0.601-1.539-0.188-2.259c1.074-1.887,1.855-3.731,2.322-5.487
			c0.217-0.817,1.029-1.41,1.872-1.479c2.569-0.213,4.539-2.045,4.539-4.354v-0.193c0-2.336-1.972-4.189-4.542-4.408
			c-0.841-0.071-1.6-0.663-1.816-1.479c-0.504-1.899-1.332-3.802-2.41-5.654c-0.42-0.724-0.358-1.633,0.174-2.279
			c1.648-1.997,1.688-4.496,0.107-6.078l-0.104-0.095c-0.851-0.848-1.954-1.292-3.147-1.292c-1.15,0-2.298,0.414-3.229,1.164
			c-0.645,0.52-1.545,0.589-2.262,0.172c-1.783-1.038-3.691-1.83-5.67-2.355c-0.81-0.214-1.399-0.909-1.479-1.742
			C39.871,9.303,38.143,7.5,35.913,7.5H35.72c-2.313,0-4.264,1.895-4.535,4.407c-0.089,0.823-0.676,1.506-1.477,1.719
			c-1.935,0.512-3.806,1.283-5.562,2.291c-0.68,0.392-1.528,0.348-2.165-0.112c-1.011-0.729-2.28-1.146-3.482-1.146
			c-1.169,0-2.203,0.391-2.912,1.1l-0.14,0.139c-1.6,1.6-1.107,4.267,0.206,6.074c0.471,0.647,0.511,1.513,0.101,2.2
			c-1.046,1.755-1.841,3.707-2.431,5.965c-0.197,0.755-0.71,1.326-1.479,1.463C9.308,32.052,7.5,33.914,7.5,35.931v0.193
			c0,1.996,1.806,3.835,4.34,4.278c0.771,0.136,1.339,0.707,1.537,1.466c0.547,2.094,1.319,4.047,2.348,5.805
			c0.397,0.679,0.347,1.527-0.109,2.168c-1.491,2.099-1.515,4.894-0.045,6.362l0.168,0.181c0.787,0.786,1.821,0.961,2.544,0.961
			c1.171,0,2.452-0.45,3.515-1.235C22.149,55.85,22.565,55.719,22.983,55.719z"/>
	</g>
	<g>
		<g>
			<path fill="#FFFFFF" d="M52.704,30.489c-0.402,0-0.781-0.244-0.935-0.642c-2.539-6.612-9.006-11.054-16.091-11.055
				c-0.553,0-1-0.448-1-1s0.447-1,1-1l0,0c7.906,0,15.124,4.958,17.958,12.338c0.197,0.515-0.06,1.094-0.574,1.292
				C52.943,30.468,52.823,30.489,52.704,30.489z"/>
		</g>
		<g>
			<path fill="#FFFFFF" d="M18.936,44.918c-0.339,0-0.67-0.173-0.857-0.484c-0.199-0.33-0.288-0.574-0.448-1.02
				c-0.077-0.211-0.175-0.482-0.318-0.857c-0.198-0.516,0.06-1.094,0.575-1.291c0.515-0.199,1.094,0.061,1.292,0.574
				c0.149,0.391,0.252,0.674,0.331,0.895c0.146,0.4,0.188,0.513,0.281,0.666c0.285,0.475,0.133,1.089-0.34,1.373
				C19.289,44.872,19.111,44.918,18.936,44.918z"/>
		</g>
		<g>
			<path fill="#FFFFFF" d="M35.271,54.895L35.271,54.895c-5.683,0-11.045-2.494-14.711-6.843c-0.356-0.423-0.303-1.054,0.12-1.409
				c0.421-0.355,1.053-0.303,1.409,0.121c3.285,3.896,8.09,6.131,13.182,6.131c0.552,0,1,0.448,1,1
				C36.271,54.448,35.823,54.895,35.271,54.895z"/>
		</g>
	</g>
</g>
</svg>
