<?xml version="1.0" encoding="utf-8"?>
<!-- Generator: Adobe Illustrator 16.0.3, SVG Export Plug-In . SVG Version: 6.00 Build 0)  -->
<!DOCTYPE svg PUBLIC "-//W3C//DTD SVG 1.1//EN" "http://www.w3.org/Graphics/SVG/1.1/DTD/svg11.dtd">
<svg version="1.1" id="Capa_1" xmlns="http://www.w3.org/2000/svg" xmlns:xlink="http://www.w3.org/1999/xlink" x="0px" y="0px"
	 width="300px" height="300px" viewBox="0 0 300 300" enable-background="new 0 0 300 300" xml:space="preserve">
<g>
	<path fill="#4E5264" d="M300,150C300,67.159,232.841,0,150,0S0,67.159,0,150s67.159,150,150,150S300,232.841,300,150z M13.636,150
		c0-75.313,61.05-136.364,136.364-136.364c75.314,0,136.363,61.051,136.363,136.364c0,75.312-61.051,136.363-136.363,136.363
		C74.687,286.363,13.636,225.312,13.636,150z"/>
	<rect x="83.5" y="86.5" fill="none" width="164" height="165"/>
	<text transform="matrix(1 0 0 1 83.5 212.0596)" fill="#4E5264" font-family="'Raleway'" font-size="172">C</text>
</g>
</svg>
