<?xml version="1.0" encoding="utf-8"?>
<!-- Generator: Adobe Illustrator 16.0.0, SVG Export Plug-In . SVG Version: 6.00 Build 0)  -->
<!DOCTYPE svg PUBLIC "-//W3C//DTD SVG 1.1//EN" "http://www.w3.org/Graphics/SVG/1.1/DTD/svg11.dtd">
<svg version="1.1" id="Layer_1" xmlns="http://www.w3.org/2000/svg" xmlns:xlink="http://www.w3.org/1999/xlink" x="0px" y="0px"
	 width="72px" height="72px" viewBox="0 0 72 72" enable-background="new 0 0 72 72" xml:space="preserve">
<g>
	<g>
		<path d="M68.5,53.569c0,3.828-3.104,6.932-6.932,6.932H10.432c-3.828,0-6.932-3.104-6.932-6.932V18.432
			c0-3.828,3.104-6.932,6.932-6.932h51.137c3.828,0,6.932,3.104,6.932,6.932V53.569z M64.5,18.432c0-1.619-1.313-2.932-2.932-2.932
			H10.432c-1.619,0-2.932,1.313-2.932,2.932v35.137c0,1.619,1.313,2.932,2.932,2.932h51.137c1.619,0,2.932-1.313,2.932-2.932V18.432
			z"/>
	</g>
	<g>
		<path d="M67.119,23.5h-61c-0.553,0-1-0.447-1-1s0.447-1,1-1h61c0.552,0,1,0.447,1,1S67.671,23.5,67.119,23.5z"/>
	</g>
	<g>
		<path d="M67.119,34.5h-61c-0.553,0-1-0.447-1-1s0.447-1,1-1h61c0.552,0,1,0.447,1,1S67.671,34.5,67.119,34.5z"/>
	</g>
	<g>
		<path d="M14.119,49.5h-4c-0.553,0-1-0.447-1-1s0.447-1,1-1h4c0.552,0,1,0.447,1,1S14.671,49.5,14.119,49.5z"/>
	</g>
	<g>
		<path d="M25.119,49.5h-7c-0.553,0-1-0.447-1-1s0.447-1,1-1h7c0.552,0,1,0.447,1,1S25.671,49.5,25.119,49.5z"/>
	</g>
	<g>
		<path d="M31.119,49.5h-2c-0.553,0-1-0.447-1-1s0.447-1,1-1h2c0.552,0,1,0.447,1,1S31.671,49.5,31.119,49.5z"/>
	</g>
</g>
</svg>
