<?xml version="1.0" encoding="utf-8"?>
<!-- Generator: Adobe Illustrator 16.0.0, SVG Export Plug-In . SVG Version: 6.00 Build 0)  -->
<!DOCTYPE svg PUBLIC "-//W3C//DTD SVG 1.1//EN" "http://www.w3.org/Graphics/SVG/1.1/DTD/svg11.dtd">
<svg version="1.1" id="Layer_1" xmlns="http://www.w3.org/2000/svg" xmlns:xlink="http://www.w3.org/1999/xlink" x="0px" y="0px"
	 width="72px" height="72px" viewBox="0 0 72 72" enable-background="new 0 0 72 72" xml:space="preserve">
<g>
	<g>
		<path d="M36.333,59.954c-13.509,0-24.5-10.99-24.5-24.5c0-13.51,10.991-24.5,24.5-24.5c13.51,0,24.501,10.99,24.501,24.5
			C60.834,48.963,49.843,59.954,36.333,59.954z M36.333,14.953c-11.304,0-20.5,9.196-20.5,20.5c0,11.303,9.196,20.5,20.5,20.5
			c11.305,0,20.501-9.197,20.501-20.5C56.834,24.149,47.638,14.953,36.333,14.953z"/>
	</g>
	<g>
		<g>
			<path d="M24.566,24.846c-0.269,0-0.536-0.107-0.733-0.319c-0.376-0.405-0.352-1.038,0.053-1.414
				c1.991-1.848,4.423-3.198,7.032-3.906c0.534-0.148,1.082,0.171,1.227,0.703c0.145,0.533-0.17,1.082-0.703,1.227
				c-2.298,0.624-4.44,1.814-6.195,3.443C25.054,24.758,24.81,24.846,24.566,24.846z"/>
		</g>
		<g>
			<path d="M20.412,31.146c-0.111,0-0.225-0.019-0.335-0.058c-0.521-0.186-0.793-0.757-0.607-1.277
				c0.284-0.8,0.633-1.585,1.036-2.333c0.262-0.485,0.869-0.67,1.354-0.405c0.486,0.262,0.668,0.868,0.406,1.354
				c-0.355,0.658-0.662,1.35-0.912,2.054C21.209,30.891,20.823,31.146,20.412,31.146z"/>
		</g>
	</g>
	<g>
		<path d="M36.881,21.5c-1.104,0-2-0.896-2-2v-14c0-1.104,0.896-2,2-2s2,0.896,2,2v14C38.881,20.604,37.985,21.5,36.881,21.5z"/>
	</g>
	<g>
		<path d="M36.881,68.5c-1.104,0-2-0.896-2-2v-14c0-1.105,0.896-2,2-2s2,0.895,2,2v14C38.881,67.604,37.985,68.5,36.881,68.5z"/>
	</g>
	<g>
		<path d="M66.5,38.5h-14c-1.104,0-2-0.896-2-2c0-1.104,0.896-2,2-2h14c1.104,0,2,0.896,2,2C68.5,37.604,67.604,38.5,66.5,38.5z"/>
	</g>
	<g>
		<path d="M19.5,38.5h-14c-1.104,0-2-0.896-2-2c0-1.104,0.896-2,2-2h14c1.104,0,2,0.896,2,2C21.5,37.604,20.604,38.5,19.5,38.5z"/>
	</g>
</g>
</svg>
