<?xml version="1.0" encoding="utf-8"?>
<!-- Generator: Adobe Illustrator 16.0.0, SVG Export Plug-In . SVG Version: 6.00 Build 0)  -->
<!DOCTYPE svg PUBLIC "-//W3C//DTD SVG 1.1//EN" "http://www.w3.org/Graphics/SVG/1.1/DTD/svg11.dtd">
<svg version="1.1" id="Layer_1" xmlns="http://www.w3.org/2000/svg" xmlns:xlink="http://www.w3.org/1999/xlink" x="0px" y="0px"
	 width="72px" height="72px" viewBox="0 0 72 72" enable-background="new 0 0 72 72" xml:space="preserve">
<g>
	<g>
		<path d="M36.003,67.941c-1.534,0-2.996-0.773-4.01-2.125L3.991,28.488c-1.827-2.436-1.918-6.316-0.207-8.836L11.828,8.02
			c1.53-2.252,4.927-3.96,7.893-3.96h32.546c2.967,0,6.365,1.705,7.904,3.967l8.023,11.686c1.735,2.549,1.648,6.322-0.197,8.785
			l-28.004,37.33C38.986,67.171,37.531,67.941,36.003,67.941z M19.721,8.06c-1.643,0-3.789,1.038-4.594,2.222L7.083,21.914
			c-0.747,1.102-0.7,3.098,0.107,4.174l28.003,37.328c0.501,0.668,1.101,0.678,1.6,0.014l28.004-37.332
			c0.811-1.082,0.855-3.01,0.096-4.127l-8.024-11.687C56.06,9.096,53.912,8.06,52.267,8.06H19.721z"/>
	</g>
	<g>
		<path d="M67.743,25.06h-61c-0.552,0-1-0.447-1-1s0.448-1,1-1h61c0.553,0,1,0.447,1,1S68.296,25.06,67.743,25.06z"/>
	</g>
	<g>
		<path d="M34.409,24.679c-0.24,0-0.481-0.086-0.674-0.262L15.258,7.551c-0.407-0.372-0.437-1.005-0.064-1.412
			c0.372-0.409,1.005-0.438,1.413-0.064l18.478,16.867c0.408,0.373,0.437,1.006,0.064,1.412
			C34.951,24.57,34.681,24.679,34.409,24.679z"/>
	</g>
	<g>
		<path d="M36.933,24.679c-0.271,0-0.542-0.109-0.739-0.326c-0.372-0.406-0.343-1.039,0.064-1.412l9.826-8.969
			c0.408-0.374,1.042-0.343,1.413,0.064c0.372,0.408,0.343,1.041-0.064,1.412l-9.826,8.969
			C37.415,24.593,37.173,24.679,36.933,24.679z"/>
	</g>
	<g>
		<path d="M49.329,13.365c-0.271,0-0.541-0.109-0.738-0.325c-0.373-0.408-0.344-1.041,0.063-1.413l0.696-0.636
			c0.408-0.371,1.04-0.343,1.412,0.063c0.373,0.408,0.344,1.04-0.063,1.413l-0.696,0.636C49.812,13.278,49.57,13.365,49.329,13.365z
			"/>
	</g>
	<g>
		<path d="M52.431,10.533c-0.271,0-0.542-0.109-0.739-0.326c-0.372-0.407-0.344-1.04,0.064-1.412l2.979-2.721
			c0.409-0.374,1.041-0.345,1.413,0.064c0.372,0.407,0.344,1.04-0.064,1.412l-2.979,2.721
			C52.912,10.447,52.671,10.533,52.431,10.533z"/>
	</g>
	<g>
		<path d="M21.405,28.07c-0.4,0-0.777-0.24-0.932-0.635l-1.202-3.01c-0.201-0.514,0.053-1.094,0.566-1.297
			c0.517-0.201,1.096,0.055,1.296,0.568l1.202,3.01c0.201,0.514-0.053,1.094-0.566,1.295C21.649,28.048,21.526,28.07,21.405,28.07z"
			/>
	</g>
	<g>
		<path d="M22.729,31.453c-0.399,0-0.776-0.24-0.932-0.635l-0.351-0.895c-0.201-0.514,0.053-1.094,0.566-1.295
			c0.516-0.203,1.095,0.053,1.296,0.564l0.351,0.895c0.202,0.516-0.052,1.096-0.566,1.297C22.974,31.431,22.85,31.453,22.729,31.453
			z"/>
	</g>
	<g>
		<path d="M35.993,65.345c-0.399,0-0.777-0.24-0.932-0.635L23.146,34.263c-0.201-0.514,0.052-1.094,0.566-1.295
			c0.514-0.203,1.095,0.053,1.296,0.566l11.916,30.447c0.201,0.514-0.052,1.094-0.566,1.295
			C36.237,65.324,36.114,65.345,35.993,65.345z"/>
	</g>
	<g>
		<path d="M35.993,65.345c-0.12,0-0.243-0.021-0.361-0.066c-0.515-0.199-0.771-0.779-0.571-1.295l15.445-39.846
			c0.2-0.516,0.779-0.771,1.294-0.572s0.771,0.779,0.571,1.295L36.926,64.707C36.771,65.103,36.394,65.345,35.993,65.345z"/>
	</g>
</g>
</svg>
