<?xml version="1.0" encoding="utf-8"?>
<!-- Generator: Adobe Illustrator 16.0.0, SVG Export Plug-In . SVG Version: 6.00 Build 0)  -->
<!DOCTYPE svg PUBLIC "-//W3C//DTD SVG 1.1//EN" "http://www.w3.org/Graphics/SVG/1.1/DTD/svg11.dtd">
<svg version="1.1" id="Layer_1" xmlns="http://www.w3.org/2000/svg" xmlns:xlink="http://www.w3.org/1999/xlink" x="0px" y="0px"
	 width="72px" height="72px" viewBox="0 0 72 72" enable-background="new 0 0 72 72" xml:space="preserve">
<g>
	<g>
		<path d="M36,68.27C18.206,68.27,3.73,53.793,3.73,36C3.73,18.207,18.206,3.731,36,3.731c17.793,0,32.27,14.476,32.27,32.269
			C68.27,53.793,53.793,68.27,36,68.27z M36,7.731C20.412,7.731,7.73,20.413,7.73,36C7.73,51.588,20.412,64.27,36,64.27
			S64.27,51.588,64.27,36C64.27,20.413,51.588,7.731,36,7.731z"/>
	</g>
	<g>
		<path d="M36,43.519c-4.146,0-7.52-3.373-7.52-7.52s3.373-7.52,7.52-7.52s7.52,3.373,7.52,7.52S40.146,43.519,36,43.519z M36,32.48
			c-1.941,0-3.52,1.579-3.52,3.52s1.578,3.52,3.52,3.52c1.94,0,3.52-1.579,3.52-3.52S37.94,32.48,36,32.48z"/>
	</g>
	<g>
		<path d="M12.645,38.291c-0.531,0-0.973-0.511-0.998-1.047c-0.018-0.381-0.026-0.812-0.026-1.197c0-0.553,0.447-1.023,1-1.023
			c0.552,0,1,0.436,1,0.988c0,0.354,0.008,0.795,0.024,1.145c0.025,0.553-0.4,1.135-0.952,1.135
			C12.676,38.291,12.66,38.291,12.645,38.291z"/>
	</g>
	<g>
		<path d="M24.485,57.354c-0.167,0-0.336-0.041-0.492-0.129c-6.396-3.629-10.776-9.848-12.02-17.062
			c-0.094-0.545,0.271-1.062,0.815-1.155c0.55-0.095,1.062,0.271,1.155,0.815c1.141,6.622,5.163,12.329,11.035,15.661
			c0.48,0.271,0.649,0.883,0.377,1.363C25.172,57.172,24.834,57.354,24.485,57.354z"/>
	</g>
	<g>
		<path d="M23.05,49.173c-0.259,0-0.518-0.1-0.713-0.299c-2.968-3.02-4.602-7.013-4.602-11.246c0-0.553,0.447-1,1-1
			c0.552,0,1,0.447,1,1c0,3.705,1.431,7.201,4.028,9.844c0.387,0.395,0.381,1.027-0.013,1.414
			C23.557,49.078,23.303,49.173,23.05,49.173z"/>
	</g>
	<g>
		<path d="M26.37,51.727c-0.167,0-0.337-0.043-0.492-0.131c-0.323-0.184-0.64-0.377-0.949-0.584
			c-0.459-0.305-0.584-0.926-0.278-1.386c0.307-0.461,0.926-0.588,1.387-0.278c0.27,0.179,0.546,0.348,0.828,0.509
			c0.48,0.272,0.648,0.884,0.376,1.364C27.057,51.545,26.719,51.727,26.37,51.727z"/>
	</g>
	<g>
		<path d="M27.719,45.893c-0.167,0-0.337-0.042-0.492-0.13c-2.522-1.431-4.089-4.118-4.089-7.015c0-0.553,0.447-1,1-1
			c0.552,0,1,0.447,1,1c0,2.178,1.178,4.199,3.075,5.274c0.48,0.272,0.648,0.883,0.376,1.363
			C28.405,45.711,28.066,45.893,27.719,45.893z"/>
	</g>
	<g>
		<path d="M58.82,38.679c-0.039,0-0.079-0.002-0.118-0.007c-0.549-0.064-0.941-0.562-0.877-1.11
			c0.942-8.001-2.5-15.928-8.982-20.688c-0.445-0.326-0.541-0.952-0.215-1.397c0.326-0.444,0.953-0.541,1.398-0.214
			c7.062,5.185,10.812,13.819,9.785,22.534C59.752,38.305,59.32,38.679,58.82,38.679z"/>
	</g>
	<g>
		<path d="M53.167,36.869c-0.039,0-0.078-0.002-0.118-0.007c-0.549-0.064-0.94-0.562-0.876-1.11
			c0.592-5.021-1.568-9.997-5.637-12.984c-0.445-0.326-0.541-0.952-0.215-1.397c0.326-0.444,0.952-0.541,1.398-0.214
			c4.648,3.412,7.115,9.095,6.439,14.83C54.099,36.495,53.667,36.869,53.167,36.869z"/>
	</g>
	<g>
		<path d="M47.668,34.502c-0.039,0-0.078-0.002-0.118-0.007c-0.549-0.064-0.94-0.562-0.876-1.11
			c0.255-2.166-0.677-4.312-2.432-5.601c-0.445-0.326-0.541-0.952-0.215-1.397c0.327-0.444,0.953-0.54,1.398-0.214
			c2.334,1.714,3.573,4.566,3.234,7.446C48.6,34.128,48.168,34.502,47.668,34.502z"/>
	</g>
</g>
</svg>
