<?xml version="1.0" encoding="utf-8"?>
<!-- Generator: Adobe Illustrator 16.0.0, SVG Export Plug-In . SVG Version: 6.00 Build 0)  -->
<!DOCTYPE svg PUBLIC "-//W3C//DTD SVG 1.1//EN" "http://www.w3.org/Graphics/SVG/1.1/DTD/svg11.dtd">
<svg version="1.1" id="Layer_1" xmlns="http://www.w3.org/2000/svg" xmlns:xlink="http://www.w3.org/1999/xlink" x="0px" y="0px"
	 width="72px" height="72px" viewBox="0 0 72 72" enable-background="new 0 0 72 72" xml:space="preserve">
<g>
	<g>
		<g>
			<path d="M36.152,50.9c-1.345,0-2.653-0.684-3.59-1.879l-7.594-10.066c-0.979-1.246-1.225-2.865-0.631-4.085
				c0.543-1.116,1.662-1.833,3.072-1.833h2.972v-2.004c0-3.315,2.482-6.116,5.536-6.116c2.526,0,4.387,1.185,5.194,3.25
				c0.201,0.515-0.076,1.095-0.592,1.296c-0.516,0.203-1.107-0.054-1.309-0.567c-0.639-1.636-2.098-1.979-3.288-1.979
				c-1.936,0-3.542,1.924-3.542,4.116v3.156c0,0.553-0.645,0.848-1.197,0.848H27.41c-0.624,0-1.076,0.301-1.274,0.708
				c-0.252,0.519-0.088,1.308,0.418,1.953l7.594,10.086c1.029,1.314,2.722,1.463,3.718,0.191l7.563-10.316
				c0.523-0.668,0.688-1.446,0.449-1.936c-0.193-0.395-0.648-0.686-1.285-0.686h-4.408c-0.551,0-1-0.447-1-1s0.449-1,1-1h4.408
				c1.422,0,2.547,0.709,3.082,1.812c0.578,1.186,0.328,2.736-0.652,3.986l-7.563,10.34C38.588,50.285,37.42,50.9,36.152,50.9z"/>
		</g>
		<g>
			<path d="M40.305,33.309c-0.271,0-0.531-0.11-0.711-0.29c-0.189-0.19-0.289-0.45-0.289-0.71c0-0.271,0.109-0.53,0.289-0.71
				c0.371-0.37,1.051-0.37,1.42,0c0.18,0.189,0.291,0.439,0.291,0.71c0,0.26-0.111,0.52-0.301,0.71
				C40.824,33.199,40.564,33.309,40.305,33.309z"/>
		</g>
	</g>
	<g>
		<path d="M36,68.482C18.09,68.482,3.518,53.91,3.518,36C3.518,18.089,18.09,3.518,36,3.518c17.91,0,32.482,14.571,32.482,32.482
			C68.482,53.91,53.91,68.482,36,68.482z M36,7.518C20.295,7.518,7.518,20.295,7.518,36c0,15.705,12.777,28.482,28.482,28.482
			c15.705,0,28.482-12.777,28.482-28.482C64.482,20.295,51.705,7.518,36,7.518z"/>
	</g>
	<g>
		<path d="M60.148,37c-0.551,0-1-0.447-1-1c0-10.407-7.002-19.59-17.029-22.331c-0.531-0.146-0.846-0.695-0.701-1.229
			c0.146-0.533,0.695-0.845,1.229-0.701C53.541,14.718,61.148,24.694,61.148,36C61.148,36.553,60.701,37,60.148,37z"/>
	</g>
	<g>
		<path d="M37.35,12.888c-0.02,0-0.037,0-0.057-0.002c-0.428-0.023-0.859-0.035-1.292-0.035c-0.552,0-1-0.447-1-1s0.448-1,1-1
			c0.47,0,0.937,0.014,1.402,0.039c0.553,0.029,0.975,0.501,0.945,1.053C38.318,12.475,37.877,12.888,37.35,12.888z"/>
	</g>
</g>
</svg>
