<?xml version="1.0" encoding="utf-8"?>
<!-- Generator: Adobe Illustrator 16.0.0, SVG Export Plug-In . SVG Version: 6.00 Build 0)  -->
<!DOCTYPE svg PUBLIC "-//W3C//DTD SVG 1.1//EN" "http://www.w3.org/Graphics/SVG/1.1/DTD/svg11.dtd">
<svg version="1.1" id="Layer_1" xmlns="http://www.w3.org/2000/svg" xmlns:xlink="http://www.w3.org/1999/xlink" x="0px" y="0px"
	 width="72px" height="72px" viewBox="0 0 72 72" enable-background="new 0 0 72 72" xml:space="preserve">
<g>
	<g>
		<path d="M43,63.291H18c-8.822,0-16-7.234-16-16.125c0-5.543,2.925-10.793,7.541-13.696c0.422-4.595,4.018-8.286,8.57-8.854
			c4.41-9.706,13.978-15.907,24.723-15.907C57.813,8.709,70,20.896,70,35.875c0,14.664-11.724,26.781-26.248,27.269
			C43.455,63.264,43.184,63.291,43,63.291z M19.251,28.54c-3.134,0.002-5.751,2.619-5.751,5.836l0.013,0.2
			c0.025,0.767-0.391,1.48-1.07,1.837C8.528,38.463,6,42.686,6,47.166c0,6.686,5.383,12.125,12,12.125h24.45
			c0.284-0.107,0.541-0.133,0.718-0.133C55.746,58.994,66,48.549,66,35.875c0-12.773-10.393-23.166-23.166-23.166
			c-9.532,0-17.978,5.724-21.516,14.581c-0.304,0.761-1.041,1.258-1.857,1.258C19.412,28.549,19.301,28.542,19.251,28.54z"/>
	</g>
	<g>
		<path d="M60.834,35.291c-0.552,0-0.999-0.504-1-1.057c-0.001-0.525-0.028-1.078-0.082-1.588c-0.059-0.549,0.34-1.056,0.89-1.113
			c0.542-0.063,1.041,0.334,1.099,0.883c0.062,0.576,0.093,1.225,0.094,1.818c0.001,0.553-0.446,1.057-0.998,1.057
			C60.836,35.291,60.835,35.291,60.834,35.291z"/>
	</g>
	<g>
		<path d="M58.907,27.631c-0.354,0-0.695-0.188-0.878-0.519c-2.586-4.713-7.527-7.64-12.896-7.64c-0.553,0-1-0.447-1-1s0.447-1,1-1
			c6.1,0,11.713,3.325,14.65,8.677c0.266,0.484,0.088,1.093-0.396,1.358C59.234,27.591,59.069,27.631,58.907,27.631z"/>
	</g>
	<g>
		<g>
			<path d="M37.354,53.172L37.354,53.172c-1.316,0-2.588-0.66-3.491-1.811l-7.586-9.805c-0.963-1.227-1.218-2.553-0.693-3.631
				c0.505-1.039,1.64-1.635,3.122-1.635h0.005h3.659v-3.175c0-3.287,2.233-5.862,5.321-5.862c2.346,0,4.165,1.31,5.022,3.504
				c0.201,0.515-0.099,1.095-0.612,1.296c-0.517,0.201-1.119-0.053-1.32-0.567c-0.563-1.439-1.544-2.232-3.079-2.232
				c-1.966,0-3.332,1.696-3.332,3.862v4.175c0,0.553-0.817,1-1.37,1h-4.289c-0.677,0-1.173,0.189-1.328,0.51
				c-0.172,0.352,0.01,0.936,0.472,1.525l7.587,9.805c0.524,0.67,1.205,1.041,1.913,1.041l0,0c0.674,0,1.317-0.346,1.813-0.977
				l7.575-9.893c0.466-0.596,0.648-1.17,0.482-1.512c-0.152-0.313-0.65-0.5-1.332-0.5H42c-0.553,0-1-0.447-1-1s0.447-1,1-1h3.893
				c1.486,0,2.628,0.592,3.131,1.625c0.519,1.066,0.264,2.383-0.7,3.611l-7.576,9.895C39.857,52.555,38.655,53.172,37.354,53.172z"
				/>
		</g>
		<g>
			<path d="M41.6,35.39c-0.26,0-0.52-0.109-0.71-0.29c-0.18-0.189-0.29-0.45-0.29-0.71s0.11-0.52,0.29-0.71
				c0.37-0.37,1.04-0.37,1.42,0c0.19,0.19,0.29,0.45,0.29,0.71s-0.1,0.521-0.29,0.71C42.12,35.281,41.859,35.39,41.6,35.39z"/>
		</g>
	</g>
</g>
</svg>
