<?xml version="1.0" encoding="utf-8"?>
<!-- Generator: Adobe Illustrator 16.0.0, SVG Export Plug-In . SVG Version: 6.00 Build 0)  -->
<!DOCTYPE svg PUBLIC "-//W3C//DTD SVG 1.1//EN" "http://www.w3.org/Graphics/SVG/1.1/DTD/svg11.dtd">
<svg version="1.1" id="Layer_1" xmlns="http://www.w3.org/2000/svg" xmlns:xlink="http://www.w3.org/1999/xlink" x="0px" y="0px"
	 width="72px" height="72px" viewBox="0 0 72 72" enable-background="new 0 0 72 72" xml:space="preserve">
<g>
	<g>
		<path d="M36.757,53.94c-5.351,0-10.35-2.052-14.076-5.777l-0.658-0.658c-3.777-3.778-5.829-8.849-5.776-14.278
			c0.053-5.392,2.17-10.448,5.96-14.238L32.484,8.71c0.75-0.75,2.078-0.75,2.828,0l26.163,26.163
			c0.375,0.375,0.586,0.884,0.586,1.414c0,0.531-0.211,1.04-0.586,1.415L51.197,47.979C47.354,51.823,42.225,53.94,36.757,53.94z
			 M33.898,12.953l-8.863,8.864c-3.045,3.045-4.745,7.111-4.788,11.449c-0.042,4.346,1.593,8.398,4.605,11.411l0.658,0.658
			c2.97,2.97,6.964,4.605,11.247,4.605c4.399,0,8.523-1.701,11.612-4.789l8.863-8.864L33.898,12.953z"/>
	</g>
	<g>
		<path d="M28.363,25.145c-0.256,0-0.513-0.098-0.708-0.293c-0.39-0.391-0.39-1.024,0.001-1.414l0.707-0.707
			c0.391-0.391,1.024-0.391,1.415,0c0.39,0.391,0.39,1.024-0.001,1.414l-0.707,0.707C28.875,25.047,28.619,25.145,28.363,25.145z"/>
	</g>
	<g>
		<path d="M25.174,37.819c-0.445,0-0.852-0.299-0.968-0.75c-0.964-3.734-0.402-7.774,1.541-11.083
			c0.279-0.476,0.892-0.637,1.368-0.356c0.477,0.279,0.636,0.893,0.356,1.368c-1.677,2.857-2.161,6.345-1.329,9.571
			c0.139,0.535-0.184,1.08-0.718,1.218C25.341,37.81,25.257,37.819,25.174,37.819z"/>
	</g>
	<g>
		<path d="M6.82,68.997c-0.103,0-0.208-0.008-0.313-0.024c-1.089-0.172-1.834-1.191-1.664-2.281
			c0.063-0.409,1.644-10.063,8.861-13.604c5.075-2.488,6.701-8.313,6.717-8.371c0.287-1.063,1.383-1.698,2.447-1.413
			c1.065,0.283,1.7,1.372,1.42,2.438c-0.082,0.311-2.076,7.631-8.822,10.938C10.13,59.297,8.806,67.23,8.793,67.311
			C8.636,68.295,7.787,68.997,6.82,68.997z"/>
	</g>
	<g>
		<g>
			<path d="M40.969,19.196c-0.512,0-1.023-0.195-1.414-0.586c-0.781-0.781-0.781-2.047,0-2.828L51.747,3.589
				c0.78-0.781,2.048-0.781,2.828,0c0.781,0.781,0.781,2.047,0,2.828L42.383,18.61C41.993,19,41.48,19.196,40.969,19.196z"/>
		</g>
		<g>
			<path d="M52.989,31.216c-0.512,0-1.023-0.195-1.414-0.586c-0.781-0.781-0.781-2.047,0-2.828L63.768,15.61
				c0.78-0.781,2.048-0.781,2.828,0c0.781,0.781,0.781,2.047,0,2.828L54.403,30.63C54.014,31.021,53.501,31.216,52.989,31.216z"/>
		</g>
	</g>
</g>
</svg>
