<?xml version="1.0" encoding="utf-8"?>
<!-- Generator: Adobe Illustrator 16.0.0, SVG Export Plug-In . SVG Version: 6.00 Build 0)  -->
<!DOCTYPE svg PUBLIC "-//W3C//DTD SVG 1.1//EN" "http://www.w3.org/Graphics/SVG/1.1/DTD/svg11.dtd">
<svg version="1.1" id="Layer_1" xmlns="http://www.w3.org/2000/svg" xmlns:xlink="http://www.w3.org/1999/xlink" x="0px" y="0px"
	 width="72px" height="72px" viewBox="0 0 72 72" enable-background="new 0 0 72 72" xml:space="preserve">
<g>
	<g>
		<path d="M13.881,20c-1.104,0-2-0.896-2-2V5c0-1.104,0.896-2,2-2s2,0.896,2,2v13C15.881,19.104,14.985,20,13.881,20z"/>
	</g>
	<g>
		<path d="M13.881,69c-1.104,0-2-0.896-2-2V36c0-1.104,0.896-2,2-2s2,0.896,2,2v31C15.881,68.104,14.985,69,13.881,69z"/>
	</g>
	<g>
		<g>
			<path d="M13.5,37.907c-5.664,0-10.271-4.607-10.271-10.271S7.836,17.364,13.5,17.364s10.271,4.607,10.271,10.271
				S19.164,37.907,13.5,37.907z M13.5,21.364c-3.458,0-6.271,2.813-6.271,6.271s2.813,6.271,6.271,6.271s6.271-2.813,6.271-6.271
				S16.958,21.364,13.5,21.364z"/>
		</g>
		<g>
			<path d="M15.36,25.29c-0.063,0-0.129-0.006-0.193-0.019l-0.278-0.055c-0.542-0.106-0.896-0.633-0.789-1.174
				c0.106-0.542,0.631-0.896,1.174-0.789l0.278,0.055c0.542,0.106,0.896,0.633,0.789,1.174C16.247,24.96,15.829,25.29,15.36,25.29z"
				/>
		</g>
		<g>
			<path d="M10.071,29.636c-0.553,0-1-0.447-1-1c0-1.939,1.047-3.746,2.731-4.713c0.479-0.274,1.091-0.11,1.365,0.369
				c0.275,0.479,0.109,1.091-0.369,1.365c-1.065,0.611-1.728,1.753-1.728,2.979C11.071,29.188,10.624,29.636,10.071,29.636z"/>
		</g>
	</g>
	<g>
		<path d="M35.881,38c-1.104,0-2-0.896-2-2V5c0-1.104,0.896-2,2-2s2,0.896,2,2v31C37.881,37.104,36.985,38,35.881,38z"/>
	</g>
	<g>
		<path d="M35.881,69c-1.104,0-2-0.896-2-2V54c0-1.104,0.896-2,2-2s2,0.896,2,2v13C37.881,68.104,36.985,69,35.881,69z"/>
	</g>
	<g>
		<g>
			<path d="M35.5,55.907c-5.664,0-10.271-4.607-10.271-10.271S29.836,35.364,35.5,35.364s10.271,4.607,10.271,10.271
				S41.164,55.907,35.5,55.907z M35.5,39.364c-3.458,0-6.271,2.813-6.271,6.271s2.813,6.271,6.271,6.271s6.271-2.813,6.271-6.271
				S38.958,39.364,35.5,39.364z"/>
		</g>
		<g>
			<path d="M37.36,43.29c-0.063,0-0.129-0.006-0.193-0.019l-0.278-0.055c-0.542-0.106-0.896-0.633-0.789-1.174
				c0.106-0.543,0.632-0.898,1.174-0.789l0.278,0.055c0.542,0.106,0.896,0.633,0.789,1.174C38.247,42.96,37.829,43.29,37.36,43.29z"
				/>
		</g>
		<g>
			<path d="M32.071,47.636c-0.553,0-1-0.447-1-1c0-1.939,1.047-3.746,2.731-4.713c0.48-0.275,1.091-0.11,1.365,0.369
				c0.275,0.479,0.109,1.091-0.369,1.365c-1.065,0.611-1.728,1.753-1.728,2.979C33.071,47.188,32.624,47.636,32.071,47.636z"/>
		</g>
	</g>
	<g>
		<path d="M58.881,13c-1.104,0-2-0.896-2-2V5c0-1.104,0.896-2,2-2s2,0.896,2,2v6C60.881,12.104,59.985,13,58.881,13z"/>
	</g>
	<g>
		<path d="M58.881,69c-1.104,0-2-0.896-2-2V29c0-1.104,0.896-2,2-2s2,0.896,2,2v38C60.881,68.104,59.985,69,58.881,69z"/>
	</g>
	<g>
		<g>
			<path d="M58.5,30.907c-5.664,0-10.271-4.607-10.271-10.271S52.836,10.364,58.5,10.364s10.271,4.607,10.271,10.271
				S64.164,30.907,58.5,30.907z M58.5,14.364c-3.458,0-6.271,2.813-6.271,6.271s2.813,6.271,6.271,6.271s6.271-2.813,6.271-6.271
				S61.958,14.364,58.5,14.364z"/>
		</g>
		<g>
			<path d="M60.36,18.29c-0.063,0-0.129-0.006-0.193-0.019l-0.278-0.055c-0.542-0.106-0.896-0.633-0.789-1.174
				c0.106-0.542,0.632-0.896,1.174-0.789l0.278,0.055c0.542,0.106,0.896,0.633,0.789,1.174C61.247,17.96,60.829,18.29,60.36,18.29z"
				/>
		</g>
		<g>
			<path d="M55.071,22.636c-0.553,0-1-0.447-1-1c0-1.939,1.047-3.746,2.731-4.713c0.479-0.273,1.09-0.109,1.365,0.369
				c0.275,0.479,0.109,1.091-0.369,1.365c-1.065,0.611-1.728,1.753-1.728,2.979C56.071,22.188,55.624,22.636,55.071,22.636z"/>
		</g>
	</g>
</g>
</svg>
