<?xml version="1.0" encoding="utf-8"?>
<!-- Generator: Adobe Illustrator 16.0.0, SVG Export Plug-In . SVG Version: 6.00 Build 0)  -->
<!DOCTYPE svg PUBLIC "-//W3C//DTD SVG 1.1//EN" "http://www.w3.org/Graphics/SVG/1.1/DTD/svg11.dtd">
<svg version="1.1" id="Layer_1" xmlns="http://www.w3.org/2000/svg" xmlns:xlink="http://www.w3.org/1999/xlink" x="0px" y="0px"
	 width="72px" height="72px" viewBox="0 0 72 72" enable-background="new 0 0 72 72" xml:space="preserve">
<g>
	<g>
		<path d="M36,68.482C18.089,68.482,3.518,53.91,3.518,36C3.518,18.089,18.089,3.518,36,3.518c17.91,0,32.482,14.571,32.482,32.482
			C68.482,53.91,53.91,68.482,36,68.482z M36,7.518C20.295,7.518,7.518,20.295,7.518,36c0,15.705,12.777,28.482,28.482,28.482
			c15.705,0,28.482-12.777,28.482-28.482C64.482,20.295,51.705,7.518,36,7.518z"/>
	</g>
	<g>
		<path d="M60.148,37c-0.553,0-1-0.447-1-1c0-10.407-7.002-19.59-17.029-22.331c-0.531-0.146-0.846-0.695-0.701-1.229
			c0.146-0.533,0.701-0.841,1.229-0.701C53.541,14.718,61.148,24.694,61.148,36C61.148,36.553,60.701,37,60.148,37z"/>
	</g>
	<g>
		<path d="M37.35,12.888c-0.02,0-0.037,0-0.057-0.002c-0.428-0.023-0.859-0.035-1.292-0.035c-0.552,0-1-0.447-1-1s0.448-1,1-1
			c0.47,0,0.937,0.014,1.402,0.039c0.553,0.029,0.975,0.501,0.945,1.053C38.318,12.475,37.877,12.888,37.35,12.888z"/>
	</g>
	<g>
		<g>
			<path d="M41.207,45.127c-1.525,0-2.332-1.129-2.332-2.625V29.498c0-1.495,0.832-2.623,2.391-2.623
				c0.566,0,0.959,0.153,1.459,0.442l10.447,6.518c0.938,0.542,1.447,1.368,1.447,2.251c-0.002,0.831-0.521,1.594-1.393,2.096
				l-10.545,6.492C42.16,44.973,41.764,45.127,41.207,45.127z M41.266,28.875c-0.172,0-0.391,0.045-0.391,0.623v13.004
				c0,0.563,0.129,0.625,0.332,0.625c0.207,0,0.248-0.061,0.445-0.176l10.621-6.492c0.291-0.167,0.346-0.314,0.346-0.375
				c0-0.091-0.162-0.316-0.539-0.533l-10.371-6.518C41.537,28.935,41.48,28.875,41.266,28.875z"/>
		</g>
		<g>
			<path d="M25.979,45.127c-1.42,0-2.104-1.104-2.104-2.625V29.498c0-1.521,0.694-2.623,2.129-2.623
				c0.522,0,0.891,0.153,1.392,0.442l10.289,6.521c0.904,0.522,1.398,1.331,1.396,2.2c0,0.846-0.535,1.627-1.43,2.143l-10.248,6.484
				C26.873,44.973,26.497,45.127,25.979,45.127z M26.004,28.875c-0.315,0-0.129,0.209-0.129,0.623v13.004
				c0,0.625-0.008,0.625,0.104,0.625c0.116,0,0.135-0.031,0.386-0.176l10.324-6.485c0.328-0.19,0.393-0.357,0.393-0.429
				c0-0.086-0.146-0.286-0.494-0.486L26.375,29.03C26.209,28.935,26.176,28.875,26.004,28.875z"/>
		</g>
	</g>
</g>
</svg>
