<?xml version="1.0" encoding="utf-8"?>
<!-- Generator: Adobe Illustrator 16.0.0, SVG Export Plug-In . SVG Version: 6.00 Build 0)  -->
<!DOCTYPE svg PUBLIC "-//W3C//DTD SVG 1.1//EN" "http://www.w3.org/Graphics/SVG/1.1/DTD/svg11.dtd">
<svg version="1.1" id="Layer_1" xmlns="http://www.w3.org/2000/svg" xmlns:xlink="http://www.w3.org/1999/xlink" x="0px" y="0px"
	 width="72px" height="72px" viewBox="0 0 72 72" enable-background="new 0 0 72 72" xml:space="preserve">
<g>
	<g>
		<path d="M54.693,68H16.556C12.666,68,10,64.653,10,60.909V10.772C10,6.758,12.967,4,16.556,4H36.67
			c0.535,0,1.047,0.244,1.423,0.625l22.893,22.75C61.355,27.749,62,28.27,62,28.796v32.113C62,64.987,58.36,68,54.693,68z M16.556,8
			C14.936,8,14,9.221,14,10.772v50.136C14,62.471,14.856,64,16.556,64h38.138C56.29,64,58,62.475,58,60.909V29.617L35.834,8H16.556z
			"/>
	</g>
	<g>
		<path d="M59.625,30H41.602C38.272,30,36,27.05,36,23.864V5.841c0-0.403-0.195-0.768,0.177-0.923
			c0.373-0.153,0.582-0.072,0.87,0.212l23.391,23.221c0.288,0.284,0.321,0.685,0.167,1.06S60.03,30,59.625,30z M38,8.234v15.63
			C38,25.982,39.343,28,41.602,28H57.19L38,8.234z"/>
	</g>
	<g>
		<g>
			<path d="M28.124,39h-8c-0.552,0-1-0.447-1-1s0.448-1,1-1h8c0.553,0,1,0.447,1,1S28.677,39,28.124,39z"/>
		</g>
		<g>
			<path d="M42.125,39h-10c-0.553,0-1.001-0.447-1.001-1s0.448-1,1.001-1h10c0.553,0,1,0.447,1,1S42.678,39,42.125,39z"/>
		</g>
		<g>
			<path d="M50.125,39h-4c-0.553,0-1-0.447-1-1s0.447-1,1-1h4c0.553,0,1,0.447,1,1S50.678,39,50.125,39z"/>
		</g>
	</g>
	<g>
		<g>
			<path d="M24.124,44h-4c-0.552,0-1-0.447-1-1s0.448-1,1-1h4c0.553,0,1,0.447,1,1S24.677,44,24.124,44z"/>
		</g>
		<g>
			<path d="M36.125,44h-8.001c-0.552,0-1-0.447-1-1s0.448-1,1-1h8.001c0.553,0,1,0.447,1,1S36.678,44,36.125,44z"/>
		</g>
		<g>
			<path d="M50.125,44h-10c-0.553,0-1-0.447-1-1s0.447-1,1-1h10c0.553,0,1,0.447,1,1S50.678,44,50.125,44z"/>
		</g>
	</g>
	<g>
		<g>
			<path d="M30.124,50h-10c-0.552,0-1-0.447-1-1s0.448-1,1-1h10c0.553,0,1,0.447,1,1S30.677,50,30.124,50z"/>
		</g>
		<g>
			<path d="M44.125,50h-10c-0.553,0-1-0.447-1-1s0.447-1,1-1h10c0.553,0,1,0.447,1,1S44.678,50,44.125,50z"/>
		</g>
		<g>
			<path d="M50.125,50h-2c-0.553,0-1-0.447-1-1s0.447-1,1-1h2c0.553,0,1,0.447,1,1S50.678,50,50.125,50z"/>
		</g>
	</g>
	<g>
		<g>
			<path d="M24.124,55h-4c-0.552,0-1-0.447-1-1s0.448-1,1-1h4c0.553,0,1,0.447,1,1S24.677,55,24.124,55z"/>
		</g>
		<g>
			<path d="M35.125,55h-7.001c-0.552,0-1-0.447-1-1s0.448-1,1-1h7.001c0.552,0,1,0.447,1,1S35.677,55,35.125,55z"/>
		</g>
	</g>
</g>
</svg>
