<?xml version="1.0" encoding="utf-8"?>
<!-- Generator: Adobe Illustrator 16.0.3, SVG Export Plug-In . SVG Version: 6.00 Build 0)  -->
<!DOCTYPE svg PUBLIC "-//W3C//DTD SVG 1.1//EN" "http://www.w3.org/Graphics/SVG/1.1/DTD/svg11.dtd">
<svg version="1.1" id="Layer_1" xmlns="http://www.w3.org/2000/svg" xmlns:xlink="http://www.w3.org/1999/xlink" x="0px" y="0px"
	 width="72px" height="72px" viewBox="0 0 72 72" enable-background="new 0 0 72 72" xml:space="preserve">
<g>
	<g>
		<path d="M55.473,68.352c-0.025-0.021-0.052-0.045-0.076-0.067L19.501,34.886c-1.769-1.509-1.489-2.966-1.287-3.526
			c0.204-0.561,0.933-1.869,3.285-1.869h7.142L11.916,8.168C10.939,6.927,10.7,5.554,11.26,4.401
			c0.557-1.148,1.77-1.805,3.329-1.805h23.543c2.349,0,4.981,1.563,6.127,3.632l16.192,29.16c0.734,1.324,0.779,2.723,0.125,3.836
			c-0.649,1.103-1.876,1.735-3.364,1.735H53.3c-0.011,0-0.021,0-0.03,0c0.004,0.021,0.013,0.045,0.022,0.07
			c0.024,0.062,0.045,0.127,0.063,0.192l6.513,24.098c0.212,0.57,0.671,1.962-0.108,3.091c-0.436,0.631-1.134,0.993-1.914,0.993l0,0
			C57.082,69.404,56.328,69.068,55.473,68.352z M49.898,38.631c0.73-1.062,1.971-1.672,3.401-1.672h3.45L40.762,8.166
			c-0.439-0.792-1.742-1.57-2.63-1.57H15.768l16.724,21.322c0.976,1.243,1.216,2.617,0.655,3.77
			c-0.558,1.146-1.771,1.803-3.33,1.803h-5.943l31.061,28.897l-5.416-20.035C49.043,41.027,49.18,39.676,49.898,38.631z"/>
	</g>
	<g>
		<g>
			<path d="M44.641,25.992l-0.896-1.614c-0.268-0.482-0.094-1.091,0.389-1.359c0.482-0.27,1.092-0.093,1.359,0.389l0.896,1.614
				c0.268,0.482,0.092,1.091-0.39,1.359c-0.153,0.086-0.319,0.126-0.483,0.126C45.164,26.507,44.823,26.321,44.641,25.992z
				 M41.816,20.908l-4.233-7.626c-0.521-0.941-1.904-1.765-2.963-1.765h-2.615c-0.553,0-1-0.447-1-1c0-0.553,0.447-1,1-1h2.615
				c1.775,0,3.844,1.229,4.711,2.795l4.233,7.625c0.269,0.482,0.094,1.091-0.389,1.359c-0.154,0.086-0.32,0.126-0.484,0.126
				C42.34,21.422,42,21.236,41.816,20.908z"/>
		</g>
	</g>
</g>
</svg>
