<?xml version="1.0" encoding="utf-8"?>
<!-- Generator: Adobe Illustrator 16.0.0, SVG Export Plug-In . SVG Version: 6.00 Build 0)  -->
<!DOCTYPE svg PUBLIC "-//W3C//DTD SVG 1.1//EN" "http://www.w3.org/Graphics/SVG/1.1/DTD/svg11.dtd">
<svg version="1.1" id="Layer_1" xmlns="http://www.w3.org/2000/svg" xmlns:xlink="http://www.w3.org/1999/xlink" x="0px" y="0px"
	 width="72px" height="72px" viewBox="0 0 72 72" enable-background="new 0 0 72 72" xml:space="preserve">
<g>
	<g>
		<path d="M58,68.54c-5.819,0-14.057-6.449-17.403-13.449h-9.194c-3.327,7-11.561,13.305-17.402,13.305
			c-10.611,0-13-20.74-13-27.998c0-9.534,7.626-17.308,17-17.308h36c9.374,0,17,7.736,17,17.226C71,47.631,68.611,68.54,58,68.54z
			 M30.096,51.09h11.809c0.824,0,1.563,0.541,1.863,1.309C46.206,58.651,53.853,64.555,58,64.555c5.992,0,9-15.545,9-24.232
			c0-7.282-5.832-13.233-13-13.233H18c-7.047,0-13,6.121-13,13.325c0,9.801,3.205,23.996,9,23.996
			c4.172,0,11.823-5.842,14.232-12.021C28.532,51.622,29.271,51.09,30.096,51.09z"/>
	</g>
	<g>
		<path d="M34.5,49.09h-1c-0.553,0-1-0.447-1-1s0.447-1,1-1h1c0.553,0,1,0.447,1,1S35.053,49.09,34.5,49.09z"/>
	</g>
	<g>
		<path d="M14.096,61.75c-0.553,0-1-0.432-1-0.984s0.447-0.99,1-0.99c2.871,0,9.921-7.199,11.785-12.018
			c0.149-0.385,0.52-0.668,0.933-0.668H30.5c0.553,0,1,0.447,1,1s-0.447,1-1,1h-3.023C25.232,54.09,18.221,61.75,14.096,61.75z"/>
	</g>
	<g>
		<g>
			<path d="M35.981,26.863c-0.576,0-1.148-0.248-1.544-0.727c-0.702-0.853-0.582-2.113,0.27-2.816
				c1.673-1.38,2.774-3.228,2.806-4.706c0.018-0.822-0.285-1.485-0.954-2.087c-2.238-2.015-6.895-6.207-2.518-12.241
				c0.649-0.893,1.898-1.091,2.794-0.444c0.894,0.649,1.093,1.899,0.444,2.794c-1.799,2.479-1.396,3.901,1.955,6.919
				c1.532,1.379,2.32,3.157,2.278,5.145c-0.058,2.672-1.649,5.553-4.259,7.707C36.881,26.712,36.43,26.863,35.981,26.863z"/>
		</g>
	</g>
	<g>
		<g>
			<path d="M17.881,49.159c-0.553,0-1-0.447-1-1v-14c0-0.553,0.447-1,1-1s1,0.447,1,1v14C18.881,48.711,18.434,49.159,17.881,49.159
				z"/>
		</g>
		<g>
			<path d="M24.5,42.09h-14c-0.553,0-1-0.447-1-1s0.447-1,1-1h14c0.553,0,1,0.447,1,1S25.053,42.09,24.5,42.09z"/>
		</g>
	</g>
	<g>
		<g>
			<path d="M54.692,41.25c-0.916,0-1.776-0.357-2.424-1.006c-0.646-0.645-1.003-1.506-1.003-2.422s0.356-1.776,1.004-2.424
				c1.293-1.295,3.553-1.295,4.846,0c0.648,0.648,1.005,1.508,1.005,2.424s-0.356,1.777-1.004,2.424S55.608,41.25,54.692,41.25z
				 M54.692,36.396c-0.381,0-0.739,0.146-1.009,0.417c-0.27,0.27-0.418,0.629-0.418,1.01s0.148,0.74,0.418,1.01
				c0.539,0.541,1.478,0.541,2.019,0c0.27-0.27,0.418-0.629,0.418-1.01s-0.148-0.738-0.419-1.01
				C55.432,36.543,55.073,36.396,54.692,36.396z"/>
		</g>
		<g>
			<path d="M60.176,46.733c-0.916,0-1.777-0.357-2.425-1.006c-0.646-0.645-1.003-1.506-1.003-2.422s0.356-1.775,1.004-2.422
				c1.293-1.295,3.552-1.295,4.847,0c1.337,1.334,1.337,3.508,0.001,4.846C61.951,46.377,61.091,46.733,60.176,46.733z
				 M60.175,41.879c-0.381,0-0.739,0.148-1.009,0.418s-0.418,0.627-0.418,1.008s0.148,0.74,0.418,1.01
				c0.54,0.539,1.479,0.539,2.02,0c0.556-0.557,0.556-1.461-0.001-2.018C60.915,42.028,60.557,41.879,60.175,41.879z"/>
		</g>
		<g>
			<path d="M49.21,46.733c-0.916,0-1.776-0.355-2.424-1.004s-1.004-1.508-1.003-2.424c0-0.916,0.356-1.775,1.004-2.422
				c1.293-1.295,3.553-1.295,4.846,0c0.647,0.645,1.005,1.506,1.005,2.422c0.001,0.916-0.355,1.777-1.004,2.424
				C50.986,46.377,50.126,46.733,49.21,46.733z M49.21,41.879c-0.381,0-0.739,0.148-1.009,0.418s-0.418,0.627-0.418,1.008
				s0.147,0.74,0.417,1.01c0.541,0.541,1.48,0.539,2.02,0c0.27-0.27,0.418-0.629,0.418-1.01s-0.148-0.738-0.418-1.008
				C49.949,42.028,49.591,41.879,49.21,41.879z"/>
		</g>
		<g>
			<path d="M54.692,52.215c-0.916,0-1.776-0.355-2.423-1.004c-0.647-0.646-1.004-1.508-1.004-2.424s0.356-1.775,1.004-2.422
				c1.293-1.295,3.553-1.295,4.846,0c0.647,0.645,1.005,1.506,1.005,2.422c0.001,0.916-0.355,1.777-1.004,2.424
				C56.469,51.86,55.608,52.215,54.692,52.215z M54.692,47.362c-0.381,0-0.739,0.148-1.009,0.418s-0.418,0.627-0.418,1.008
				c0,0.383,0.148,0.74,0.418,1.01c0.54,0.541,1.48,0.539,2.019,0c0.27-0.27,0.418-0.629,0.418-1.01s-0.148-0.738-0.418-1.008
				C55.432,47.51,55.073,47.362,54.692,47.362z"/>
		</g>
	</g>
</g>
</svg>
