<?xml version="1.0" encoding="utf-8"?>
<!-- Generator: Adobe Illustrator 16.0.0, SVG Export Plug-In . SVG Version: 6.00 Build 0)  -->
<!DOCTYPE svg PUBLIC "-//W3C//DTD SVG 1.1//EN" "http://www.w3.org/Graphics/SVG/1.1/DTD/svg11.dtd">
<svg version="1.1" id="Layer_1" xmlns="http://www.w3.org/2000/svg" xmlns:xlink="http://www.w3.org/1999/xlink" x="0px" y="0px"
	 width="72px" height="72px" viewBox="0 0 72 72" enable-background="new 0 0 72 72" xml:space="preserve">
<g>
	<g>
		<path d="M54.935,68.5h-0.334c-3.606,0-7.101-3.643-7.101-7.271v-2.997c0-1.371-0.495-1.731-1.895-1.731h-0.333
			c-0.975,0-2.772,0.299-2.772,1.731v2.997c0,3.473-2.528,7.271-6.224,7.271h-0.333c-3.824,0-6.443-3.87-6.443-7.271v-2.997
			c0-1.635-1.799-1.731-2.553-1.731h-0.333c-1.274,0-3.114,0.496-3.114,1.731v2.997c0,3.486-2.092,7.271-5.882,7.271h-0.333
			c-3.512,0-6.785-3.575-6.785-7.271V27.512C10.5,14.228,21.561,3.5,35.212,3.5h1.796C50.487,3.5,61.5,14.228,61.5,27.512v33.717
			C61.5,64.623,58.666,68.5,54.935,68.5z M45.272,52.5h0.333c3.607,0,5.895,2.146,5.895,5.731v2.997
			c0,1.401,1.718,3.271,3.101,3.271h0.334c1.225,0,2.565-1.721,2.565-3.271V27.512C57.5,16.245,48.473,7.5,37.008,7.5h-1.796
			C23.766,7.5,14.5,16.433,14.5,27.512v33.717c0,1.462,1.488,3.271,2.785,3.271h0.333c1.197,0,1.882-1.934,1.882-3.271v-2.997
			c0-3.774,3.643-5.731,7.114-5.731h0.333c3.831,0,6.553,2.31,6.553,5.731v2.997c0,1.551,1.233,3.271,2.443,3.271h0.333
			c1.227,0,2.224-1.796,2.224-3.271v-2.997C38.5,54.864,41.321,52.5,45.272,52.5z"/>
	</g>
	<g>
		<path d="M36.454,11.5c-0.012,0-0.023,0-0.035,0c-0.213,0-0.427-0.046-0.642-0.046c-0.553,0-1-0.464-1-1.017s0.447-1.009,1-1.009
			c0.238,0,0.476-0.001,0.711,0.008c0.552,0.019,0.983,0.515,0.965,1.067C37.434,11.043,36.99,11.5,36.454,11.5z"/>
	</g>
	<g>
		<path d="M53.5,40.42c-0.553,0-1-0.447-1-1V27.35c0-7.289-4.915-13.461-12.196-15.357c-0.534-0.14-0.866-0.686-0.728-1.22
			c0.141-0.534,0.699-0.854,1.237-0.716C48.989,12.187,54.5,19.136,54.5,27.35v12.07C54.5,39.973,54.052,40.42,53.5,40.42z"/>
	</g>
	<g>
		<path d="M23.794,35.254c-3.221,0-5.84-2.62-5.84-5.84s2.619-5.84,5.84-5.84c3.22,0,5.84,2.62,5.84,5.84
			S27.014,35.254,23.794,35.254z M23.794,25.574c-2.117,0-3.84,1.723-3.84,3.84s1.723,3.84,3.84,3.84s3.84-1.723,3.84-3.84
			S25.911,25.574,23.794,25.574z"/>
	</g>
	<g>
		<path d="M38.529,35.254c-3.221,0-5.84-2.62-5.84-5.84s2.619-5.84,5.84-5.84c3.22,0,5.84,2.62,5.84,5.84
			S41.749,35.254,38.529,35.254z M38.529,25.574c-2.117,0-3.84,1.723-3.84,3.84s1.723,3.84,3.84,3.84s3.84-1.723,3.84-3.84
			S40.646,25.574,38.529,25.574z"/>
	</g>
</g>
</svg>
