<?xml version="1.0" encoding="utf-8"?>
<!-- Generator: Adobe Illustrator 16.0.0, SVG Export Plug-In . SVG Version: 6.00 Build 0)  -->
<!DOCTYPE svg PUBLIC "-//W3C//DTD SVG 1.1//EN" "http://www.w3.org/Graphics/SVG/1.1/DTD/svg11.dtd">
<svg version="1.1" id="Layer_1" xmlns="http://www.w3.org/2000/svg" xmlns:xlink="http://www.w3.org/1999/xlink" x="0px" y="0px"
	 width="72px" height="72px" viewBox="0 0 72 72" enable-background="new 0 0 72 72" xml:space="preserve">
<g>
	<g>
		<g>
			<g>
				<path d="M34.138,38.547c-0.06,0-0.119-0.005-0.18-0.016c-4.122-0.748-6.979-2.812-8.489-6.136
					c-0.229-0.503-0.007-1.096,0.496-1.324c0.502-0.231,1.096-0.007,1.324,0.496c1.241,2.729,3.539,4.363,7.025,4.995
					c0.544,0.099,0.904,0.619,0.806,1.163C35.033,38.208,34.611,38.547,34.138,38.547z"/>
			</g>
			<g>
				<path d="M36.609,46.5h-0.936C24.724,46.5,15,36.307,15,24.922V5.293C15,4.188,16.015,3.5,17.119,3.5h38
					C56.224,3.5,57,4.188,57,5.293v19.629C57,36.307,47.535,46.5,36.609,46.5z M19,7.5v17.422C19,34.014,27.01,42.5,35.674,42.5
					h0.936C45.25,42.5,53,34.014,53,24.922V7.5H19z"/>
			</g>
		</g>
		<g>
			<path d="M50.119,68.5h-29c-1.104,0-2-0.896-2-2s0.896-2,2-2h29c1.104,0,2,0.896,2,2S51.224,68.5,50.119,68.5z"/>
		</g>
		<g>
			<path d="M35,68.293c-1.104,0-2-0.896-2-2v-22c0-1.104,0.896-2,2-2s2,0.896,2,2v22C37,67.397,36.104,68.293,35,68.293z"/>
		</g>
	</g>
	<g>
		<path d="M17.118,29.313c-0.158,0-0.318-0.037-0.468-0.116c-0.487-0.259-0.674-0.862-0.416-1.35
			c0.136-0.257,3.395-6.31,9.678-8.171c3.697-1.096,7.631-0.502,11.694,1.765c9.71,5.415,13.262,1.565,15.385-0.732
			c0.638-0.69,1.142-1.236,1.744-1.487c0.511-0.211,1.096,0.03,1.307,0.54c0.212,0.51-0.029,1.096-0.539,1.308
			c-0.198,0.082-0.666,0.589-1.042,0.996c-2.188,2.372-6.743,7.306-17.829,1.122c-3.568-1.99-6.978-2.525-10.137-1.598
			c-5.472,1.613-8.463,7.138-8.493,7.193C17.822,29.12,17.477,29.313,17.118,29.313z"/>
	</g>
</g>
</svg>
