<?xml version="1.0" encoding="utf-8"?>
<!-- Generator: Adobe Illustrator 16.0.3, SVG Export Plug-In . SVG Version: 6.00 Build 0)  -->
<!DOCTYPE svg PUBLIC "-//W3C//DTD SVG 1.1//EN" "http://www.w3.org/Graphics/SVG/1.1/DTD/svg11.dtd">
<svg version="1.1" id="Layer_1" xmlns="http://www.w3.org/2000/svg" xmlns:xlink="http://www.w3.org/1999/xlink" x="0px" y="0px"
	 width="72px" height="72px" viewBox="0 0 72 72" enable-background="new 0 0 72 72" xml:space="preserve">
<g>
	<g>
		<path fill="#FFFFFF" d="M36.002,68.27C18.208,68.27,3.731,53.793,3.73,36C3.731,18.207,18.208,3.73,36.002,3.73
			c8.619,0,16.723,3.357,22.816,9.451c6.096,6.096,9.453,14.2,9.451,22.819c0.002,8.619-3.354,16.723-9.451,22.816
			C52.725,64.912,44.621,68.27,36.002,68.27z M36.002,7.73C20.414,7.73,7.731,20.412,7.73,36
			c0.001,15.588,12.684,28.27,28.271,28.27c7.551,0,14.649-2.94,19.987-8.28C61.33,50.648,64.27,43.551,64.27,36
			S61.33,21.35,55.99,16.01C50.65,10.672,43.553,7.73,36.002,7.73z"/>
	</g>
	<g>
		<path fill="#FFFFFF" d="M36.002,67.27c-10.653,0-19.321-14.026-19.321-31.27S25.349,4.73,36.002,4.73
			C46.654,4.73,55.32,18.758,55.32,36S46.654,67.27,36.002,67.27z M36.002,6.73c-9.551,0-17.321,13.131-17.321,29.27
			c0,16.139,7.771,29.27,17.321,29.27S53.32,52.139,53.32,36C53.32,19.861,45.552,6.73,36.002,6.73z"/>
	</g>
	<g>
		<path fill="#FFFFFF" d="M36.001,28.734c-13.743,0-24.508-4.945-24.508-11.258c0-0.553,0.447-1,1-1c0.553,0,1,0.447,1,1
			c0,5.018,10.308,9.258,22.508,9.258s22.507-4.24,22.507-9.258c0-0.553,0.447-1,1-1s1,0.447,1,1
			C60.508,23.789,49.743,28.734,36.001,28.734z"/>
	</g>
	<g>
		<path fill="#FFFFFF" d="M59.507,56.736c-0.553,0-1-0.447-1-1c0-5.021-10.308-9.26-22.508-9.26s-22.507,4.239-22.507,9.26
			c0,0.553-0.447,1-1,1c-0.553,0-1-0.447-1-1c0-6.314,10.765-11.26,24.507-11.26c13.743,0,24.508,4.944,24.508,11.26
			C60.507,56.289,60.061,56.736,59.507,56.736z"/>
	</g>
	<g>
		<path fill="#FFFFFF" d="M36.205,67.291c-0.553,0-1-0.447-1-1v-61c0-0.553,0.447-1,1-1c0.553,0,1,0.447,1,1v61
			C37.205,66.844,36.758,67.291,36.205,67.291z"/>
	</g>
	<g>
		<path fill="#FFFFFF" d="M66.32,37.707h-40c-0.553,0-1-0.447-1-1c0-0.553,0.447-1,1-1h40c0.553,0,1,0.447,1,1
			C67.32,37.26,66.873,37.707,66.32,37.707z"/>
	</g>
	<g>
		<path fill="#FFFFFF" d="M21.32,37.707h-15c-0.553,0-1-0.447-1-1c0-0.553,0.447-1,1-1h15c0.553,0,1,0.447,1,1
			C22.32,37.26,21.873,37.707,21.32,37.707z"/>
	</g>
</g>
</svg>
