<?xml version="1.0" encoding="utf-8"?>
<!-- Generator: Adobe Illustrator 16.0.3, SVG Export Plug-In . SVG Version: 6.00 Build 0)  -->
<!DOCTYPE svg PUBLIC "-//W3C//DTD SVG 1.1//EN" "http://www.w3.org/Graphics/SVG/1.1/DTD/svg11.dtd">
<svg version="1.1" id="Layer_1" xmlns="http://www.w3.org/2000/svg" xmlns:xlink="http://www.w3.org/1999/xlink" x="0px" y="0px"
	 width="72px" height="72px" viewBox="0 0 72 72" enable-background="new 0 0 72 72" xml:space="preserve">
<g>
	<g>
		<path fill="#373A4A" d="M53,70.438H19c-7.57,0-9.619-2.521-9.619-10.375V24.438c0-1.104,0.896-2,2-2s2,0.896,2,2v35.625
			c0,5.721,0.235,6.375,5.619,6.375h34c5.383,0,6.381-0.654,6.381-6.375V24.438c0-1.104,0.896-2,2-2s2,0.896,2,2v35.625
			C63.381,67.917,60.57,70.438,53,70.438z"/>
	</g>
	<g>
		<path fill="#373A4A" d="M44.381,69.438c-0.553,0-1-0.446-1-1V49.463c0-1.986-0.381-2.025-2.581-2.025h-9.599
			c-2.2,0-1.819,0.039-1.819,2.025v18.975c0,0.554-0.448,1-1,1c-0.553,0-1-0.446-1-1V49.463c0-3.443,0.915-4.025,3.819-4.025H40.8
			c2.904,0,4.581,0.582,4.581,4.025v18.975C45.381,68.991,44.934,69.438,44.381,69.438z"/>
	</g>
	<g>
		<path fill="#373A4A" d="M3.001,30.396c-0.606,0-1.206-0.275-1.6-0.797c-0.664-0.883-0.486-2.137,0.396-2.801l33-24.833
			c0.883-0.664,2.137-0.487,2.801,0.396c0.664,0.883,0.487,2.137-0.396,2.801l-33,24.833C3.842,30.265,3.42,30.396,3.001,30.396z"/>
	</g>
	<g>
		<path fill="#373A4A" d="M68.998,30.396c-0.419,0-0.841-0.131-1.201-0.402l-33-24.833c-0.881-0.664-1.059-1.918-0.396-2.801
			c0.665-0.883,1.919-1.058,2.801-0.396l33,24.833c0.883,0.664,1.06,1.918,0.396,2.801C70.205,30.122,69.605,30.396,68.998,30.396z"
			/>
	</g>
	<g>
		<path fill="#F62459" d="M18.381,39.438c-0.553,0-1-0.446-1-1V27.063c0-0.311-0.046-0.604,0.201-0.793l13.03-10.063
			c0.438-0.336,1.019-0.253,1.354,0.185c0.336,0.438,0.421,1.066-0.018,1.402l-12.567,9.762v10.881
			C19.381,38.991,18.933,39.438,18.381,39.438z"/>
	</g>
	<g>
		<path fill="#F62459" d="M18.381,44.438c-0.553,0-1-0.446-1-1v-1c0-0.553,0.447-1,1-1c0.552,0,1,0.447,1,1v1
			C19.381,43.991,18.933,44.438,18.381,44.438z"/>
	</g>
</g>
</svg>
