<?xml version="1.0" encoding="utf-8"?>
<!-- Generator: Adobe Illustrator 16.0.0, SVG Export Plug-In . SVG Version: 6.00 Build 0)  -->
<!DOCTYPE svg PUBLIC "-//W3C//DTD SVG 1.1//EN" "http://www.w3.org/Graphics/SVG/1.1/DTD/svg11.dtd">
<svg version="1.1" id="Layer_1" xmlns="http://www.w3.org/2000/svg" xmlns:xlink="http://www.w3.org/1999/xlink" x="0px" y="0px"
	 width="72px" height="72px" viewBox="0 0 72 72" enable-background="new 0 0 72 72" xml:space="preserve">
<g>
	<g>
		<path d="M31.216,62.072c-4.521,0-8.51-3.622-12.886-7.999c-3.066-3.066-5.928-6.081-7.233-9.247
			c-1.581-3.834-0.702-7.459,2.611-10.772l25.12-25.121c3.249-3.249,7.587-5.038,12.215-5.038c4.673,0,9.061,1.814,12.356,5.11
			c3.273,3.273,5.088,7.633,5.109,12.275c0.021,4.658-1.768,9.025-5.038,12.295L38.35,58.695
			C36.11,60.937,33.709,62.072,31.216,62.072z M51.043,7.895c-3.56,0-6.893,1.373-9.387,3.866l-25.12,25.121
			c-2.738,2.738-2.417,4.781-1.742,6.419c1.024,2.484,3.596,5.175,6.364,7.944c3.735,3.735,7.07,6.827,10.058,6.827
			c1.413,0,2.821-0.722,4.306-2.205l25.121-25.12c2.51-2.51,3.883-5.865,3.866-9.448c-0.017-3.581-1.415-6.942-3.938-9.466
			C58.031,9.293,54.647,7.895,51.043,7.895z"/>
	</g>
	<g>
		<path d="M59.925,22.707c-0.011,0-0.021,0-0.032,0c-0.553,0-0.985-0.411-0.968-0.964c0.017-0.516-0.017-1.002-0.1-1.512
			c-0.088-0.545,0.283-1.042,0.828-1.13c0.547-0.09,1.059,0.292,1.146,0.837c0.103,0.636,0.145,1.221,0.124,1.864
			C60.906,22.344,60.462,22.707,59.925,22.707z"/>
	</g>
	<g>
		<path d="M38.096,22.495c-0.256,0-0.512-0.098-0.707-0.293c-0.391-0.391-0.391-1.023,0-1.414l6.403-6.404
			c3.898-3.899,10.263-3.881,14.187,0.041c0.391,0.391,0.391,1.023,0,1.414s-1.023,0.391-1.414,0
			c-3.143-3.144-8.238-3.161-11.358-0.041l-6.403,6.404C38.607,22.397,38.352,22.495,38.096,22.495z"/>
	</g>
	<g>
		<path d="M5.491,68.105c-0.512,0-1.023-0.195-1.414-0.586c-0.781-0.781-0.781-2.047,0-2.828L16.58,52.188
			c0.78-0.781,2.048-0.781,2.828,0c0.781,0.781,0.781,2.047,0,2.828L6.905,67.52C6.515,67.91,6.002,68.105,5.491,68.105z"/>
	</g>
</g>
</svg>
