<?xml version="1.0" encoding="utf-8"?>
<!-- Generator: Adobe Illustrator 16.0.0, SVG Export Plug-In . SVG Version: 6.00 Build 0)  -->
<!DOCTYPE svg PUBLIC "-//W3C//DTD SVG 1.1//EN" "http://www.w3.org/Graphics/SVG/1.1/DTD/svg11.dtd">
<svg version="1.1" id="Layer_1" xmlns="http://www.w3.org/2000/svg" xmlns:xlink="http://www.w3.org/1999/xlink" x="0px" y="0px"
	 width="72px" height="72px" viewBox="0 0 72 72" enable-background="new 0 0 72 72" xml:space="preserve">
<g>
	<g>
		<path d="M68.5,60.569c0,3.828-3.104,6.932-6.932,6.932H10.432c-3.828,0-6.932-3.104-6.932-6.932V11.432
			C3.5,7.604,6.604,4.5,10.432,4.5h51.137c3.828,0,6.932,3.104,6.932,6.932V60.569z M64.5,11.432c0-1.619-1.313-2.932-2.932-2.932
			H10.432C8.813,8.5,7.5,9.813,7.5,11.432v49.137c0,1.619,1.313,2.932,2.932,2.932h51.137c1.619,0,2.932-1.313,2.932-2.932V11.432z"
			/>
	</g>
	<g>
		<path d="M5.129,53.624c-0.197,0-0.397-0.059-0.572-0.182c-0.452-0.316-0.563-0.939-0.246-1.393L20.02,29.578
			c0.78-1.118,1.91-1.796,3.18-1.907c1.27-0.109,2.5,0.357,3.466,1.323l12.922,12.922c0.391,0.391,0.391,1.023,0,1.414
			s-1.023,0.391-1.414,0L25.251,30.408c-0.539-0.539-1.199-0.812-1.876-0.745c-0.67,0.059-1.279,0.436-1.716,1.061L5.949,53.196
			C5.755,53.475,5.444,53.624,5.129,53.624z"/>
	</g>
	<g>
		<path d="M61.585,53.336c-0.246,0-0.493-0.092-0.687-0.273l-1.195-1.129c-0.401-0.379-0.42-1.012-0.04-1.414
			c0.378-0.4,1.012-0.418,1.413-0.039l1.195,1.129c0.401,0.379,0.42,1.012,0.04,1.412C62.115,53.231,61.851,53.336,61.585,53.336z"
			/>
	</g>
	<g>
		<path d="M21.566,67.186c-0.207,0-0.417-0.064-0.596-0.199c-0.443-0.328-0.535-0.955-0.205-1.398l20.174-27.104
			c0.809-1.086,1.965-1.746,3.257-1.86c1.289-0.116,2.546,0.336,3.53,1.264l10.938,10.318c0.401,0.379,0.42,1.012,0.041,1.414
			c-0.38,0.4-1.013,0.42-1.414,0.041L46.354,39.344c-0.563-0.531-1.26-0.787-1.982-0.727c-0.716,0.063-1.364,0.439-1.828,1.061
			L22.369,66.782C22.173,67.045,21.872,67.186,21.566,67.186z"/>
	</g>
	<g>
		<path d="M44.771,29.655c-4.765,0-8.641-3.877-8.641-8.642s3.876-8.641,8.641-8.641s8.642,3.876,8.642,8.641
			S49.535,29.655,44.771,29.655z M44.771,14.373c-3.662,0-6.641,2.979-6.641,6.641s2.979,6.642,6.641,6.642s6.642-2.979,6.642-6.642
			S48.433,14.373,44.771,14.373z"/>
	</g>
</g>
</svg>
