<?xml version="1.0" encoding="utf-8"?>
<!-- Generator: Adobe Illustrator 16.0.0, SVG Export Plug-In . SVG Version: 6.00 Build 0)  -->
<!DOCTYPE svg PUBLIC "-//W3C//DTD SVG 1.1//EN" "http://www.w3.org/Graphics/SVG/1.1/DTD/svg11.dtd">
<svg version="1.1" id="Layer_1" xmlns="http://www.w3.org/2000/svg" xmlns:xlink="http://www.w3.org/1999/xlink" x="0px" y="0px"
	 width="72px" height="72px" viewBox="0 0 72 72" enable-background="new 0 0 72 72" xml:space="preserve">
<g>
	<g>
		<path d="M22.294,14.106c-0.423,0-0.814-0.27-0.952-0.692c-0.17-0.525,0.119-1.089,0.645-1.259c0.362-0.117,0.73-0.221,1.104-0.312
			c0.538-0.125,1.077,0.202,1.206,0.738c0.13,0.537-0.201,1.077-0.738,1.207c-0.324,0.077-0.644,0.167-0.957,0.269
			C22.499,14.091,22.396,14.106,22.294,14.106z"/>
	</g>
	<g>
		<path d="M12.476,27.604c-0.552,0-1-0.447-1-1c0-5.267,2.669-10.081,7.139-12.879c0.468-0.294,1.085-0.151,1.378,0.317
			c0.293,0.468,0.151,1.085-0.316,1.378c-3.883,2.43-6.2,6.611-6.2,11.184C13.476,27.156,13.028,27.604,12.476,27.604z"/>
	</g>
	<g>
		<path d="M58.198,68.311c-0.837,0-1.607-0.527-1.89-1.35l-1.248-3.621l-2.583-0.154c-0.489-0.027-0.95-0.234-1.296-0.582
			l-3.806-3.805c-0.58-0.58-0.747-1.455-0.423-2.207l0.598-1.383l-0.267-0.229l-0.783,0.566c-0.796,0.574-1.891,0.488-2.585-0.207
			l-8.064-8.064c-2.923,1.311-6.116,1.998-9.32,1.998c-12.567,0-22.791-10.225-22.791-22.792c0-12.568,10.224-22.793,22.791-22.793
			c12.568,0,22.794,10.225,22.794,22.793c0,3.053-0.604,6.015-1.795,8.826l19.278,19.28c0.326,0.324,0.529,0.752,0.576,1.211
			l0.864,8.475c0.103,1.004-0.561,1.928-1.546,2.152l-8.06,1.834C58.494,68.295,58.346,68.311,58.198,68.311z M53.472,59.239
			l3.162,0.188c0.809,0.047,1.509,0.578,1.773,1.344l1.099,3.191l4.584-1.043l-0.612-6.006l-19.761-19.76
			c-0.608-0.609-0.76-1.538-0.376-2.307c1.316-2.64,1.984-5.453,1.984-8.363c0-10.362-8.432-18.793-18.794-18.793
			C16.17,7.689,7.74,16.12,7.74,26.482c0,10.362,8.43,18.792,18.791,18.792c3.096,0,6.053-0.736,8.789-2.188
			c0.774-0.414,1.729-0.27,2.352,0.352l7.868,7.869l0.677-0.488c0.748-0.541,1.769-0.496,2.469,0.1l2.585,2.207
			c0.667,0.57,0.886,1.508,0.538,2.314l-0.645,1.49L53.472,59.239z"/>
	</g>
</g>
</svg>
