<?xml version="1.0" encoding="utf-8"?>
<!-- Generator: Adobe Illustrator 16.0.0, SVG Export Plug-In . SVG Version: 6.00 Build 0)  -->
<!DOCTYPE svg PUBLIC "-//W3C//DTD SVG 1.1//EN" "http://www.w3.org/Graphics/SVG/1.1/DTD/svg11.dtd">
<svg version="1.1" id="Layer_1" xmlns="http://www.w3.org/2000/svg" xmlns:xlink="http://www.w3.org/1999/xlink" x="0px" y="0px"
	 width="72px" height="72px" viewBox="0 0 72 72" enable-background="new 0 0 72 72" xml:space="preserve">
<g>
	<g>
		<path d="M68,61.111c0,3.828-3.104,6.932-6.932,6.932H10.932C7.104,68.042,4,64.939,4,61.111V33.974
			c0-3.828,3.104-6.932,6.932-6.932h50.137c3.828,0,6.932,3.104,6.932,6.932V61.111z M64,33.974c0-1.619-1.313-2.932-2.932-2.932
			H10.932C9.313,31.042,8,32.355,8,33.974v27.137c0,1.619,1.313,2.932,2.932,2.932h50.137c1.619,0,2.932-1.313,2.932-2.932V33.974z"
			/>
	</g>
	<g>
		<g>
			<g>
				<path d="M18.795,40.042h-1c-0.553,0-1-0.447-1-1s0.447-1,1-1h1c0.553,0,1,0.447,1,1S19.348,40.042,18.795,40.042z"/>
			</g>
			<g>
				<path d="M25.795,40.042h-1c-0.553,0-1-0.447-1-1s0.447-1,1-1h1c0.553,0,1,0.447,1,1S26.348,40.042,25.795,40.042z"/>
			</g>
			<g>
				<path d="M32.795,40.042h-1c-0.553,0-1-0.447-1-1s0.447-1,1-1h1c0.553,0,1,0.447,1,1S33.348,40.042,32.795,40.042z"/>
			</g>
			<g>
				<path d="M38.795,40.042h-1c-0.553,0-1-0.447-1-1s0.447-1,1-1h1c0.553,0,1,0.447,1,1S39.348,40.042,38.795,40.042z"/>
			</g>
			<g>
				<path d="M45.795,40.042h-1c-0.553,0-1-0.447-1-1s0.447-1,1-1h1c0.553,0,1,0.447,1,1S46.348,40.042,45.795,40.042z"/>
			</g>
			<g>
				<path d="M52.795,40.042h-1c-0.553,0-1-0.447-1-1s0.447-1,1-1h1c0.553,0,1,0.447,1,1S53.348,40.042,52.795,40.042z"/>
			</g>
		</g>
		<g>
			<g>
				<path d="M18.795,46.042h-1c-0.553,0-1-0.447-1-1s0.447-1,1-1h1c0.553,0,1,0.447,1,1S19.348,46.042,18.795,46.042z"/>
			</g>
			<g>
				<path d="M25.795,46.042h-1c-0.553,0-1-0.447-1-1s0.447-1,1-1h1c0.553,0,1,0.447,1,1S26.348,46.042,25.795,46.042z"/>
			</g>
			<g>
				<path d="M32.795,46.042h-1c-0.553,0-1-0.447-1-1s0.447-1,1-1h1c0.553,0,1,0.447,1,1S33.348,46.042,32.795,46.042z"/>
			</g>
			<g>
				<path d="M38.795,46.042h-1c-0.553,0-1-0.447-1-1s0.447-1,1-1h1c0.553,0,1,0.447,1,1S39.348,46.042,38.795,46.042z"/>
			</g>
			<g>
				<path d="M45.795,46.042h-1c-0.553,0-1-0.447-1-1s0.447-1,1-1h1c0.553,0,1,0.447,1,1S46.348,46.042,45.795,46.042z"/>
			</g>
			<g>
				<path d="M52.795,46.042h-1c-0.553,0-1-0.447-1-1s0.447-1,1-1h1c0.553,0,1,0.447,1,1S53.348,46.042,52.795,46.042z"/>
			</g>
		</g>
		<g>
			<g>
				<path d="M18.795,58.042h-1c-0.553,0-1-0.447-1-1s0.447-1,1-1h1c0.553,0,1,0.447,1,1S19.348,58.042,18.795,58.042z"/>
			</g>
			<g>
				<path d="M46.795,58.042h-22c-0.553,0-1-0.447-1-1s0.447-1,1-1h22c0.553,0,1,0.447,1,1S47.348,58.042,46.795,58.042z"/>
			</g>
			<g>
				<path d="M52.795,58.042h-1c-0.553,0-1-0.447-1-1s0.447-1,1-1h1c0.553,0,1,0.447,1,1S53.348,58.042,52.795,58.042z"/>
			</g>
		</g>
		<g>
			<g>
				<path d="M18.795,52.042h-1c-0.553,0-1-0.447-1-1s0.447-1,1-1h1c0.553,0,1,0.447,1,1S19.348,52.042,18.795,52.042z"/>
			</g>
			<g>
				<path d="M25.795,52.042h-1c-0.553,0-1-0.447-1-1s0.447-1,1-1h1c0.553,0,1,0.447,1,1S26.348,52.042,25.795,52.042z"/>
			</g>
			<g>
				<path d="M32.795,52.042h-1c-0.553,0-1-0.447-1-1s0.447-1,1-1h1c0.553,0,1,0.447,1,1S33.348,52.042,32.795,52.042z"/>
			</g>
			<g>
				<path d="M38.795,52.042h-1c-0.553,0-1-0.447-1-1s0.447-1,1-1h1c0.553,0,1,0.447,1,1S39.348,52.042,38.795,52.042z"/>
			</g>
			<g>
				<path d="M45.795,52.042h-1c-0.553,0-1-0.447-1-1s0.447-1,1-1h1c0.553,0,1,0.447,1,1S46.348,52.042,45.795,52.042z"/>
			</g>
			<g>
				<path d="M52.795,52.042h-1c-0.553,0-1-0.447-1-1s0.447-1,1-1h1c0.553,0,1,0.447,1,1S53.348,52.042,52.795,52.042z"/>
			</g>
		</g>
	</g>
	<g>
		<g>
			<path d="M35.615,29.935c-0.595,0-1.184-0.264-1.577-0.77c-0.68-0.871-0.525-2.127,0.346-2.807
				c2.067-1.614,3.426-3.774,3.463-5.505c0.021-0.974-0.383-1.799-1.233-2.522c-2.833-2.411-8.106-6.898-2.97-13.592
				c0.675-0.877,1.93-1.04,2.805-0.369c0.876,0.673,1.041,1.929,0.369,2.805c-2.241,2.921-1.751,4.588,2.388,8.109
				c1.773,1.509,2.687,3.464,2.641,5.653c-0.063,2.974-1.933,6.179-5.001,8.573C36.479,29.797,36.046,29.935,35.615,29.935z"/>
		</g>
	</g>
</g>
</svg>
