<?xml version="1.0" encoding="utf-8"?>
<!-- Generator: Adobe Illustrator 16.0.0, SVG Export Plug-In . SVG Version: 6.00 Build 0)  -->
<!DOCTYPE svg PUBLIC "-//W3C//DTD SVG 1.1//EN" "http://www.w3.org/Graphics/SVG/1.1/DTD/svg11.dtd">
<svg version="1.1" id="Layer_1" xmlns="http://www.w3.org/2000/svg" xmlns:xlink="http://www.w3.org/1999/xlink" x="0px" y="0px"
	 width="72px" height="72px" viewBox="0 0 72 72" enable-background="new 0 0 72 72" xml:space="preserve">
<g>
	<g>
		<g>
			<path d="M16.443,68.145L16.443,68.145c-1.742-0.001-3.368-0.667-4.578-1.878l-6.74-6.74c-1.198-1.198-1.938-2.905-2.031-4.684
				c-0.099-1.887,0.547-3.67,1.771-4.894l28.16-26.181c0.662-1.891,3.326-10.629,4.968-16.082c1.112-3.181,2.893-3.831,4.195-3.831
				c1.903,0,3.344,1.461,3.887,2.011L67.318,27.11c0.455,0.455,1.841,1.841,1.561,3.706c-0.268,1.786-1.857,2.855-3.535,3.744
				c-0.103,0.055-0.21,0.101-0.32,0.136c-6.715,2.176-14.292,4.709-15.714,5.317L21.075,66.265
				C19.9,67.44,18.193,68.145,16.443,68.145z M42.293,7.905c-0.107,0.137-0.292,0.433-0.497,1.019
				c-5.057,16.809-5.211,16.963-5.668,17.42L7.641,52.829c-0.371,0.373-0.592,1.05-0.553,1.805c0.042,0.793,0.365,1.564,0.865,2.064
				l6.74,6.74c0.455,0.455,1.076,0.706,1.75,0.706l0,0c0.697,0,1.374-0.277,1.856-0.76l28.486-26.485
				c0.354-0.355,0.735-0.736,16.834-5.953c0.604-0.327,0.947-0.56,1.141-0.712c-0.065-0.08-0.153-0.179-0.271-0.296L43.301,8.749
				c-0.004-0.003-0.07-0.07-0.073-0.074C42.745,8.187,42.455,7.986,42.293,7.905z"/>
		</g>
		<g>
			<path d="M42.049,22.898c-0.258,0-0.515-0.099-0.71-0.296c-0.302-0.304-0.368-0.752-0.2-1.119
				c0.144-0.471,0.764-3.227,1.298-5.703c0.009-0.041,0.02-0.081,0.033-0.12c0.39-1.109,0.975-1.761,1.739-1.936
				c0.46-0.104,1.168-0.071,1.928,0.688l1.668,1.668c0.391,0.391,0.391,1.023,0,1.414s-1.023,0.391-1.414,0l-1.668-1.668
				c-0.034-0.034-0.063-0.061-0.089-0.081c-0.066,0.093-0.16,0.258-0.257,0.521c-1.299,6.02-1.361,6.082-1.624,6.342
				C42.558,22.802,42.303,22.898,42.049,22.898z"/>
		</g>
		<g>
			<path d="M49.926,20.616c-0.256,0-0.512-0.098-0.707-0.293l-0.707-0.707c-0.391-0.391-0.391-1.023,0-1.414s1.023-0.391,1.414,0
				l0.707,0.707c0.391,0.391,0.391,1.023,0,1.414C50.438,20.519,50.182,20.616,49.926,20.616z"/>
		</g>
		<g>
			<path d="M47.805,38.294c-0.256,0-0.512-0.098-0.707-0.293L35.076,25.98c-0.391-0.391-0.391-1.023,0-1.414s1.023-0.391,1.414,0
				l12.021,12.021c0.391,0.391,0.391,1.023,0,1.414C48.316,38.196,48.061,38.294,47.805,38.294z"/>
		</g>
	</g>
	<g>
		<path d="M59.118,15.253c-0.512,0-1.024-0.195-1.414-0.586c-0.781-0.781-0.781-2.047,0-2.828l1.414-1.414
			c0.78-0.781,2.048-0.781,2.828,0c0.781,0.781,0.781,2.047,0,2.828l-1.414,1.414C60.142,15.058,59.63,15.253,59.118,15.253z"/>
	</g>
	<g>
		<path d="M53.461,9.597c-0.512,0-1.023-0.195-1.414-0.585c-0.781-0.781-0.781-2.048-0.001-2.829l1.414-1.415
			c0.781-0.78,2.048-0.781,2.828-0.001c0.781,0.781,0.782,2.048,0.001,2.829l-1.414,1.415C54.484,9.401,53.973,9.597,53.461,9.597z"
			/>
	</g>
	<g>
		<path d="M64.775,20.909c-0.512,0-1.024-0.195-1.414-0.586c-0.781-0.781-0.781-2.047,0-2.828l1.414-1.414
			c0.78-0.781,2.048-0.781,2.828,0c0.781,0.781,0.781,2.047,0,2.828l-1.414,1.414C65.799,20.714,65.287,20.909,64.775,20.909z"/>
	</g>
	<g>
		<path d="M35.458,39.391c-0.53,0-1.04-0.21-1.421-0.58c-0.369-0.37-0.579-0.891-0.579-1.42c0-0.521,0.21-1.04,0.579-1.41
			c0.75-0.74,2.08-0.75,2.83,0c0.37,0.37,0.591,0.89,0.591,1.41c0,0.529-0.221,1.04-0.591,1.42
			C36.497,39.181,35.978,39.391,35.458,39.391z"/>
	</g>
</g>
</svg>
