<?xml version="1.0" encoding="utf-8"?>
<!-- Generator: Adobe Illustrator 16.0.3, SVG Export Plug-In . SVG Version: 6.00 Build 0)  -->
<!DOCTYPE svg PUBLIC "-//W3C//DTD SVG 1.1//EN" "http://www.w3.org/Graphics/SVG/1.1/DTD/svg11.dtd">
<svg version="1.1" id="Layer_1" xmlns="http://www.w3.org/2000/svg" xmlns:xlink="http://www.w3.org/1999/xlink" x="0px" y="0px"
	 width="72px" height="72px" viewBox="0 0 72 72" enable-background="new 0 0 72 72" xml:space="preserve">
<g>
	<path fill="#F62459" d="M2.748,48.252c0-2.271,0.884-4.404,2.489-6.011l24.506-24.506c1.645-1.646,3.921-2.546,6.255-2.479
		c2.336-0.068,4.614,0.833,6.26,2.479l24.507,24.507c1.604,1.605,2.488,3.738,2.488,6.01s-0.884,4.405-2.488,6.01
		c-3.314,3.314-8.707,3.314-12.021,0L36,35.519L17.258,54.262c-3.314,3.314-8.707,3.314-12.021,0
		C3.631,52.656,2.748,50.521,2.748,48.252z M65.253,48.252c0-1.202-0.468-2.332-1.316-3.182L39.431,21.038
		c-0.894-0.891-2.084-0.833-3.355-0.833c-0.051,0-0.101,0-0.151,0c-1.271,0-2.461-0.058-3.354,0.833L8.065,45.307
		c-0.85,0.851-1.316,1.862-1.316,3.063c0,1.203,0.468,2.272,1.316,3.123c1.756,1.755,4.61,1.725,6.365-0.03l20.156-20.171
		c0.781-0.781,2.046-0.788,2.828-0.007L57.57,51.438c1.755,1.754,4.61,1.754,6.365,0C64.785,50.587,65.253,49.454,65.253,48.252z"/>
</g>
</svg>
