<?xml version="1.0" encoding="utf-8"?>
<!-- Generator: Adobe Illustrator 16.0.0, SVG Export Plug-In . SVG Version: 6.00 Build 0)  -->
<!DOCTYPE svg PUBLIC "-//W3C//DTD SVG 1.1//EN" "http://www.w3.org/Graphics/SVG/1.1/DTD/svg11.dtd">
<svg version="1.1" id="Layer_1" xmlns="http://www.w3.org/2000/svg" xmlns:xlink="http://www.w3.org/1999/xlink" x="0px" y="0px"
	 width="72px" height="72px" viewBox="0 0 72 72" enable-background="new 0 0 72 72" xml:space="preserve">
<g>
	<g>
		<path d="M36.102,66.618c-16.301,0-29.563-13.262-29.563-29.563c0-16.299,13.262-29.56,29.563-29.56
			c16.3,0,29.561,13.261,29.561,29.56C65.662,53.356,52.401,66.618,36.102,66.618z M36.102,11.495
			c-14.096,0-25.563,11.467-25.563,25.56c0,14.096,11.467,25.563,25.563,25.563c14.094,0,25.561-11.467,25.561-25.563
			C61.662,22.962,50.195,11.495,36.102,11.495z"/>
	</g>
	<g>
		<path d="M36.101,49.944c-7.106,0-12.888-5.781-12.888-12.889c0-7.105,5.781-12.886,12.888-12.886s12.887,5.781,12.887,12.886
			C48.987,44.163,43.207,49.944,36.101,49.944z M36.101,26.169c-6.003,0-10.888,4.884-10.888,10.886
			c0,6.004,4.885,10.889,10.888,10.889s10.887-4.885,10.887-10.889C46.987,31.053,42.104,26.169,36.101,26.169z"/>
	</g>
	<g>
		<path d="M53.991,69.362c-3.688,0-7.258-1.32-10.052-3.719c-0.838-0.721-0.934-1.982-0.214-2.82c0.719-0.84,1.981-0.936,2.82-0.215
			c2.068,1.775,4.713,2.754,7.445,2.754c6.305,0,11.434-5.129,11.434-11.434c0-2.973-1.136-5.791-3.198-7.932
			c-0.767-0.797-0.742-2.063,0.054-2.828c0.795-0.768,2.061-0.742,2.827,0.053c2.784,2.891,4.317,6.693,4.317,10.707
			C69.425,62.438,62.502,69.362,53.991,69.362z"/>
	</g>
	<g>
		<path d="M18.009,69.077c-8.51,0-15.434-6.924-15.434-15.434c0-3.689,1.321-7.258,3.721-10.051c0.72-0.838,1.981-0.934,2.821-0.213
			c0.837,0.719,0.933,1.982,0.213,2.82c-1.776,2.066-2.755,4.711-2.755,7.443c0,6.305,5.129,11.434,11.434,11.434
			c2.975,0,5.792-1.137,7.934-3.199c0.795-0.766,2.062-0.742,2.828,0.053c0.767,0.797,0.742,2.063-0.054,2.828
			C25.826,67.543,22.023,69.077,18.009,69.077z"/>
	</g>
	<g>
		<path d="M8.333,30.169c-0.524,0-1.049-0.205-1.441-0.613c-2.783-2.891-4.316-6.693-4.316-10.707
			c0-8.51,6.924-15.434,15.434-15.434c4.253,0,8.165,1.604,11.314,4.641c0.795,0.767,0.818,2.032,0.052,2.827
			c-0.767,0.796-2.033,0.82-2.828,0.052c-2.423-2.335-5.295-3.52-8.538-3.52c-6.305,0-11.434,5.129-11.434,11.434
			c0,2.974,1.136,5.791,3.198,7.934c0.767,0.795,0.742,2.062-0.054,2.827C9.332,29.983,8.832,30.169,8.333,30.169z"/>
	</g>
	<g>
		<path d="M63.123,28.82c-0.461,0-0.925-0.158-1.302-0.482c-0.838-0.72-0.934-1.982-0.214-2.82c1.776-2.069,2.755-4.713,2.755-7.444
			c0-6.305-5.129-11.435-11.434-11.435c-2.959,0-5.867,1.396-7.779,3.732c-0.7,0.854-1.961,0.979-2.814,0.281
			c-0.855-0.7-0.98-1.96-0.281-2.814c2.664-3.256,6.729-5.199,10.875-5.199c8.51,0,15.434,6.924,15.434,15.435
			c0,3.688-1.321,7.256-3.721,10.05C64.246,28.584,63.687,28.82,63.123,28.82z"/>
	</g>
	<g>
		<g>
			<path d="M63.602,31.291h-9c-0.553,0-1-0.447-1-1s0.447-1,1-1h9c0.552,0,1,0.447,1,1S64.153,31.291,63.602,31.291z"/>
		</g>
		<g>
			<path d="M50.602,31.291h-4c-0.553,0-1-0.447-1-1s0.447-1,1-1h4c0.552,0,1,0.447,1,1S51.153,31.291,50.602,31.291z"/>
		</g>
		<g>
			<path d="M63.602,44.292h-17c-0.553,0-1-0.447-1-1s0.447-1,1-1h17c0.552,0,1,0.447,1,1S64.153,44.292,63.602,44.292z"/>
		</g>
	</g>
	<g>
		<g>
			<path d="M25.602,31.291h-17c-0.553,0-1-0.447-1-1s0.447-1,1-1h17c0.552,0,1,0.447,1,1S26.153,31.291,25.602,31.291z"/>
		</g>
		<g>
			<path d="M25.602,44.292h-17c-0.553,0-1-0.447-1-1s0.447-1,1-1h17c0.552,0,1,0.447,1,1S26.153,44.292,25.602,44.292z"/>
		</g>
	</g>
	<g>
		<g>
			<path d="M43.982,65.292c-0.553,0-1-0.447-1-1v-17c0-0.553,0.447-1,1-1c0.552,0,1,0.447,1,1v17
				C44.982,64.844,44.534,65.292,43.982,65.292z"/>
		</g>
		<g>
			<path d="M30.982,66.292c-0.553,0-1-0.447-1-1v-5c0-0.553,0.447-1,1-1c0.552,0,1,0.447,1,1v5
				C31.982,65.844,31.534,66.292,30.982,66.292z"/>
		</g>
		<g>
			<path d="M30.982,57.292c-0.553,0-1-0.447-1-1v-8c0-0.553,0.447-1,1-1c0.552,0,1,0.447,1,1v8
				C31.982,56.844,31.534,57.292,30.982,57.292z"/>
		</g>
	</g>
	<g>
		<g>
			<path d="M43.982,28.291c-0.553,0-1-0.447-1-1v-18c0-0.553,0.447-1,1-1c0.552,0,1,0.447,1,1v18
				C44.982,27.844,44.534,28.291,43.982,28.291z"/>
		</g>
		<g>
			<path d="M30.982,27.291c-0.553,0-1-0.447-1-1v-17c0-0.553,0.447-1,1-1c0.552,0,1,0.447,1,1v17
				C31.982,26.844,31.534,27.291,30.982,27.291z"/>
		</g>
	</g>
</g>
</svg>
