<?xml version="1.0" encoding="utf-8"?>
<!-- Generator: Adobe Illustrator 16.0.0, SVG Export Plug-In . SVG Version: 6.00 Build 0)  -->
<!DOCTYPE svg PUBLIC "-//W3C//DTD SVG 1.1//EN" "http://www.w3.org/Graphics/SVG/1.1/DTD/svg11.dtd">
<svg version="1.1" id="Layer_1" xmlns="http://www.w3.org/2000/svg" xmlns:xlink="http://www.w3.org/1999/xlink" x="0px" y="0px"
	 width="72px" height="72px" viewBox="0 0 72 72" enable-background="new 0 0 72 72" xml:space="preserve">
<g>
	<g>
		<path d="M47.828,42.489L47.828,42.489c-0.532,0-1.041,0.098-1.416-0.279L29.907,25.816c-0.779-0.781-0.778-1.969,0.002-2.749
			L47.214,5.8c1.467-1.467,3.535-2.289,5.674-2.289c2.035,0,3.906,0.761,5.268,2.122l8.292,8.297
			c1.398,1.397,2.23,3.429,2.282,5.568c0.054,2.192-0.723,4.258-2.13,5.665L49.242,42.211
			C48.867,42.586,48.358,42.489,47.828,42.489z M34.15,24.56l13.68,13.717l15.941-15.939c0.637-0.637,0.986-1.636,0.959-2.739
			c-0.026-1.106-0.442-2.166-1.111-2.835l-8.292-8.292c-0.606-0.606-1.473-0.94-2.439-0.94c-1.086,0-2.123,0.415-2.846,1.137
			L34.15,24.56z"/>
	</g>
	<g>
		<path d="M41.741,22.986c-0.257,0-0.514-0.098-0.709-0.294c-0.39-0.392-0.389-1.024,0.003-1.414l0.387-0.385
			c0.39-0.392,1.023-0.39,1.414,0.002c0.39,0.392,0.389,1.024-0.003,1.414l-0.387,0.385C42.252,22.889,41.996,22.986,41.741,22.986z
			"/>
	</g>
	<g>
		<path d="M44.096,20.631c-0.256,0-0.512-0.098-0.707-0.293c-0.391-0.391-0.391-1.023,0-1.414l6.523-6.523
			c1.539-1.539,4.093-1.586,5.577-0.101l4.254,4.254c0.391,0.391,0.391,1.023,0,1.414s-1.023,0.391-1.414,0l-4.254-4.254
			c-0.692-0.691-2.003-0.644-2.749,0.101l-6.523,6.523C44.607,20.534,44.352,20.631,44.096,20.631z"/>
	</g>
	<g>
		<path d="M41.366,68.489L41.366,68.489c-0.531,0-1.039-0.211-1.415-0.586c-2.008-2.008-4.839-4.861-8.12-8.17
			c-8.412-8.48-19.932-20.094-27.959-27.91c-0.384-0.373-0.602-0.884-0.604-1.419c-0.004-0.535,0.207-1.05,0.586-1.428
			c7.689-7.691,19.214-10.137,29.362-6.229c1.03,0.396,1.544,1.554,1.147,2.585c-0.396,1.029-1.554,1.544-2.585,1.147
			c-8.037-3.096-17.089-1.525-23.604,3.955c7.938,7.772,18.588,18.51,26.496,26.48c2.541,2.563,4.812,4.852,6.638,6.686
			c5.304-6.268,6.964-14.775,4.313-22.667c-0.352-1.047,0.212-2.181,1.259-2.532c1.046-0.354,2.181,0.211,2.533,1.259
			c3.353,9.979,0.812,20.8-6.633,28.243C42.405,68.278,41.896,68.489,41.366,68.489z"/>
	</g>
	<g>
		<path d="M6.027,67.27c-0.517,0-1.032-0.199-1.424-0.596c-0.775-0.787-0.767-2.053,0.02-2.828l17.181-16.938
			c0.786-0.776,2.052-0.767,2.829,0.02c0.775,0.787,0.767,2.053-0.021,2.828L7.432,66.694C7.042,67.079,6.535,67.27,6.027,67.27z"/>
	</g>
</g>
</svg>
