<?xml version="1.0" encoding="utf-8"?>
<!-- Generator: Adobe Illustrator 16.0.0, SVG Export Plug-In . SVG Version: 6.00 Build 0)  -->
<!DOCTYPE svg PUBLIC "-//W3C//DTD SVG 1.1//EN" "http://www.w3.org/Graphics/SVG/1.1/DTD/svg11.dtd">
<svg version="1.1" id="Layer_1" xmlns="http://www.w3.org/2000/svg" xmlns:xlink="http://www.w3.org/1999/xlink" x="0px" y="0px"
	 width="72px" height="72px" viewBox="0 0 72 72" enable-background="new 0 0 72 72" xml:space="preserve">
<g>
	<g>
		<path d="M47.37,62.063c0,3.313-2.687,6-6,6h-11c-3.313,0-6-2.688-6-6v-10c0-3.314,2.687-6,6-6h11c3.313,0,6,2.686,6,6V62.063z
			 M43.37,52.063c0-1.105-0.896-2-2-2h-11c-1.104,0-2,0.895-2,2v10c0,1.104,0.896,2,2,2h11c1.104,0,2-0.896,2-2V52.063z"/>
	</g>
	<g>
		<path d="M37.219,70.063h-2.895c-1.966,0-2.954-2.166-2.954-3.664v-0.336c0-1.105,0.847-2,1.95-2c1.105,0,1.951,0.895,1.951,2h1
			c0-1.105,0.945-2,2.049-2c1.105,0,2.05,0.895,2.05,2v0.336C40.37,67.896,39.185,70.063,37.219,70.063z"/>
	</g>
	<g>
		<path d="M28.834,49.377c-7.514-5.557-12.75-18.965-12.75-27.523c0-10.981,8.935-19.916,19.916-19.916s19.916,8.935,19.916,19.916
			c0,8.244-5.046,21.429-12.287,27.167l-2.484-3.135C47.31,41,51.916,29.168,51.916,21.854c0-8.776-7.14-15.916-15.916-15.916
			s-15.916,7.14-15.916,15.916c0,7.435,4.861,19.671,11.129,24.306L28.834,49.377z"/>
	</g>
	<g>
		<path d="M27.45,58.117c-0.387,0-0.754-0.225-0.918-0.602c-0.221-0.506,0.012-1.094,0.519-1.314l16.668-7.25
			c0.508-0.223,1.096,0.012,1.315,0.518c0.221,0.506-0.012,1.096-0.519,1.316l-16.668,7.25
			C27.718,58.092,27.583,58.117,27.45,58.117z"/>
	</g>
	<g>
		<path d="M27.45,65.117c-0.387,0-0.754-0.225-0.918-0.602c-0.221-0.506,0.012-1.094,0.519-1.314l16.668-7.25
			c0.508-0.221,1.096,0.012,1.315,0.518c0.221,0.506-0.012,1.096-0.519,1.316l-16.668,7.25
			C27.718,65.092,27.583,65.117,27.45,65.117z"/>
	</g>
	<g>
		<g>
			<path d="M36.271,23.062c-0.26,0-0.521-0.11-0.71-0.29c-0.181-0.19-0.29-0.44-0.29-0.71c0-0.271,0.109-0.521,0.29-0.71
				c0.37-0.37,1.05-0.37,1.42,0c0.18,0.189,0.29,0.45,0.29,0.71s-0.11,0.52-0.29,0.71C36.791,22.952,36.541,23.062,36.271,23.062z"
				/>
		</g>
		<g>
			<path d="M36.37,32.062c-0.553,0-1-0.447-1-1v-5c0-0.553,0.447-1,1-1s1,0.447,1,1v5C37.37,31.615,36.923,32.062,36.37,32.062z"/>
		</g>
		<g>
			<path d="M32.165,32.112c-0.256,0-0.512-0.098-0.707-0.293l-2.726-2.726c-0.391-0.391-0.391-1.023,0-1.414s1.023-0.391,1.414,0
				l2.726,2.726c0.391,0.391,0.391,1.023,0,1.414C32.677,32.014,32.421,32.112,32.165,32.112z"/>
		</g>
		<g>
			<path d="M40.539,32.112c-0.256,0-0.512-0.098-0.707-0.293c-0.391-0.391-0.391-1.023,0-1.414l2.726-2.726
				c0.391-0.391,1.023-0.391,1.414,0s0.391,1.023,0,1.414l-2.726,2.726C41.051,32.014,40.795,32.112,40.539,32.112z"/>
		</g>
	</g>
</g>
</svg>
