<?xml version="1.0" encoding="utf-8"?>
<!-- Generator: Adobe Illustrator 16.0.0, SVG Export Plug-In . SVG Version: 6.00 Build 0)  -->
<!DOCTYPE svg PUBLIC "-//W3C//DTD SVG 1.1//EN" "http://www.w3.org/Graphics/SVG/1.1/DTD/svg11.dtd">
<svg version="1.1" id="Layer_1" xmlns="http://www.w3.org/2000/svg" xmlns:xlink="http://www.w3.org/1999/xlink" x="0px" y="0px"
	 width="72px" height="72px" viewBox="0 0 72 72" enable-background="new 0 0 72 72" xml:space="preserve">
<g>
	<g>
		<path d="M36,54c-6.893,0-12.5-5.607-12.5-12.5v-26C23.5,8.607,29.107,3,36,3s12.5,5.607,12.5,12.5v26C48.5,48.393,42.893,54,36,54
			z M36,7c-4.688,0-8.5,3.813-8.5,8.5v26c0,4.686,3.813,8.5,8.5,8.5c4.687,0,8.5-3.814,8.5-8.5v-26C44.5,10.813,40.687,7,36,7z"/>
	</g>
	<g>
		<g>
			<path d="M30.5,24c-0.553,0-1-0.447-1-1v-8.518c0-2.681,1.725-4.482,4.851-4.482h0.774c0.553,0,1,0.447,1,1s-0.447,1-1,1h-0.774
				c-0.757,0-2.851,0.179-2.851,2.482V23C31.5,23.553,31.052,24,30.5,24z"/>
		</g>
		<g>
			<path d="M30.5,28c-0.553,0-1-0.447-1-1v-1c0-0.553,0.447-1,1-1c0.552,0,1,0.447,1,1v1C31.5,27.553,31.052,28,30.5,28z"/>
		</g>
	</g>
	<g>
		<path d="M36.091,62h-0.212C24.086,62,14.5,51.999,14.5,40.159V39c0-1.105,0.896-2,2-2s2,0.895,2,2v1.158
			C18.5,49.663,26.421,58,35.879,58h0.212C45.324,58,53.5,49.829,53.5,40.159V39c0-1.105,0.896-2,2-2s2,0.895,2,2v1.158
			C57.5,52.202,47.689,62,36.091,62z"/>
	</g>
	<g>
		<path d="M44.125,69H27.124c-1.104,0-2-0.896-2-2c0-1.105,0.896-2,2-2h17.001c1.104,0,2,0.895,2,2
			C46.125,68.104,45.229,69,44.125,69z"/>
	</g>
	<g>
		<path d="M35.5,67c-1.104,0-2-0.896-2-2v-5c0-1.105,0.896-2,2-2s2,0.895,2,2v5C37.5,66.104,36.604,67,35.5,67z"/>
	</g>
</g>
</svg>
