<?xml version="1.0" encoding="utf-8"?>
<!-- Generator: Adobe Illustrator 16.0.0, SVG Export Plug-In . SVG Version: 6.00 Build 0)  -->
<!DOCTYPE svg PUBLIC "-//W3C//DTD SVG 1.1//EN" "http://www.w3.org/Graphics/SVG/1.1/DTD/svg11.dtd">
<svg version="1.1" id="Layer_1" xmlns="http://www.w3.org/2000/svg" xmlns:xlink="http://www.w3.org/1999/xlink" x="0px" y="0px"
	 width="72px" height="72px" viewBox="0 0 72 72" enable-background="new 0 0 72 72" xml:space="preserve">
<g>
	<g>
		<path d="M58.5,61.069c0,3.828-3.104,6.932-6.932,6.932H20.432c-3.828,0-6.932-3.104-6.932-6.932V10.932
			C13.5,7.104,16.604,4,20.432,4h31.137c3.828,0,6.932,3.104,6.932,6.932V61.069z M54.5,10.932C54.5,9.313,53.188,8,51.568,8H20.432
			C18.813,8,17.5,9.313,17.5,10.932v50.137c0,1.619,1.313,2.932,2.932,2.932h31.137c1.619,0,2.932-1.313,2.932-2.932V10.932z"/>
	</g>
	<g>
		<path d="M56.454,55h-41c-0.553,0-1-0.447-1-1s0.447-1,1-1h41c0.552,0,1,0.447,1,1S57.006,55,56.454,55z"/>
	</g>
	<g>
		<path d="M56.454,15h-41c-0.553,0-1-0.447-1-1s0.447-1,1-1h41c0.552,0,1,0.447,1,1S57.006,15,56.454,15z"/>
	</g>
	<path d="M38.5,59.25c0,0.967-0.784,1.75-1.75,1.75h-0.5c-0.966,0-1.75-0.783-1.75-1.75v-0.5c0-0.967,0.784-1.75,1.75-1.75h0.5
		c0.966,0,1.75,0.783,1.75,1.75V59.25z"/>
	<g>
		<g>
			<path d="M40.52,32.768c-0.109,0-0.222-0.018-0.331-0.057c-0.521-0.183-0.795-0.754-0.612-1.275l0.271-0.772
				c0.184-0.521,0.752-0.798,1.275-0.611c0.521,0.183,0.795,0.754,0.611,1.275L41.463,32.1
				C41.318,32.511,40.933,32.768,40.52,32.768z"/>
		</g>
		<g>
			<path d="M36.707,43.625c-0.109,0-0.222-0.018-0.331-0.057c-0.521-0.182-0.795-0.754-0.612-1.273l2.836-8.076
				c0.183-0.521,0.753-0.799,1.275-0.612c0.521,0.183,0.795,0.754,0.611,1.274l-2.836,8.076
				C37.506,43.37,37.12,43.625,36.707,43.625z"/>
		</g>
		<g>
			<path d="M32.654,36.084c-0.109,0-0.222-0.018-0.331-0.057c-0.521-0.182-0.795-0.753-0.612-1.273l4.146-11.812
				c0.182-0.522,0.753-0.798,1.274-0.612c0.521,0.183,0.795,0.754,0.612,1.274l-4.146,11.812
				C33.454,35.829,33.067,36.084,32.654,36.084z"/>
		</g>
		<g>
			<path d="M30.707,41.625c-0.109,0-0.222-0.018-0.331-0.057c-0.521-0.182-0.795-0.754-0.612-1.275l0.61-1.734
				c0.183-0.521,0.752-0.797,1.274-0.611c0.521,0.182,0.795,0.754,0.612,1.275l-0.61,1.734C31.506,41.37,31.12,41.625,30.707,41.625
				z"/>
		</g>
	</g>
</g>
</svg>
