<?xml version="1.0" encoding="utf-8"?>
<!-- Generator: Adobe Illustrator 16.0.0, SVG Export Plug-In . SVG Version: 6.00 Build 0)  -->
<!DOCTYPE svg PUBLIC "-//W3C//DTD SVG 1.1//EN" "http://www.w3.org/Graphics/SVG/1.1/DTD/svg11.dtd">
<svg version="1.1" id="Layer_1" xmlns="http://www.w3.org/2000/svg" xmlns:xlink="http://www.w3.org/1999/xlink" x="0px" y="0px"
	 width="72px" height="72px" viewBox="0 0 72 72" enable-background="new 0 0 72 72" xml:space="preserve">
<g>
	<g>
		<path d="M50.119,67.5h-27c-1.104,0-2-0.896-2-2c0-1.105,0.896-2,2-2h27c1.104,0,2,0.895,2,2
			C52.119,66.604,51.224,67.5,50.119,67.5z"/>
	</g>
	<g>
		<path d="M69,48.569c0,3.828-3.104,6.932-6.932,6.932H9.932C6.104,55.5,3,52.397,3,48.569V11.432C3,7.604,6.104,4.5,9.932,4.5
			h52.137C65.896,4.5,69,7.604,69,11.432V48.569z M65,11.432C65,9.813,63.688,8.5,62.068,8.5H9.932C8.313,8.5,7,9.813,7,11.432
			v37.137C7,50.188,8.313,51.5,9.932,51.5h52.137c1.619,0,2.932-1.313,2.932-2.932V11.432z"/>
	</g>
	<g>
		<path d="M67.119,44.5h-62c-0.553,0-1-0.447-1-1s0.447-1,1-1h62c0.552,0,1,0.447,1,1S67.671,44.5,67.119,44.5z"/>
	</g>
	<g>
		<path d="M67.119,15.5h-62c-0.553,0-1-0.447-1-1s0.447-1,1-1h62c0.552,0,1,0.447,1,1S67.671,15.5,67.119,15.5z"/>
	</g>
	<g>
		<g>
			<path d="M32.504,30.085c-0.12,0-0.243-0.021-0.362-0.068c-0.515-0.2-0.77-0.78-0.568-1.295l0.271-0.696
				c0.2-0.515,0.781-0.77,1.295-0.568c0.515,0.2,0.769,0.78,0.568,1.295l-0.271,0.696C33.282,29.844,32.904,30.085,32.504,30.085z"
				/>
		</g>
		<g>
			<path d="M28.691,39.877c-0.12,0-0.243-0.021-0.362-0.068c-0.515-0.199-0.77-0.779-0.568-1.295l2.836-7.283
				c0.2-0.514,0.778-0.771,1.294-0.568c0.515,0.2,0.77,0.78,0.569,1.295l-2.836,7.283C29.47,39.635,29.092,39.877,28.691,39.877z"/>
		</g>
		<g>
			<path d="M24.639,33.077c-0.12,0-0.243-0.021-0.362-0.068c-0.515-0.2-0.77-0.779-0.569-1.294l4.146-10.652
				c0.201-0.515,0.779-0.771,1.295-0.569c0.515,0.2,0.77,0.779,0.569,1.294l-4.146,10.652
				C25.417,32.835,25.039,33.077,24.639,33.077z"/>
		</g>
		<g>
			<path d="M22.691,38.075c-0.12,0-0.243-0.021-0.362-0.068c-0.515-0.201-0.77-0.781-0.568-1.295l0.609-1.566
				c0.201-0.515,0.783-0.77,1.295-0.568c0.515,0.2,0.77,0.78,0.568,1.295l-0.609,1.566C23.47,37.833,23.092,38.075,22.691,38.075z"
				/>
		</g>
	</g>
</g>
</svg>
