<?xml version="1.0" encoding="utf-8"?>
<!-- Generator: Adobe Illustrator 16.0.0, SVG Export Plug-In . SVG Version: 6.00 Build 0)  -->
<!DOCTYPE svg PUBLIC "-//W3C//DTD SVG 1.1//EN" "http://www.w3.org/Graphics/SVG/1.1/DTD/svg11.dtd">
<svg version="1.1" id="Layer_1" xmlns="http://www.w3.org/2000/svg" xmlns:xlink="http://www.w3.org/1999/xlink" x="0px" y="0px"
	 width="72px" height="72px" viewBox="0 0 72 72" enable-background="new 0 0 72 72" xml:space="preserve">
<g>
	<g>
		<path d="M68,62.069C68,65.897,64.896,69,61.068,69H10.932C7.104,69,4,65.897,4,62.069V17.932C4,14.104,7.104,11,10.932,11h50.137
			C64.896,11,68,14.104,68,17.932V62.069z M64,17.932C64,16.313,62.688,15,61.068,15H10.932C9.313,15,8,16.313,8,17.932v44.137
			C8,63.688,9.313,65,10.932,65h50.137C62.688,65,64,63.688,64,62.069V17.932z"/>
	</g>
	<g>
		<g>
			<path d="M57.104,62h-6.31c-0.553,0-1-0.447-1-1s0.447-1,1-1h6.31c0.99,0,1.69-0.17,1.69-2.359c0-0.553,0.55-1,1.103-1
				s1.103,0.447,1.103,1V58c0,0.059-0.107,0.115-0.117,0.172C60.735,60.713,59.398,62,57.104,62z"/>
		</g>
		<g>
			<path d="M59.875,54.411c-0.271,0-0.521-0.111-0.71-0.291c-0.181-0.189-0.29-0.439-0.29-0.709c0-0.262,0.109-0.521,0.29-0.711
				c0.37-0.369,1.04-0.369,1.42,0c0.18,0.189,0.29,0.449,0.29,0.711c0,0.26-0.11,0.52-0.29,0.709
				C60.395,54.299,60.135,54.411,59.875,54.411z"/>
		</g>
	</g>
	<g>
		<g>
			<path d="M18.795,39h-1c-0.553,0-1-0.447-1-1s0.447-1,1-1h1c0.553,0,1,0.447,1,1S19.348,39,18.795,39z"/>
		</g>
		<g>
			<path d="M25.795,39h-1c-0.553,0-1-0.447-1-1s0.447-1,1-1h1c0.553,0,1,0.447,1,1S26.348,39,25.795,39z"/>
		</g>
		<g>
			<path d="M32.795,39h-1c-0.553,0-1-0.447-1-1s0.447-1,1-1h1c0.553,0,1,0.447,1,1S33.348,39,32.795,39z"/>
		</g>
		<g>
			<path d="M38.795,39h-1c-0.553,0-1-0.447-1-1s0.447-1,1-1h1c0.553,0,1,0.447,1,1S39.348,39,38.795,39z"/>
		</g>
		<g>
			<path d="M45.795,39h-1c-0.553,0-1-0.447-1-1s0.447-1,1-1h1c0.553,0,1,0.447,1,1S46.348,39,45.795,39z"/>
		</g>
		<g>
			<path d="M52.795,39h-1c-0.553,0-1-0.447-1-1s0.447-1,1-1h1c0.553,0,1,0.447,1,1S53.348,39,52.795,39z"/>
		</g>
	</g>
	<g>
		<g>
			<path d="M18.795,45h-1c-0.553,0-1-0.447-1-1s0.447-1,1-1h1c0.553,0,1,0.447,1,1S19.348,45,18.795,45z"/>
		</g>
		<g>
			<path d="M25.795,45h-1c-0.553,0-1-0.447-1-1s0.447-1,1-1h1c0.553,0,1,0.447,1,1S26.348,45,25.795,45z"/>
		</g>
		<g>
			<path d="M32.795,45h-1c-0.553,0-1-0.447-1-1s0.447-1,1-1h1c0.553,0,1,0.447,1,1S33.348,45,32.795,45z"/>
		</g>
		<g>
			<path d="M38.795,45h-1c-0.553,0-1-0.447-1-1s0.447-1,1-1h1c0.553,0,1,0.447,1,1S39.348,45,38.795,45z"/>
		</g>
		<g>
			<path d="M45.795,45h-1c-0.553,0-1-0.447-1-1s0.447-1,1-1h1c0.553,0,1,0.447,1,1S46.348,45,45.795,45z"/>
		</g>
		<g>
			<path d="M52.795,45h-1c-0.553,0-1-0.447-1-1s0.447-1,1-1h1c0.553,0,1,0.447,1,1S53.348,45,52.795,45z"/>
		</g>
	</g>
	<g>
		<g>
			<path d="M18.795,57h-1c-0.553,0-1-0.447-1-1s0.447-1,1-1h1c0.553,0,1,0.447,1,1S19.348,57,18.795,57z"/>
		</g>
		<g>
			<path d="M25.795,57h-1c-0.553,0-1-0.447-1-1s0.447-1,1-1h1c0.553,0,1,0.447,1,1S26.348,57,25.795,57z"/>
		</g>
		<g>
			<path d="M32.795,57h-1c-0.553,0-1-0.447-1-1s0.447-1,1-1h1c0.553,0,1,0.447,1,1S33.348,57,32.795,57z"/>
		</g>
		<g>
			<path d="M38.795,57h-1c-0.553,0-1-0.447-1-1s0.447-1,1-1h1c0.553,0,1,0.447,1,1S39.348,57,38.795,57z"/>
		</g>
	</g>
	<g>
		<g>
			<path d="M18.795,51h-1c-0.553,0-1-0.447-1-1s0.447-1,1-1h1c0.553,0,1,0.447,1,1S19.348,51,18.795,51z"/>
		</g>
		<g>
			<path d="M25.795,51h-1c-0.553,0-1-0.447-1-1s0.447-1,1-1h1c0.553,0,1,0.447,1,1S26.348,51,25.795,51z"/>
		</g>
		<g>
			<path d="M32.795,51h-1c-0.553,0-1-0.447-1-1s0.447-1,1-1h1c0.553,0,1,0.447,1,1S33.348,51,32.795,51z"/>
		</g>
		<g>
			<path d="M38.795,51h-1c-0.553,0-1-0.447-1-1s0.447-1,1-1h1c0.553,0,1,0.447,1,1S39.348,51,38.795,51z"/>
		</g>
		<g>
			<path d="M45.795,51h-1c-0.553,0-1-0.447-1-1s0.447-1,1-1h1c0.553,0,1,0.447,1,1S46.348,51,45.795,51z"/>
		</g>
		<g>
			<path d="M52.795,51h-1c-0.553,0-1-0.447-1-1s0.447-1,1-1h1c0.553,0,1,0.447,1,1S53.348,51,52.795,51z"/>
		</g>
	</g>
	<g>
		<g>
			<path d="M18,22c-1.104,0-2-0.896-2-2V5c0-1.104,0.896-2,2-2s2,0.896,2,2v15C20,21.105,19.104,22,18,22z"/>
		</g>
		<g>
			<path d="M53,22c-1.104,0-2-0.896-2-2V5c0-1.104,0.896-2,2-2s2,0.896,2,2v15C55,21.105,54.104,22,53,22z"/>
		</g>
	</g>
	<g>
		<path d="M65.795,30h-60c-0.553,0-1-0.447-1-1s0.447-1,1-1h60c0.553,0,1,0.447,1,1S66.348,30,65.795,30z"/>
	</g>
</g>
</svg>
