<?xml version="1.0" encoding="utf-8"?>
<!-- Generator: Adobe Illustrator 16.0.0, SVG Export Plug-In . SVG Version: 6.00 Build 0)  -->
<!DOCTYPE svg PUBLIC "-//W3C//DTD SVG 1.1//EN" "http://www.w3.org/Graphics/SVG/1.1/DTD/svg11.dtd">
<svg version="1.1" id="Layer_1" xmlns="http://www.w3.org/2000/svg" xmlns:xlink="http://www.w3.org/1999/xlink" x="0px" y="0px"
	 width="72px" height="72px" viewBox="0 0 72 72" enable-background="new 0 0 72 72" xml:space="preserve">
<g>
	<g>
		<path d="M24.349,69.006c-5.352,0-10.383-2.084-14.167-5.869l-0.658-0.658c-7.812-7.811-7.812-20.521,0-28.333l14.094-14.094
			c3.783-3.784,8.814-5.868,14.166-5.868c5.352,0,10.383,2.084,14.167,5.868l0.658,0.658c7.812,7.812,7.812,20.523,0,28.333
			L38.516,63.137C34.731,66.922,29.701,69.006,24.349,69.006z M37.783,18.184c-4.282,0-8.309,1.668-11.337,4.696L12.352,36.973
			c-6.252,6.252-6.252,16.426,0,22.678l0.658,0.658c3.028,3.029,7.056,4.697,11.339,4.697s8.31-1.668,11.338-4.697L49.78,46.215
			c6.252-6.252,6.252-16.425,0-22.677l-0.658-0.658C46.094,19.852,42.066,18.184,37.783,18.184z"/>
	</g>
	<g>
		<path d="M12.892,54.928c-0.316,0-0.628-0.15-0.822-0.432C8.287,49.04,9.34,43.198,15.117,37.602l3.14-3.138
			c0.391-0.391,1.023-0.391,1.414,0s0.391,1.023,0,1.414l-3.15,3.15c-5.062,4.902-6.002,9.721-2.807,14.33
			c0.314,0.453,0.201,1.076-0.252,1.393C13.288,54.87,13.088,54.928,12.892,54.928z"/>
	</g>
	<g>
		<path d="M15.279,57.848c-0.256,0-0.512-0.098-0.706-0.293l-0.467-0.465c-0.391-0.391-0.391-1.023-0.001-1.414
			c0.391-0.391,1.024-0.391,1.414,0l0.467,0.465c0.391,0.391,0.391,1.023,0.001,1.414C15.792,57.75,15.535,57.848,15.279,57.848z"/>
	</g>
	<g>
		<path d="M48.92,50.903c-0.152,0-0.308-0.035-0.453-0.107c-19.55-9.955-26.353-25.997-26.633-26.674
			c-0.21-0.511,0.032-1.095,0.542-1.306c0.51-0.212,1.095,0.031,1.307,0.541c0.066,0.16,6.831,16.052,25.693,25.656
			c0.492,0.25,0.688,0.854,0.438,1.346C49.636,50.704,49.284,50.903,48.92,50.903z"/>
	</g>
	<g>
		<path d="M37.783,35.171c-0.256,0-0.512-0.098-0.707-0.293c-0.391-0.391-0.391-1.023,0-1.414l3.536-3.537
			c0.391-0.391,1.023-0.391,1.414,0s0.391,1.023,0,1.414l-3.536,3.537C38.295,35.073,38.039,35.171,37.783,35.171z"/>
	</g>
	<g>
		<path d="M51.797,24.759c-1.034,0-1.909-0.796-1.992-1.844c-0.021-0.263-0.405-6.499,8.404-10.834
			c4.643-2.283,6.186-7.578,6.2-7.632c0.301-1.062,1.407-1.678,2.469-1.381c1.063,0.301,1.681,1.405,1.381,2.469
			c-0.081,0.287-2.061,7.072-8.284,10.134c-6.3,3.1-6.185,6.894-6.182,6.932c0.086,1.101-0.736,2.063-1.838,2.15
			C51.902,24.757,51.85,24.759,51.797,24.759z"/>
	</g>
</g>
</svg>
