<?xml version="1.0" encoding="utf-8"?>
<!-- Generator: Adobe Illustrator 16.0.0, SVG Export Plug-In . SVG Version: 6.00 Build 0)  -->
<!DOCTYPE svg PUBLIC "-//W3C//DTD SVG 1.1//EN" "http://www.w3.org/Graphics/SVG/1.1/DTD/svg11.dtd">
<svg version="1.1" id="Layer_1" xmlns="http://www.w3.org/2000/svg" xmlns:xlink="http://www.w3.org/1999/xlink" x="0px" y="0px"
	 width="72px" height="72px" viewBox="0 0 72 72" enable-background="new 0 0 72 72" xml:space="preserve">
<g>
	<g>
		<path d="M11.397,62.139c-0.262,0-0.522-0.102-0.719-0.305c-1.101-1.137-1.706-2.635-1.705-4.217c0-0.551,0.448-0.998,1-0.998
			c0,0,0,0,0.001,0c0.552,0,0.999,0.447,0.999,1c-0.001,1.061,0.405,2.063,1.143,2.824c0.384,0.396,0.374,1.031-0.023,1.414
			C11.898,62.045,11.648,62.139,11.397,62.139z"/>
	</g>
	<g>
		<path d="M51.396,54.139c-0.263,0-0.522-0.102-0.72-0.305c-1.101-1.137-1.706-2.635-1.704-4.216c0-0.552,0.447-0.999,1-0.999l0,0
			c0.553,0,1,0.447,1,1.001c-0.002,1.06,0.404,2.062,1.143,2.823c0.384,0.396,0.373,1.031-0.023,1.414
			C51.896,54.045,51.646,54.139,51.396,54.139z"/>
	</g>
	<g>
		<path d="M14.751,63.736c-0.166,0-0.359-0.03-0.585-0.106c-0.524-0.174-0.809-0.737-0.635-1.264
			c0.163-0.492,0.671-0.771,1.169-0.66c0.104-0.019,0.215-0.024,0.334-0.024c0.553,0,1,0.446,1,1c0,0.526-0.407,0.959-0.924,0.998
			C15.008,63.713,14.889,63.736,14.751,63.736z"/>
	</g>
	<g>
		<path d="M55.541,61.667c-6.617,0-12-5.383-12-11.999c0-6.617,5.383-12,12-12c5.688,0,12.021,1.461,12.287,1.521
			c0.834,0.195,1.451,0.899,1.535,1.752c0.045,0.44,1.008,10.865-4.35,16.779C62.643,60.338,59.454,61.667,55.541,61.667z
			 M55.541,41.667c-4.411,0-8,3.589-8,8s3.589,7.999,8,7.999c2.771,0,4.896-0.857,6.501-2.623c3.159-3.479,3.454-9.512,3.408-12.266
			C63.314,42.361,59.21,41.667,55.541,41.667z"/>
	</g>
	<g>
		<path d="M67.374,42.939c-1.101,0-1.995-0.791-2-1.891L65.207,5.097c-0.005-1.105,0.886-2.157,1.99-2.157c0.004,0,0.007,0,0.01,0
			c1.102,0,1.995,1.086,2,2.188l0.167,35.804c0.005,1.105-0.886,2.01-1.99,2.01C67.38,42.939,67.377,42.939,67.374,42.939z"/>
	</g>
	<g>
		<path d="M14.542,69.667c-6.617,0-12-5.383-12-12s5.383-11.999,12-11.999c5.688,0,12.021,1.461,12.287,1.521
			c0.834,0.195,1.452,0.899,1.536,1.752c0.044,0.44,1.007,10.865-4.351,16.779C21.642,68.338,18.455,69.667,14.542,69.667z
			 M14.542,49.667c-4.411,0-8,3.589-8,7.999c0,4.412,3.589,8,8,8c2.771,0,4.897-0.857,6.501-2.623
			c3.159-3.479,3.454-9.512,3.408-12.266C22.315,50.361,18.21,49.667,14.542,49.667z"/>
	</g>
	<g>
		<path d="M26.375,51.94c-1.101,0-1.995-0.791-2-1.893l-0.167-37.036c-0.005-1.104,0.887-2.072,1.991-2.072c0.003,0,0.006,0,0.009,0
			c1.101,0,1.995,1.002,2,2.104l0.167,36.932c0.005,1.104-0.887,1.965-1.991,1.965C26.38,51.94,26.377,51.94,26.375,51.94z"/>
	</g>
	<g>
		<path d="M26.206,14.165c-0.941,0-1.779-0.667-1.963-1.625c-0.207-1.085,0.505-2.132,1.59-2.34l41-7.832
			c1.092-0.202,2.133,0.506,2.34,1.59c0.207,1.085-0.505,2.132-1.59,2.34l-41,7.832C26.456,14.153,26.33,14.165,26.206,14.165z"/>
	</g>
	<g>
		<path d="M27.111,21.993c-0.941,0-1.779-0.666-1.963-1.625c-0.207-1.085,0.505-2.132,1.59-2.34l40.094-7.66
			c1.083-0.198,2.133,0.505,2.34,1.59s-0.505,2.132-1.59,2.34l-40.094,7.66C27.362,21.981,27.235,21.993,27.111,21.993z"/>
	</g>
</g>
</svg>
