<?xml version="1.0" encoding="utf-8"?>
<!-- Generator: Adobe Illustrator 16.0.3, SVG Export Plug-In . SVG Version: 6.00 Build 0)  -->
<!DOCTYPE svg PUBLIC "-//W3C//DTD SVG 1.1//EN" "http://www.w3.org/Graphics/SVG/1.1/DTD/svg11.dtd">
<svg version="1.1" id="Layer_1" xmlns="http://www.w3.org/2000/svg" xmlns:xlink="http://www.w3.org/1999/xlink" x="0px" y="0px"
	 width="300px" height="300px" viewBox="0 0 300 300" enable-background="new 0 0 300 300" xml:space="preserve">
<g opacity="0.2">
	<path fill="#1B1D29" d="M254.166,39.583c-21.666,0-39.582,17.917-39.582,39.583c0,15,8.75,28.333,21.25,35L215,173.75
		c-2.084-0.416-4.584-0.834-7.084-0.834c-6.25,0-11.666,1.25-17.082,3.75l-46.25-48.333c2.083-5,3.333-10.417,3.333-15.833
		c0-21.667-17.917-39.583-39.583-39.583c-21.667,0-39.583,17.917-39.583,39.583c0,12.083,5.417,23.333,14.167,30.417l-20,42.5
		c-5.417-2.5-11.25-4.166-17.5-4.166c-21.667,0-39.583,17.916-39.583,39.584c0,21.666,17.917,39.582,39.583,39.582
		C67.083,260.416,85,242.5,85,220.834c0-9.584-3.333-17.918-8.75-25l21.25-45.417c3.333,0.833,6.667,1.25,10.417,1.25
		c10,0,19.167-3.75,26.25-10l43.75,45c-5.832,7.084-9.166,15.834-9.166,25.418c0,21.666,17.916,39.582,39.584,39.582
		c21.666,0,39.582-17.916,39.582-39.582c0-13.334-6.666-25.418-17.082-32.5l21.25-61.25c0.832,0,1.666,0,2.082,0
		c21.668,0,39.584-17.917,39.584-39.583C293.75,57.5,275.834,39.583,254.166,39.583z M45.833,243.75
		c-12.5,0-22.917-10.416-22.917-22.916s10.417-22.918,22.917-22.918s22.917,10.418,22.917,22.918S58.333,243.75,45.833,243.75z
		 M108.333,135.417c-12.5,0-22.917-10.417-22.917-22.917s10.417-22.917,22.917-22.917S131.25,100,131.25,112.5
		S120.833,135.417,108.333,135.417z M208.334,235.416c-12.5,0-22.918-10.416-22.918-22.916s10.418-22.916,22.918-22.916
		S231.25,200,231.25,212.5S220.834,235.416,208.334,235.416z M254.166,102.083c-12.5,0-22.916-10.417-22.916-22.917
		s10.416-22.917,22.916-22.917s22.918,10.417,22.918,22.917S266.666,102.083,254.166,102.083z"/>
	<path fill="#1B1D29" d="M258.334,62.5c-7.084,0-13.334,3.333-17.084,9.167c-1.25,2.083-0.834,4.583,1.25,5.833
		c0.834,0.417,1.666,0.833,2.5,0.833c1.25,0,2.5-0.833,3.334-1.667c2.082-3.75,5.832-5.833,10-5.833c2.5,0,4.166-1.667,4.166-4.167
		C262.5,64.583,260.834,62.5,258.334,62.5z"/>
</g>
</svg>
