<?xml version="1.0" encoding="utf-8"?>
<!-- Generator: Adobe Illustrator 16.0.0, SVG Export Plug-In . SVG Version: 6.00 Build 0)  -->
<!DOCTYPE svg PUBLIC "-//W3C//DTD SVG 1.1//EN" "http://www.w3.org/Graphics/SVG/1.1/DTD/svg11.dtd">
<svg version="1.1" id="Layer_1" xmlns="http://www.w3.org/2000/svg" xmlns:xlink="http://www.w3.org/1999/xlink" x="0px" y="0px"
	 width="72px" height="72px" viewBox="0 0 72 72" enable-background="new 0 0 72 72" xml:space="preserve">
<g>
	<g>
		<path d="M62,62.069C62,65.897,58.896,69,55.068,69H16.932C13.104,69,10,65.897,10,62.069V15.932C10,12.104,13.104,9,16.932,9
			h38.137C58.896,9,62,12.104,62,15.932V62.069z M58,15.932C58,14.313,56.688,13,55.068,13H16.932C15.313,13,14,14.313,14,15.932
			v46.137C14,63.688,15.313,65,16.932,65h38.137C56.688,65,58,63.688,58,62.069V15.932z"/>
	</g>
	<g>
		<g>
			<path d="M50.521,62H34.119c-0.553,0-1-0.447-1-1s0.447-1,1-1h16.402C52.1,60,53,58.11,53,55.184V52c0-0.553,0.447-1,1-1
				c0.552,0,1,0.447,1,1v3.184C55,59.325,53.314,62,50.521,62z"/>
		</g>
		<g>
			<path d="M54.238,47.95c-0.26,0-0.52-0.1-0.71-0.289c-0.18-0.182-0.29-0.441-0.29-0.711c0-0.26,0.11-0.52,0.29-0.699
				c0.381-0.371,1.04-0.381,1.42-0.01c0.181,0.189,0.29,0.449,0.29,0.709s-0.109,0.52-0.29,0.711
				C54.759,47.85,54.499,47.95,54.238,47.95z"/>
		</g>
	</g>
	<g>
		<g>
			<path d="M20,20c-1.104,0-2-0.896-2-2V5c0-1.104,0.896-2,2-2s2,0.896,2,2v13C22,19.104,21.104,20,20,20z"/>
		</g>
		<g>
			<path d="M31,20c-1.104,0-2-0.896-2-2V5c0-1.104,0.896-2,2-2s2,0.896,2,2v13C33,19.104,32.104,20,31,20z"/>
		</g>
		<g>
			<path d="M42,20c-1.104,0-2-0.896-2-2V5c0-1.104,0.896-2,2-2s2,0.896,2,2v13C44,19.104,43.104,20,42,20z"/>
		</g>
		<g>
			<path d="M53,20c-1.104,0-2-0.896-2-2V5c0-1.104,0.896-2,2-2s2,0.896,2,2v13C55,19.104,54.104,20,53,20z"/>
		</g>
	</g>
	<g>
		<path d="M60.119,28h-48c-0.553,0-1-0.447-1-1s0.447-1,1-1h48c0.552,0,1,0.447,1,1S60.671,28,60.119,28z"/>
	</g>
</g>
</svg>
