<?xml version="1.0" encoding="utf-8"?>
<!-- Generator: Adobe Illustrator 16.0.0, SVG Export Plug-In . SVG Version: 6.00 Build 0)  -->
<!DOCTYPE svg PUBLIC "-//W3C//DTD SVG 1.1//EN" "http://www.w3.org/Graphics/SVG/1.1/DTD/svg11.dtd">
<svg version="1.1" id="Layer_1" xmlns="http://www.w3.org/2000/svg" xmlns:xlink="http://www.w3.org/1999/xlink" x="0px" y="0px"
	 width="72px" height="72px" viewBox="0 0 72 72" enable-background="new 0 0 72 72" xml:space="preserve">
<g>
	<g>
		<g>
			<path d="M22.691,68.98c-2.248,0-4.103-1.43-6.74-4.068l-7.777-7.777c-2.624-2.623-4.184-4.598-4.392-6.928
				c-0.251-2.814,1.675-5.162,3.794-7.281l27.453-28.454c0.373-0.386,0.885-0.606,1.422-0.611c0.583-0.008,1.053,0.207,1.432,0.586
				l19.092,19.092c0.771,0.771,0.782,2.018,0.025,2.803L29.521,64.82C27.234,67.107,25.161,68.98,22.691,68.98z M36.494,18.714
				L10.43,45.728c-1.933,1.932-2.746,3.197-2.663,4.123c0.104,1.176,1.617,2.836,3.235,4.455l7.777,7.777
				c1.432,1.432,3.017,2.896,3.912,2.896c0.894,0,2.512-1.498,3.977-2.963l26.089-27.04L36.494,18.714z"/>
		</g>
		<g>
			<path d="M53.705,33.683c-0.512,0-1.023-0.195-1.414-0.586c-0.781-0.781-0.781-2.047,0-2.828l9.105-9.104
				c1.044-1.045,2.792-2.793,2.839-3.538c0.046-0.735-1.876-2.657-2.507-3.289l-4.814-4.746c-1.229-1.229-2.74-2.57-3.521-2.57
				c-0.002,0-0.005,0-0.007,0c-0.88,0-2.765,1.826-3.57,2.632l-9.105,9.069c-0.781,0.781-2.047,0.765-2.828-0.017
				s-0.781-2.055,0-2.836l9.105-9.041c2.103-2.104,4.032-3.808,6.354-3.808c0.019,0,0.037,0,0.056,0
				c2.127,0,3.875,1.274,6.344,3.742l4.814,4.779c5.278,5.279,4.632,7.503-0.332,12.467l-9.105,9.097
				C54.729,33.496,54.217,33.683,53.705,33.683z"/>
		</g>
	</g>
	<g>
		<g>
			<path d="M46.454,19.597c-0.261,0-0.521-0.1-0.71-0.29c-0.181-0.18-0.29-0.439-0.29-0.71c0-0.26,0.109-0.52,0.3-0.71
				c0.359-0.36,1.03-0.37,1.41,0c0.189,0.19,0.29,0.45,0.29,0.71c0,0.271-0.101,0.521-0.29,0.71
				C46.974,19.497,46.724,19.597,46.454,19.597z"/>
		</g>
		<g>
			<path d="M49.196,16.86c-0.256,0-0.512-0.098-0.707-0.293c-0.391-0.391-0.391-1.023,0-1.414l4.95-4.949
				c0.391-0.391,1.023-0.391,1.414,0s0.391,1.023,0,1.414l-4.95,4.949C49.708,16.763,49.452,16.86,49.196,16.86z"/>
		</g>
		<g>
			<path d="M49.196,22.518c-0.256,0-0.512-0.098-0.707-0.293c-0.391-0.391-0.391-1.023,0-1.414l7.778-7.778
				c0.391-0.391,1.023-0.391,1.414,0s0.391,1.023,0,1.414l-7.778,7.778C49.708,22.42,49.452,22.518,49.196,22.518z"/>
		</g>
		<g>
			<path d="M52.025,25.346c-0.256,0-0.512-0.098-0.707-0.293c-0.391-0.391-0.391-1.023,0-1.414l7.777-7.778
				c0.391-0.391,1.023-0.391,1.414,0s0.391,1.023,0,1.414l-7.777,7.778C52.537,25.248,52.281,25.346,52.025,25.346z"/>
		</g>
	</g>
</g>
</svg>
