<?xml version="1.0" encoding="utf-8"?>
<!-- Generator: Adobe Illustrator 16.0.0, SVG Export Plug-In . SVG Version: 6.00 Build 0)  -->
<!DOCTYPE svg PUBLIC "-//W3C//DTD SVG 1.1//EN" "http://www.w3.org/Graphics/SVG/1.1/DTD/svg11.dtd">
<svg version="1.1" id="Layer_1" xmlns="http://www.w3.org/2000/svg" xmlns:xlink="http://www.w3.org/1999/xlink" x="0px" y="0px"
	 width="72px" height="72px" viewBox="0 0 72 72" enable-background="new 0 0 72 72" xml:space="preserve">
<g>
	<g>
		<g>
			<path d="M36.119,53.727c-7.857,0-14.25-6.393-14.25-14.25c0-7.858,6.393-14.25,14.25-14.25s14.25,6.393,14.25,14.25
				C50.369,47.334,43.977,53.727,36.119,53.727z M36.119,27.227c-6.755,0-12.25,5.495-12.25,12.25c0,6.754,5.495,12.25,12.25,12.25
				s12.25-5.496,12.25-12.25C48.369,32.722,42.874,27.227,36.119,27.227z"/>
		</g>
		<g>
			<path d="M28.785,36.617c-0.174,0-0.35-0.045-0.51-0.141c-0.475-0.281-0.631-0.896-0.35-1.37c1.959-3.298,5.556-5.347,9.389-5.347
				c0.552,0,1,0.447,1,1s-0.448,1-1,1c-3.131,0-6.068,1.674-7.669,4.368C29.459,36.442,29.126,36.617,28.785,36.617z"/>
		</g>
		<g>
			<path d="M27.402,41.327c-0.553,0-1-0.447-1-1c0-0.879,0.104-1.365,0.286-2.146c0.125-0.539,0.659-0.871,1.201-0.746
				c0.537,0.125,0.872,0.662,0.746,1.201c-0.162,0.693-0.233,1.027-0.233,1.691C28.402,40.879,27.954,41.327,27.402,41.327z"/>
		</g>
	</g>
	<g>
		<path d="M61.688,64H10.551C6.592,64,3.5,60.786,3.5,57.045V25.908C3.5,22.199,6.522,19,10.551,19h4.829l3.455-6.918
			c0.038-0.077,0.082-0.136,0.13-0.207c2.375-3.54,4.818-3.861,7.117-3.861L27.424,8h16.808c3.774,0,6.522,1.258,8.401,3.777
			c0.049,0.065,0.094,0.118,0.134,0.189L56.781,19h4.906c3.727,0,6.813,2.943,6.813,6.908v31.137C68.5,61.047,65.354,64,61.688,64z
			 M10.551,23C8.964,23,7.5,24.308,7.5,25.908v31.137C7.5,58.569,8.818,60,10.551,60h51.137c1.671,0,2.813-1.5,2.813-2.955V25.908
			c0-1.374-1.02-2.908-2.813-2.908h-6.068c-0.719,0-1.383-0.353-1.738-0.978l-4.524-7.929c-1.11-1.432-2.651-2.035-5.125-2.035
			l-18.149-0.007c-1.556,0-2.44,0.091-3.726,1.963l-3.946,7.908C18.072,22.603,17.378,23,16.619,23H10.551z"/>
	</g>
	<g>
		<path d="M66.119,34H48.12c-0.553,0-1-0.447-1-1s0.447-1,1-1h17.999c0.552,0,1,0.447,1,1S66.671,34,66.119,34z"/>
	</g>
	<g>
		<path d="M24.119,34h-19c-0.553,0-1-0.447-1-1s0.447-1,1-1h19c0.552,0,1,0.447,1,1S24.671,34,24.119,34z"/>
	</g>
	<g>
		<path d="M52.119,48h-5c-0.553,0-1-0.447-1-1s0.447-1,1-1h5c0.552,0,1,0.447,1,1S52.671,48,52.119,48z"/>
	</g>
	<g>
		<path d="M56.119,48h-1c-0.553,0-1-0.447-1-1s0.447-1,1-1h1c0.552,0,1,0.447,1,1S56.671,48,56.119,48z"/>
	</g>
	<g>
		<path d="M65.119,48h-6c-0.553,0-1-0.447-1-1s0.447-1,1-1h6c0.552,0,1,0.447,1,1S65.671,48,65.119,48z"/>
	</g>
	<g>
		<path d="M24.119,48h-19c-0.553,0-1-0.447-1-1s0.447-1,1-1h19c0.552,0,1,0.447,1,1S24.671,48,24.119,48z"/>
	</g>
</g>
</svg>
