<?xml version="1.0" encoding="utf-8"?>
<!-- Generator: Adobe Illustrator 16.0.0, SVG Export Plug-In . SVG Version: 6.00 Build 0)  -->
<!DOCTYPE svg PUBLIC "-//W3C//DTD SVG 1.1//EN" "http://www.w3.org/Graphics/SVG/1.1/DTD/svg11.dtd">
<svg version="1.1" id="Layer_1" xmlns="http://www.w3.org/2000/svg" xmlns:xlink="http://www.w3.org/1999/xlink" x="0px" y="0px"
	 width="72px" height="72px" viewBox="0 0 72 72" enable-background="new 0 0 72 72" xml:space="preserve">
<g>
	<g>
		<path d="M36.12,34.308c-2.455,0-4.763-0.956-6.5-2.691c-3.582-3.582-3.582-9.41,0-12.992c1.735-1.735,4.044-2.691,6.498-2.691l0,0
			c2.455,0,4.764,0.956,6.498,2.691c3.582,3.582,3.582,9.41,0,12.992C40.882,33.352,38.573,34.308,36.12,34.308z M36.118,19.933
			c-1.385,0-2.688,0.539-3.669,1.52c-2.022,2.022-2.022,5.313,0,7.336c0.981,0.979,2.285,1.52,3.671,1.52
			c1.385,0,2.688-0.54,3.668-1.52c2.021-2.022,2.021-5.313,0-7.336C38.808,20.472,37.505,19.933,36.118,19.933z"/>
	</g>
	<g>
		<g>
			<path d="M49.347,23.054c-0.453,0-0.863-0.31-0.973-0.771c-0.074-0.318-0.125-0.55-0.162-0.729
				c-0.066-0.307-0.084-0.383-0.131-0.49c-0.217-0.508,0.018-1.096,0.523-1.314c0.506-0.213,1.096,0.016,1.314,0.523
				c0.125,0.291,0.172,0.506,0.248,0.861c0.037,0.169,0.084,0.388,0.154,0.689c0.127,0.537-0.205,1.076-0.744,1.203
				C49.501,23.045,49.423,23.054,49.347,23.054z"/>
		</g>
		<g>
			<path d="M47.538,18.753c-0.332,0-0.656-0.164-0.846-0.464c-2.07-3.264-5.449-5.435-9.271-5.955
				c-0.549-0.075-0.932-0.579-0.857-1.126c0.076-0.548,0.576-0.929,1.127-0.856c4.408,0.602,8.305,3.104,10.691,6.865
				c0.295,0.467,0.156,1.085-0.309,1.381C47.905,18.703,47.722,18.753,47.538,18.753z"/>
		</g>
	</g>
	<g>
		<path d="M36.099,68.738c-1.672,0-4.86-0.76-7.442-5.85c-2.992-5.896-14.13-30.427-14.13-38.153
			c0-11.84,9.633-21.473,21.474-21.473c11.84,0,21.473,9.633,21.473,21.473c0,7.64-11.109,32.485-13.947,38.145
			C41.632,66.658,38.995,68.738,36.099,68.738z M36.001,7.263c-9.635,0-17.474,7.838-17.474,17.473
			c0,6.07,9.722,28.508,13.697,36.342c1.18,2.326,2.591,3.66,3.875,3.66c1.266,0,2.707-1.365,3.852-3.65
			c3.477-6.93,13.523-30.19,13.523-36.352C53.474,15.101,45.636,7.263,36.001,7.263z"/>
	</g>
</g>
</svg>
