<?xml version="1.0" encoding="utf-8"?>
<!-- Generator: Adobe Illustrator 16.0.0, SVG Export Plug-In . SVG Version: 6.00 Build 0)  -->
<!DOCTYPE svg PUBLIC "-//W3C//DTD SVG 1.1//EN" "http://www.w3.org/Graphics/SVG/1.1/DTD/svg11.dtd">
<svg version="1.1" id="Layer_1" xmlns="http://www.w3.org/2000/svg" xmlns:xlink="http://www.w3.org/1999/xlink" x="0px" y="0px"
	 width="72px" height="72px" viewBox="0 0 72 72" enable-background="new 0 0 72 72" xml:space="preserve">
<g>
	<g>
		<path d="M68.5,61.069c0,3.828-3.104,6.932-6.932,6.932H10.432C6.604,68,3.5,64.897,3.5,61.069V23.932
			C3.5,20.104,6.604,17,10.432,17h51.137c3.828,0,6.932,3.104,6.932,6.932V61.069z M64.5,23.932c0-1.619-1.313-2.932-2.932-2.932
			H10.432C8.813,21,7.5,22.313,7.5,23.932v37.137C7.5,62.688,8.813,64,10.432,64h51.137c1.619,0,2.932-1.313,2.932-2.932V23.932z"/>
	</g>
	<g>
		<path d="M44.5,21c-1.104,0-2-0.896-2-2v-8.786C42.5,8.384,40.126,8,38.864,8h-7.137C31.41,8,29.5,8.063,29.5,10.215V19
			c0,1.104-0.896,2-2,2s-2-0.896-2-2v-8.786C25.5,6.613,27.615,4,31.728,4h7.137c3.983,0,7.636,2.556,7.636,6.215V19
			C46.5,20.104,45.604,21,44.5,21z"/>
	</g>
	<g>
		<path d="M29.631,43h-13c-0.553,0-1-0.447-1-1s0.447-1,1-1h13c0.553,0,1,0.447,1,1S30.184,43,29.631,43z"/>
	</g>
	<g>
		<path d="M10.63,43h-5c-0.553,0-1-0.447-1-1s0.447-1,1-1h5c0.553,0,1,0.447,1,1S11.183,43,10.63,43z"/>
	</g>
	<g>
		<path d="M66.631,43h-25c-0.553,0-1-0.447-1-1s0.447-1,1-1h25c0.553,0,1,0.447,1,1S67.184,43,66.631,43z"/>
	</g>
	<g>
		<path d="M42.5,44.93c0,2.248-1.822,4.07-4.07,4.07H33.57c-2.248,0-4.07-1.822-4.07-4.07v-4.859c0-2.248,1.822-4.07,4.07-4.07
			h4.859c2.248,0,4.07,1.822,4.07,4.07V44.93z M40.5,40.071c0-1.145-0.927-2.07-2.07-2.07H33.57c-1.144,0-2.07,0.926-2.07,2.07
			v4.859c0,1.143,0.927,2.07,2.07,2.07h4.859c1.144,0,2.07-0.928,2.07-2.07V40.071z"/>
	</g>
</g>
</svg>
