<?xml version="1.0" encoding="utf-8"?>
<!-- Generator: Adobe Illustrator 16.0.0, SVG Export Plug-In . SVG Version: 6.00 Build 0)  -->
<!DOCTYPE svg PUBLIC "-//W3C//DTD SVG 1.1//EN" "http://www.w3.org/Graphics/SVG/1.1/DTD/svg11.dtd">
<svg version="1.1" id="Layer_1" xmlns="http://www.w3.org/2000/svg" xmlns:xlink="http://www.w3.org/1999/xlink" x="0px" y="0px"
	 width="72px" height="72px" viewBox="0 0 72 72" enable-background="new 0 0 72 72" xml:space="preserve">
<g>
	<g>
		<g>
			<path d="M61.688,58h-5.066c-1.104,0-2-0.896-2-2c0-1.105,0.896-2,2-2h5.066C63.223,54,65,52.452,65,50.752V25.616
				C65,23.898,63.145,23,61.688,23H9.551C8.094,23,7,23.898,7,25.616v25.136C7,52.452,8.017,54,9.551,54h6.068c1.104,0,2,0.895,2,2
				c0,1.104-0.896,2-2,2H9.551C5.793,58,3,54.682,3,50.752V25.616C3,21.845,5.599,19,9.551,19h52.137C65.639,19,69,21.845,69,25.616
				v25.136C69,54.682,65.443,58,61.688,58z"/>
		</g>
	</g>
	<g>
		<g>
			<path d="M58,62.068C58,65.896,54.896,69,51.068,69H20.932C17.104,69,14,65.896,14,62.068V48.932C14,45.104,17.104,42,20.932,42
				h30.136C54.896,42,58,45.104,58,48.932V62.068z M54,48.932C54,47.313,52.688,46,51.068,46H20.932C19.313,46,18,47.313,18,48.932
				v13.137C18,63.688,19.313,65,20.932,65h30.136C52.688,65,54,63.688,54,62.068V48.932z"/>
		</g>
	</g>
	<g>
		<g>
			<path d="M56,23c-1.104,0-2-0.896-2-2V9.616C54,7.898,52.145,7,50.688,7H20.551C19.094,7,18,7.898,18,9.616V21
				c0,1.104-0.896,2-2,2s-2-0.896-2-2V9.616C14,5.845,16.599,3,20.551,3h30.137C54.639,3,58,5.845,58,9.616V21
				C58,22.104,57.104,23,56,23z"/>
		</g>
	</g>
	<g>
		<path d="M15.619,29h-3c-0.553,0-1-0.447-1-1s0.447-1,1-1h3c0.552,0,1,0.447,1,1S16.171,29,15.619,29z"/>
	</g>
	<g>
		<path d="M22.619,29h-3c-0.553,0-1-0.447-1-1s0.447-1,1-1h3c0.552,0,1,0.447,1,1S23.171,29,22.619,29z"/>
	</g>
	<g>
		<path d="M55.619,38h-40c-0.553,0-1-0.447-1-1c0-0.553,0.447-1,1-1h40c0.552,0,1,0.447,1,1C56.619,37.553,56.171,38,55.619,38z"/>
	</g>
</g>
</svg>
