<?xml version="1.0" encoding="utf-8"?>
<!-- Generator: Adobe Illustrator 16.0.0, SVG Export Plug-In . SVG Version: 6.00 Build 0)  -->
<!DOCTYPE svg PUBLIC "-//W3C//DTD SVG 1.1//EN" "http://www.w3.org/Graphics/SVG/1.1/DTD/svg11.dtd">
<svg version="1.1" id="Layer_1" xmlns="http://www.w3.org/2000/svg" xmlns:xlink="http://www.w3.org/1999/xlink" x="0px" y="0px"
	 width="72px" height="72px" viewBox="0 0 72 72" enable-background="new 0 0 72 72" xml:space="preserve">
<g>
	<g>
		<path d="M50.18,69h-30c-7.207,0-9.68-1.338-9.68-9.625V27c0-1.104,0.896-2,2-2s2,0.896,2,2v32.375c0,5.256-0.133,5.625,5.68,5.625
			h30c5.618,0,6.32-0.158,6.32-5.625V27c0-1.104,0.896-2,2-2s2,0.896,2,2v32.375C60.5,67.021,57.949,69,50.18,69z"/>
	</g>
	<g>
		<path d="M49.5,16c-1.104,0-2-0.896-2-2v-0.625C47.5,7.596,46.42,7,41.18,7h-12c-5.464,0-5.68,0.774-5.68,6.375V14
			c0,1.104-0.896,2-2,2s-2-0.896-2-2v-0.625C19.5,5.618,21.539,3,29.18,3h12C49.496,3,51.5,6.346,51.5,13.375V14
			C51.5,15.104,50.604,16,49.5,16z"/>
	</g>
	<g>
		<g>
			<path d="M23.5,59c-0.553,0-1-0.448-1-1v-2c0-0.553,0.447-1,1-1s1,0.447,1,1v2C24.5,58.552,24.053,59,23.5,59z"/>
		</g>
		<g>
			<path d="M23.5,52c-0.553,0-1-0.448-1-1V34c0-0.552,0.447-1,1-1s1,0.448,1,1v17C24.5,51.552,24.053,52,23.5,52z"/>
		</g>
		<g>
			<path d="M35.5,59c-0.553,0-1-0.448-1-1V34c0-0.552,0.447-1,1-1s1,0.448,1,1v24C36.5,58.552,36.053,59,35.5,59z"/>
		</g>
		<g>
			<path d="M47.5,59c-0.553,0-1-0.448-1-1V34c0-0.552,0.447-1,1-1s1,0.448,1,1v24C48.5,58.552,48.053,59,47.5,59z"/>
		</g>
	</g>
	<g>
		<path d="M68.5,20.75c0,4.556-3.693,8.25-8.25,8.25h-48.5c-4.557,0-8.25-3.694-8.25-8.25v-0.5c0-4.556,3.693-8.25,8.25-8.25h48.5
			c4.557,0,8.25,3.694,8.25,8.25V20.75z M64.5,20.25c0-2.347-1.902-4.25-4.25-4.25h-48.5c-2.348,0-4.25,1.903-4.25,4.25v0.5
			c0,2.347,1.902,4.25,4.25,4.25h48.5c2.348,0,4.25-1.903,4.25-4.25V20.25z"/>
	</g>
</g>
</svg>
