<?xml version="1.0" encoding="utf-8"?>
<!-- Generator: Adobe Illustrator 16.0.0, SVG Export Plug-In . SVG Version: 6.00 Build 0)  -->
<!DOCTYPE svg PUBLIC "-//W3C//DTD SVG 1.1//EN" "http://www.w3.org/Graphics/SVG/1.1/DTD/svg11.dtd">
<svg version="1.1" id="Layer_1" xmlns="http://www.w3.org/2000/svg" xmlns:xlink="http://www.w3.org/1999/xlink" x="0px" y="0px"
	 width="72px" height="72px" viewBox="0 0 72 72" enable-background="new 0 0 72 72" xml:space="preserve">
<g>
	<g>
		<path d="M36,68.482C18.09,68.482,3.518,53.91,3.518,36C3.518,18.089,18.09,3.518,36,3.518c17.91,0,32.482,14.571,32.482,32.482
			C68.482,53.91,53.91,68.482,36,68.482z M36,7.518C20.295,7.518,7.518,20.295,7.518,36c0,15.705,12.777,28.482,28.482,28.482
			c15.705,0,28.482-12.777,28.482-28.482C64.482,20.295,51.705,7.518,36,7.518z"/>
	</g>
	<g>
		<path d="M60.148,37c-0.551,0-1-0.447-1-1c0-10.407-7.002-19.59-17.029-22.331c-0.531-0.146-0.846-0.695-0.701-1.229
			c0.146-0.532,0.695-0.843,1.229-0.701C53.541,14.718,61.148,24.694,61.148,36C61.148,36.553,60.701,37,60.148,37z"/>
	</g>
	<g>
		<path d="M37.35,12.888c-0.02,0-0.037,0-0.057-0.002c-0.428-0.023-0.859-0.035-1.292-0.035c-0.552,0-1-0.447-1-1s0.448-1,1-1
			c0.47,0,0.937,0.014,1.402,0.039c0.553,0.029,0.975,0.501,0.945,1.053C38.318,12.475,37.877,12.888,37.35,12.888z"/>
	</g>
	<g>
		<g>
			<path d="M30.643,45.127L30.643,45.127c-0.533,0-1.08-0.154-1.582-0.443L18.48,38.166c-0.859-0.494-1.367-1.268-1.367-2.108
				c-0.001-0.875,0.542-1.691,1.489-2.239l10.38-6.483c0.531-0.308,1.431-0.461,1.971-0.461c1.495,0,2.929,1.103,2.929,2.623v13.004
				c0,0.75-0.613,1.428-1.096,1.906C32.321,44.871,31.334,45.127,30.643,45.127z M30.953,28.875c-0.189,0-0.569,0.061-0.767,0.175
				l-10.466,6.483c-0.387,0.225-0.564,0.438-0.563,0.523c0,0.067,0.082,0.227,0.37,0.393l10.569,6.518
				c0.174,0.1,0.37,0.16,0.553,0.16l0,0c0.113,0,0.618-0.023,0.73-0.137c0.13-0.129,0.503-0.336,0.503-0.488V29.498
				C31.881,28.982,31.217,28.875,30.953,28.875z"/>
		</g>
		<g>
			<path d="M45.871,45.127L45.871,45.127c-0.502,0-1.014-0.15-1.523-0.443L34.043,38.16c-0.874-0.504-1.396-1.295-1.396-2.149
				c-0.001-0.861,0.527-1.66,1.447-2.192l10.558-6.48c2.021-1.17,4.229,0.045,4.229,2.159v13.004c0,0.732-0.557,1.369-0.951,1.84
				C47.506,44.848,46.551,45.127,45.871,45.127z M46.215,28.875c-0.084,0-0.438,0.022-0.701,0.175l-10.296,6.48
				c-0.363,0.211-0.527,0.399-0.527,0.48c0,0.076,0.093,0.256,0.41,0.438l10.292,6.524c0.229,0.131,0.402,0.154,0.484,0.154
				c0,0-0.002,0,0,0c0.109,0,0.494-0.037,0.521-0.07c0.086-0.1,0.482-0.309,0.482-0.555V29.498
				C46.881,29.213,46.479,28.875,46.215,28.875z"/>
		</g>
	</g>
</g>
</svg>
