<?xml version="1.0" encoding="utf-8"?>
<!-- Generator: Adobe Illustrator 16.0.0, SVG Export Plug-In . SVG Version: 6.00 Build 0)  -->
<!DOCTYPE svg PUBLIC "-//W3C//DTD SVG 1.1//EN" "http://www.w3.org/Graphics/SVG/1.1/DTD/svg11.dtd">
<svg version="1.1" id="Layer_1" xmlns="http://www.w3.org/2000/svg" xmlns:xlink="http://www.w3.org/1999/xlink" x="0px" y="0px"
	 width="72px" height="72px" viewBox="0 0 72 72" enable-background="new 0 0 72 72" xml:space="preserve">
<g>
	<g>
		<path d="M28.131,52.964c-13.509,0-24.5-10.99-24.5-24.499c0-13.51,10.991-24.5,24.5-24.5c13.51,0,24.5,10.99,24.5,24.5
			C52.632,41.974,41.642,52.964,28.131,52.964z M28.131,7.965c-11.304,0-20.5,9.196-20.5,20.5s9.196,20.499,20.5,20.499
			c11.303,0,20.5-9.195,20.5-20.499S39.435,7.965,28.131,7.965z"/>
	</g>
	<g>
		<path d="M13.648,20.881c-0.174,0-0.35-0.045-0.51-0.141c-0.475-0.281-0.631-0.896-0.349-1.37c3.201-5.39,9.08-8.738,15.342-8.738
			c0.553,0,1,0.447,1,1s-0.447,1-1,1c-5.56,0-10.779,2.974-13.622,7.76C14.322,20.707,13.99,20.881,13.648,20.881z"/>
	</g>
	<g>
		<path d="M11.298,28.879c-0.552,0-1-0.447-1-1c0-1.42,0.169-2.211,0.468-3.487c0.126-0.538,0.664-0.87,1.201-0.746
			c0.538,0.126,0.872,0.663,0.746,1.201c-0.28,1.198-0.415,1.827-0.415,3.032C12.298,28.432,11.851,28.879,11.298,28.879z"/>
	</g>
	<g>
		<path d="M62.37,68.035c-1.604,0-3.109-0.623-4.244-1.756L41.985,50.136c-1.252-1.252-1.664-2.799-1.162-4.357
			c0.41-1.268,1.371-2.338,2.162-3.127c1.172-1.172,2.613-2.371,4.422-2.371c0.771,0,1.93,0.238,3.063,1.371l16.143,16.141
			c1.133,1.135,1.756,2.641,1.756,4.244c0,1.602-0.623,3.109-1.756,4.242C65.478,67.412,63.972,68.035,62.37,68.035z M44.614,47.076
			c0.006,0,0.059,0.094,0.199,0.232l16.141,16.143c0.756,0.754,2.074,0.754,2.83,0c0.377-0.379,0.584-0.881,0.584-1.414
			c0-0.535-0.207-1.037-0.586-1.416L47.642,44.48c-0.143-0.143-0.236-0.195-0.262-0.203c-0.014,0.008-0.426,0.061-1.566,1.203
			C44.671,46.621,44.616,47.033,44.614,47.076L44.614,47.076z"/>
	</g>
</g>
</svg>
