<?xml version="1.0" encoding="utf-8"?>
<!-- Generator: Adobe Illustrator 18.0.0, SVG Export Plug-In . SVG Version: 6.00 Build 0)  -->
<!DOCTYPE svg PUBLIC "-//W3C//DTD SVG 1.1//EN" "http://www.w3.org/Graphics/SVG/1.1/DTD/svg11.dtd">
<svg version="1.1" id="Layer_1" xmlns="http://www.w3.org/2000/svg" xmlns:xlink="http://www.w3.org/1999/xlink" x="0px" y="0px"
	 viewBox="0 0 72 72" enable-background="new 0 0 72 72" xml:space="preserve">
<g>
	<path d="M48.1,14.8c0.3,0,0.6-0.2,0.8-0.4c0.9-1.3,2.3-2,3.8-2c0.6,0,1-0.4,1-1c0-0.6-0.4-1-1-1c-2.2,0-4.2,1.1-5.5,2.9
		c-0.3,0.5-0.2,1.1,0.3,1.4C47.7,14.8,47.9,14.8,48.1,14.8z"/>
	<path d="M12.5,32.1c-0.5-0.1-1.1,0.3-1.2,0.8c-0.1,0.4-0.1,0.5-0.1,0.8l0,0.2c0,0.6,0.4,1,1,1c0.6,0,1-0.4,1-1c0-0.1,0-0.2,0-0.3
		c0-0.1,0-0.1,0-0.3C13.4,32.8,13.1,32.3,12.5,32.1z"/>
	<path d="M18.7,26.6c-2.5,0-4.7,1.2-6.1,3.3c-0.3,0.5-0.2,1.1,0.3,1.4c0.2,0.1,0.4,0.2,0.6,0.2c0.3,0,0.6-0.2,0.8-0.4
		c1-1.5,2.7-2.4,4.5-2.4c0.6,0,1-0.4,1-1C19.7,27,19.2,26.6,18.7,26.6z"/>
	<path d="M51.7,36.3c-5.8,0-10.9,3.2-13.6,8L31,40.8c1.1-2,1.8-4.3,1.8-6.8c0-1.6-0.3-3.1-0.7-4.5l10.9-4.7c2.3,2.9,5.8,4.7,9.8,4.7
		c6.9,0,12.5-5.6,12.5-12.5c0-6.9-5.6-12.5-12.5-12.5c-6.9,0-12.5,5.6-12.5,12.5c0,1.5,0.3,3,0.8,4.3l-10.8,4.6
		c-2.5-3.6-6.7-6-11.5-6c-7.7,0-14,6.3-14,14c0,7.7,6.3,14,14,14c3.8,0,7.3-1.5,9.8-4l8.1,4c-0.3,1.3-0.5,2.6-0.5,4
		c0,8.6,7,15.7,15.7,15.7c8.6,0,15.7-7,15.7-15.7S60.3,36.3,51.7,36.3z M52.7,8.4c4.7,0,8.5,3.8,8.5,8.5c0,4.7-3.8,8.5-8.5,8.5
		c-4.7,0-8.5-3.8-8.5-8.5C44.1,12.2,48,8.4,52.7,8.4z M18.7,44c-5.5,0-10-4.5-10-10s4.5-10,10-10s10,4.5,10,10
		C28.7,39.5,24.2,44,18.7,44z M51.7,63.6c-6.4,0-11.7-5.2-11.7-11.7s5.2-11.7,11.7-11.7s11.7,5.2,11.7,11.7S58.1,63.6,51.7,63.6z"/>
	<path d="M50.7,42.7c-2.7,0-5.3,1.4-6.8,3.6c-0.3,0.5-0.2,1.1,0.3,1.4c0.2,0.1,0.4,0.2,0.6,0.2c0.3,0,0.6-0.2,0.8-0.4
		c1.2-1.7,3.1-2.8,5.2-2.8c0.6,0,1-0.4,1-1C51.7,43.2,51.2,42.7,50.7,42.7z"/>
</g>
</svg>
