<?xml version="1.0" encoding="utf-8"?>
<!-- Generator: Adobe Illustrator 16.0.0, SVG Export Plug-In . SVG Version: 6.00 Build 0)  -->
<!DOCTYPE svg PUBLIC "-//W3C//DTD SVG 1.1//EN" "http://www.w3.org/Graphics/SVG/1.1/DTD/svg11.dtd">
<svg version="1.1" id="Layer_1" xmlns="http://www.w3.org/2000/svg" xmlns:xlink="http://www.w3.org/1999/xlink" x="0px" y="0px"
	 width="72px" height="72px" viewBox="0 0 72 72" enable-background="new 0 0 72 72" xml:space="preserve">
<g>
	<g>
		<path d="M35.47,69.513c-0.192,0-0.112-0.027-0.3-0.084C34.05,69.095,8,61.039,8,44.104v-28.61c0-1.104,0.622-2,1.727-2
			c4.977,0,8.949-4.054,9.022-9.032c0.017-1.094,0.77-1.975,1.864-1.975h29.684c1.093,0,1.983,0.881,2,1.975
			c0.073,4.979,4.454,9.03,9.431,9.03c1.104,0,2.273,0.897,2.273,2.002v28.62c0,14.835-26.439,24.853-27.553,25.271
			C36.22,69.47,35.708,69.513,35.47,69.513z M12,17.341v26.763c0,12.71,20.097,20.007,23.954,21.288
			C43.226,62.519,60,53.837,60,44.114V17.341c-6-0.864-10.592-4.854-11.525-10.854H22.434C21.499,12.487,17,16.477,12,17.341z"/>
	</g>
	<g>
		<g>
			<path d="M25.641,57.232c-0.151,0-0.304-0.033-0.448-0.105c-3.845-1.932-6.82-4.674-8.604-7.933
				c-0.266-0.484-0.088-1.092,0.396-1.357c0.484-0.268,1.093-0.088,1.357,0.396c1.589,2.901,4.269,5.358,7.748,7.106
				c0.494,0.248,0.693,0.848,0.445,1.342C26.359,57.031,26.007,57.232,25.641,57.232z"/>
		</g>
		<g>
			<path d="M15.725,45.481c-0.437,0-0.838-0.287-0.962-0.729c-0.18-0.641-0.25-1.021-0.25-1.021c-0.1-0.543,0.259-1.063,0.801-1.164
				c0.54-0.098,1.063,0.254,1.165,0.797c0.004,0.021,0.065,0.334,0.209,0.848c0.15,0.531-0.16,1.084-0.691,1.232
				C15.905,45.469,15.814,45.481,15.725,45.481z"/>
		</g>
	</g>
	<g>
		<path d="M35,67.494c-0.553,0-1-0.447-1-1v-62c0-0.553,0.447-1,1-1c0.552,0,1,0.447,1,1v62C36,67.046,35.552,67.494,35,67.494z"/>
	</g>
	<g>
		<path d="M61.454,36.487H9.455c-0.553,0-1-0.447-1-1s0.447-1,1-1h51.999c0.552,0,1,0.447,1,1S62.006,36.487,61.454,36.487z"/>
	</g>
</g>
</svg>
