<?xml version="1.0" encoding="utf-8"?>
<!-- Generator: Adobe Illustrator 16.0.0, SVG Export Plug-In . SVG Version: 6.00 Build 0)  -->
<!DOCTYPE svg PUBLIC "-//W3C//DTD SVG 1.1//EN" "http://www.w3.org/Graphics/SVG/1.1/DTD/svg11.dtd">
<svg version="1.1" id="Layer_1" xmlns="http://www.w3.org/2000/svg" xmlns:xlink="http://www.w3.org/1999/xlink" x="0px" y="0px"
	 width="72px" height="72px" viewBox="0 0 72 72" enable-background="new 0 0 72 72" xml:space="preserve">
<g>
	<g>
		<path d="M44.22,36.623c-1.253,0-2.209-0.904-2.226-2.103l-0.117-9.09c-0.009-0.563,0.2-1.091,0.588-1.484
			c0.714-0.727,2.015-0.883,2.974-0.348l7.467,4.462c0.759,0.425,1.214,1.096,1.223,1.827c0.009,0.687-0.384,1.316-1.076,1.728
			l-7.493,4.633C45.14,36.497,44.682,36.623,44.22,36.623z M44.162,25.267c-0.132,0-0.233,0.042-0.272,0.082l0.104,9.145
			c0.002,0.128,0.159,0.265,0.528,0.044l7.493-4.633c0.011-0.007,0.021-0.013,0.031-0.02c-0.036-0.028-0.083-0.061-0.144-0.095
			l-7.465-4.461C44.349,25.281,44.236,25.267,44.162,25.267z"/>
	</g>
	<g>
		<path d="M36,68.482C18.089,68.482,3.518,53.91,3.518,36C3.518,18.089,18.089,3.518,36,3.518S68.482,18.089,68.482,36
			C68.482,53.91,53.911,68.482,36,68.482z M36,7.518C20.295,7.518,7.518,20.295,7.518,36c0,15.705,12.777,28.482,28.482,28.482
			S64.482,51.705,64.482,36C64.482,20.295,51.705,7.518,36,7.518z"/>
	</g>
	<g>
		<path d="M60.148,37c-0.553,0-1-0.447-1-1c0-10.407-7.003-19.59-17.029-22.331c-0.533-0.146-0.847-0.695-0.701-1.229
			c0.146-0.533,0.702-0.843,1.229-0.701C53.54,14.718,61.148,24.694,61.148,36C61.148,36.553,60.701,37,60.148,37z"/>
	</g>
	<g>
		<path d="M37.349,12.888c-0.019,0-0.037,0-0.056-0.002c-0.429-0.023-0.86-0.035-1.293-0.035c-0.553,0-1-0.447-1-1s0.447-1,1-1
			c0.47,0,0.937,0.014,1.402,0.039c0.552,0.029,0.974,0.501,0.943,1.053C38.317,12.475,37.876,12.888,37.349,12.888z"/>
	</g>
	<g>
		<path d="M19.957,48.117c-1.854,0-3.087-0.438-3.121-0.449c-0.518-0.193-0.78-0.77-0.588-1.287
			c0.193-0.518,0.771-0.775,1.287-0.588c0.322,0.119,8.078,2.779,13.403-8.156c4.748-9.744,11.802-8.726,12.098-8.679
			c0.545,0.088,0.916,0.602,0.828,1.146c-0.088,0.543-0.596,0.91-1.141,0.829c-0.253-0.036-5.926-0.755-9.986,7.581
			C28.768,46.66,23.334,48.117,19.957,48.117z"/>
	</g>
	<g>
		<path d="M44.162,51.787L44.162,51.787c-0.654,0-1.272-0.248-1.697-0.68c-0.388-0.393-0.597-0.922-0.588-1.486l0.117-9.086
			c0.017-1.201,0.973-2.105,2.226-2.105c0.462,0,0.92,0.127,1.324,0.367l7.522,4.65c0.678,0.402,1.07,1.033,1.062,1.719
			c-0.009,0.732-0.464,1.402-1.246,1.842l-7.418,4.434C45.05,51.672,44.608,51.787,44.162,51.787z M44.22,40.43
			c-0.148,0-0.225,0.045-0.226,0.131l-0.117,9.088c0.08,0.15,0.267,0.236,0.587,0.061l7.416-4.432
			c0.072-0.041,0.126-0.078,0.166-0.109c-0.005-0.004-0.011-0.006-0.016-0.01l-7.522-4.65C44.402,40.445,44.291,40.43,44.22,40.43z"
			/>
	</g>
	<g>
		<path d="M41.693,46.191c-2.617,0-8.26-0.973-10.808-8.908c-1.345-4.187-3.409-6.916-6.136-8.109
			c-3.576-1.564-7.107,0.039-7.143,0.057c-0.504,0.233-1.096,0.015-1.329-0.485c-0.232-0.501-0.015-1.096,0.485-1.329
			c0.178-0.082,4.395-1.996,8.788-0.075c3.275,1.434,5.711,4.573,7.238,9.331c2.818,8.779,9.602,7.516,9.889,7.457
			c0.541-0.109,1.068,0.24,1.179,0.781c0.109,0.541-0.241,1.07-0.782,1.18C43.054,46.094,42.527,46.191,41.693,46.191z"/>
	</g>
</g>
</svg>
