<?xml version="1.0" encoding="utf-8"?>
<!-- Generator: Adobe Illustrator 16.0.0, SVG Export Plug-In . SVG Version: 6.00 Build 0)  -->
<!DOCTYPE svg PUBLIC "-//W3C//DTD SVG 1.1//EN" "http://www.w3.org/Graphics/SVG/1.1/DTD/svg11.dtd">
<svg version="1.1" id="Layer_1" xmlns="http://www.w3.org/2000/svg" xmlns:xlink="http://www.w3.org/1999/xlink" x="0px" y="0px"
	 width="72px" height="72px" viewBox="0 0 72 72" enable-background="new 0 0 72 72" xml:space="preserve">
<g>
	<g>
		<path d="M58.408,68.674L58.408,68.674c-1.316,0-2.848-0.389-4.742-0.971l-0.347-0.143c-8.914-4.709-23.506-12.291-25.784-13.156
			h-8.185c-5.759,0-10.385-4.006-10.385-9.12V28.826c0-5.454,5.01-10.422,10.385-10.422h8.084
			c2.364-1.093,16.903-8.937,25.901-13.836l0.09-0.046c1.673-0.804,3.111-1.195,4.398-1.195c1.402,0,2.621,0.484,3.522,1.4
			c1.804,1.832,1.699,4.775,1.68,6.032l-0.061,0.232v51.753c0,1.896-0.273,3.24-0.985,4.229
			C61.422,67.749,60.396,68.674,58.408,68.674z M55.021,63.936c1.229,0.373,2.561,0.738,3.388,0.738l0,0
			c0.285,0,0.39-0.043,0.401-0.049c-0.007-0.002,0.271-0.365,0.271-1.881l0.003-52.049c0.01-0.624,0.04-2.524-0.588-3.163
			c-0.061-0.062-0.203-0.206-0.672-0.206c-0.452,0-1.271,0.136-2.621,0.779C28.942,22.405,28.469,22.404,27.811,22.404h-8.46
			c-3.164,0-6.385,3.181-6.385,6.422v16.459c0,3.204,3.303,5.12,6.385,5.12h8.46C28.405,50.405,29.403,50.405,55.021,63.936z"/>
	</g>
	<g>
		<path d="M37.077,24.745c-0.553,0-1-0.447-1-1c0-0.473,0.328-0.869,0.77-0.974c0.923-0.359,8.535-4.383,13.183-6.868
			c1.366-0.656,3.232-1.404,4.609-0.539c0.932,0.586,1.327,1.726,1.327,3.485v3.555c0,0.553-0.448,1-1,1c-0.553,0-1-0.447-1-1
			v-3.555c0-1.363-0.257-1.708-0.392-1.793c-0.14-0.086-0.725-0.304-2.67,0.63C37.711,24.745,37.388,24.745,37.077,24.745z"/>
	</g>
	<g>
		<path d="M54.966,28.404c-0.553,0-1-0.447-1-1v-1c0-0.553,0.447-1,1-1c0.552,0,1,0.447,1,1v1
			C55.966,27.957,55.518,28.404,54.966,28.404z"/>
	</g>
	<g>
		<path d="M27.966,52.405c-0.553,0-1-0.447-1-1V21.404c0-0.553,0.447-1,1-1c0.552,0,1,0.447,1,1v30.001
			C28.966,51.958,28.518,52.405,27.966,52.405z"/>
	</g>
</g>
</svg>
