<?xml version="1.0" encoding="utf-8"?>
<!-- Generator: Adobe Illustrator 16.0.0, SVG Export Plug-In . SVG Version: 6.00 Build 0)  -->
<!DOCTYPE svg PUBLIC "-//W3C//DTD SVG 1.1//EN" "http://www.w3.org/Graphics/SVG/1.1/DTD/svg11.dtd">
<svg version="1.1" id="Layer_1" xmlns="http://www.w3.org/2000/svg" xmlns:xlink="http://www.w3.org/1999/xlink" x="0px" y="0px"
	 width="72px" height="72px" viewBox="0 0 72 72" enable-background="new 0 0 72 72" xml:space="preserve">
<g>
	<g>
		<g>
			<g>
				<path d="M36,39.713c-6.636,0-12.033-5.398-12.033-12.033c0-6.634,5.397-12.031,12.033-12.031
					c6.635,0,12.033,5.397,12.033,12.031C48.033,34.315,42.635,39.713,36,39.713z M36,17.649c-5.532,0-10.033,4.5-10.033,10.031
					c0,5.532,4.501,10.033,10.033,10.033s10.033-4.5,10.033-10.033C46.033,22.149,41.532,17.649,36,17.649z"/>
			</g>
			<g>
				<path d="M29.631,27.442c-0.553,0-1-0.447-1-1c0-0.676,0.092-1.073,0.244-1.646c0.142-0.534,0.685-0.854,1.223-0.711
					c0.534,0.142,0.852,0.689,0.711,1.223c-0.124,0.465-0.178,0.689-0.178,1.135C30.631,26.995,30.183,27.442,29.631,27.442z"/>
			</g>
			<g>
				<path d="M36,35.051c-3.184,0-5.995-2.029-6.996-5.049c-0.174-0.523,0.11-1.09,0.634-1.264c0.526-0.171,1.091,0.11,1.265,0.635
					c0.729,2.199,2.778,3.678,5.098,3.678c0.552,0,1,0.447,1,1S36.552,35.051,36,35.051z"/>
			</g>
		</g>
		<g>
			<path d="M41.108,51.223c-0.875,0-1.735-0.254-2.489-0.738l-1.331-0.854c-0.604-0.387-1.972-0.387-2.576,0l-1.329,0.854
				c-0.756,0.484-1.616,0.738-2.49,0.738c-1.691,0.002-3.234-0.951-4.026-2.482l-0.726-1.406c-0.343-0.66-1.4-1.289-2.176-1.289
				l-1.634,0.076c-1.364,0.059-2.616-0.438-3.526-1.391c-0.862-0.902-1.304-2.104-1.244-3.381l0.072-1.576
				c0.036-0.773-0.602-1.879-1.288-2.232l-1.404-0.727c-1.151-0.595-2.002-1.639-2.33-2.864c-0.329-1.226-0.116-2.556,0.584-3.649
				l0.856-1.333c0.415-0.648,0.415-1.926-0.002-2.577l-0.853-1.327c-0.702-1.096-0.915-2.426-0.587-3.65
				c0.328-1.226,1.178-2.271,2.33-2.867l1.407-0.726c0.685-0.354,1.322-1.459,1.286-2.23l-0.072-1.58
				c-0.06-1.274,0.382-2.476,1.244-3.378c0.91-0.953,2.171-1.413,3.525-1.363l1.579,0.103c0.001,0,0.002,0,0.002,0
				c0.831,0,1.888-0.654,2.23-1.317l0.724-1.415c0.793-1.535,2.336-2.494,4.026-2.494c0.875,0,1.736,0.253,2.491,0.736l1.33,0.852
				c0.603,0.387,1.971,0.386,2.575-0.001l1.332-0.854c0.752-0.482,1.612-0.739,2.488-0.739c1.69,0,3.232,0.952,4.025,2.484
				l0.727,1.404c0.343,0.663,1.398,1.29,2.174,1.29l1.635-0.076c1.373-0.05,2.616,0.438,3.526,1.392
				c0.861,0.902,1.304,2.104,1.244,3.38l-0.072,1.576c-0.036,0.773,0.602,1.879,1.287,2.233l1.403,0.724
				c1.155,0.598,2.004,1.643,2.332,2.868c0.329,1.225,0.115,2.555-0.584,3.647l-0.855,1.332c-0.416,0.649-0.416,1.927,0.001,2.577
				l0.853,1.329c0.702,1.096,0.915,2.426,0.586,3.651c-0.329,1.225-1.179,2.269-2.332,2.864l-1.402,0.727
				c-0.687,0.354-1.324,1.459-1.288,2.23l0.072,1.58c0.06,1.275-0.383,2.475-1.244,3.379c-0.859,0.9-2.032,1.396-3.301,1.396
				c-0.001,0-0.001,0-0.001,0c-0.074,0-0.149,0.16-0.225,0.156l-1.578,0.088c-0.001,0-0.002,0-0.003,0
				c-0.831,0-1.886,0.463-2.228,1.125l-0.727,1.324C44.342,50.354,42.799,51.223,41.108,51.223z M36,45.322
				c1.274,0,2.498,0.334,3.446,0.941l1.332,0.854c0.109,0.07,0.221,0.105,0.33,0.105c0.114,0,0.327-0.041,0.473-0.32l0.727-1.404
				c1.069-2.07,3.645-3.441,5.97-3.324l1.579,0.197c0.001,0,0.003,0,0.004,0c0.247,0,0.373-0.207,0.441-0.279
				c0.101-0.105,0.149-0.316,0.142-0.492l-0.072-1.611c-0.109-2.33,1.372-4.913,3.446-5.985l1.404-0.734
				c0.203-0.104,0.277-0.251,0.305-0.352c0.027-0.102,0.034-0.265-0.09-0.458l-0.853-1.329c-1.26-1.966-1.26-4.931,0-6.896
				l0.854-1.332c0.122-0.191,0.116-0.353,0.089-0.454s-0.103-0.245-0.306-0.35l-1.401-0.724c-2.076-1.073-3.558-3.641-3.448-5.973
				l0.072-1.576c0.008-0.178-0.041-0.327-0.142-0.433c-0.069-0.072-0.195-0.158-0.408-0.158l-1.615,0.075
				c-2.349,0.11-4.901-1.376-5.972-3.447L41.581,8.46c-0.146-0.281-0.358-0.322-0.473-0.322c-0.108,0-0.219,0.035-0.328,0.105
				l-1.334,0.854c-1.896,1.215-4.997,1.215-6.893,0l-1.331-0.854c-0.11-0.071-0.222-0.106-0.331-0.106
				c-0.114,0-0.328,0.041-0.473,0.322l-0.724,1.402c-1.074,2.073-3.634,3.637-5.974,3.516l-1.578-0.007c-0.002,0-0.003,0-0.004,0
				c-0.248,0-0.373,0.018-0.441,0.09c-0.102,0.105-0.15,0.221-0.142,0.396l0.072,1.563c0.108,2.33-1.373,4.89-3.447,5.962
				l-1.405,0.721c-0.201,0.104-0.276,0.245-0.304,0.347c-0.026,0.102-0.033,0.262,0.091,0.455l0.853,1.327
				c1.26,1.967,1.26,4.93,0.002,6.895l-0.856,1.333c-0.122,0.19-0.115,0.352-0.089,0.453c0.027,0.101,0.103,0.243,0.304,0.347
				l1.406,0.728c2.073,1.072,3.555,3.639,3.446,5.971l-0.072,1.576c-0.009,0.178,0.04,0.328,0.142,0.434
				c0.068,0.072,0.195,0.158,0.407,0.158l1.616-0.076c2.346-0.098,4.899,1.375,5.972,3.445l0.727,1.408
				c0.144,0.277,0.357,0.318,0.472,0.318c0.11,0,0.222-0.035,0.333-0.105l1.328-0.854C33.501,45.656,34.726,45.322,36,45.322z"/>
		</g>
	</g>
	<g>
		<path d="M29.375,65.861c-0.416,0-0.828-0.129-1.176-0.381l-4.543-3.301l-5.412,1.492c-0.662,0.186-1.373,0.014-1.881-0.451
			s-0.741-1.156-0.618-1.834l3.248-17.893c0.111-0.615,0.506-1.145,1.064-1.426c0.559-0.283,1.218-0.289,1.781-0.014
			c0.131,0.064,0.223,0.072,0.28,0.072l1.603-0.076c2.346-0.098,4.899,1.375,5.972,3.445l0.727,1.408
			c0.151,0.293,0.448,0.387,0.74,0.232c0.677-0.355,1.497-0.293,2.113,0.16s0.921,1.217,0.784,1.969l-2.715,14.953
			c-0.123,0.678-0.585,1.242-1.224,1.5C29.879,65.814,29.626,65.861,29.375,65.861z M24.053,57.996c0.418,0,0.83,0.131,1.175,0.383
			l2.748,1.994l1.693-9.328c-1.188-0.334-2.207-1.154-2.803-2.305l-0.726-1.406c-0.343-0.66-1.4-1.289-2.176-1.289l-1.381,0.064
			l-2.335,12.861l3.271-0.902C23.696,58.02,23.875,57.996,24.053,57.996z"/>
	</g>
	<g>
		<path d="M38.213,67.861c-0.252,0-0.505-0.047-0.745-0.143c-0.638-0.256-1.1-0.822-1.223-1.5l-3.343-18.408
			c-0.191-1.053,0.479-2.068,1.522-2.307c1.72-0.393,3.679-0.102,5.021,0.76l1.332,0.854c0.109,0.07,0.221,0.105,0.33,0.105
			c0.114,0,0.327-0.041,0.473-0.32l0.727-1.404c1.069-2.07,3.645-3.441,5.97-3.324l1.579,0.197c0.001,0,0.002,0,0.003,0
			c0.28,0,0.466-0.238,0.544-0.441c0.323-0.836,1.164-1.41,2.055-1.332c0.892,0.086,1.619,0.721,1.779,1.604l3.604,19.826
			c0.065,0.199,0.102,0.268,0.102,0.488c0,1.105-0.896,1.855-2,1.855c-0.008,0-0.015,0-0.02,0c-0.178,0-0.356,0.113-0.531,0.064
			l-8.701-2.328l-7.303,5.338C39.041,67.697,38.629,67.861,38.213,67.861z M37.3,49.639l2.313,12.734l5.506-3.998
			c0.493-0.357,1.122-0.473,1.707-0.311l6.562,1.807l-2.516-13.848c-0.316,0.068-0.645,0.266-0.979,0.266l-1.801,0.082
			c-0.001,0-0.002,0-0.003,0c-0.831,0-1.886,0.463-2.228,1.125l-0.727,1.324c-0.792,1.533-2.335,2.443-4.025,2.443
			c-0.875,0-1.735-0.275-2.489-0.758L37.3,49.639z"/>
	</g>
</g>
</svg>
