<?xml version="1.0" encoding="utf-8"?>
<!-- Generator: Adobe Illustrator 16.0.0, SVG Export Plug-In . SVG Version: 6.00 Build 0)  -->
<!DOCTYPE svg PUBLIC "-//W3C//DTD SVG 1.1//EN" "http://www.w3.org/Graphics/SVG/1.1/DTD/svg11.dtd">
<svg version="1.1" id="Layer_1" xmlns="http://www.w3.org/2000/svg" xmlns:xlink="http://www.w3.org/1999/xlink" x="0px" y="0px"
	 width="72px" height="72px" viewBox="0 0 72 72" enable-background="new 0 0 72 72" xml:space="preserve">
<g>
	<g>
		<g>
			<path d="M31.853,68.872c-2.118,0-3.916-1.363-5.965-3.412L6.55,46.12c-4.571-4.57-4.571-7.358,0-11.929L37.024,3.715
				c0.424-0.424,1.01-0.636,1.611-0.576l25.854,2.557c0.076,0.007,0.152,0.018,0.229,0.033c0.896,0.181,1.555,0.951,1.6,1.856
				l2.551,25.785c0.059,0.597-0.152,1.188-0.576,1.611L37.815,65.459C35.769,67.506,33.971,68.872,31.853,68.872z M39.185,7.212
				L9.378,37.019c-2.989,2.989-2.989,3.283,0,6.272l19.338,19.34c0.962,0.961,2.334,2.24,3.137,2.24c0.802,0,2.173-1.279,3.134-2.24
				l29.809-29.809L62.489,9.518L39.185,7.212z"/>
		</g>
	</g>
	<g>
		<g>
			<path d="M15.363,43.358c-0.256,0-0.512-0.098-0.707-0.293c-2.628-2.629-1.998-4.185,0.297-6.48l9.09-9.089
				c0.391-0.391,1.023-0.391,1.414,0s0.391,1.023,0,1.414l-9.09,9.089c-1.845,1.846-1.864,2.084-0.297,3.652
				c0.391,0.391,0.391,1.023,0,1.414C15.875,43.26,15.619,43.358,15.363,43.358z"/>
		</g>
		<g>
			<path d="M26.783,27.169c-0.256,0-0.511-0.098-0.706-0.292c-0.392-0.39-0.392-1.023-0.002-1.414l0.813-0.814
				c0.391-0.393,1.023-0.391,1.414-0.002c0.392,0.39,0.392,1.023,0.002,1.414l-0.813,0.814
				C27.295,27.072,27.039,27.169,26.783,27.169z"/>
		</g>
	</g>
	<g>
		<path d="M50.604,29.446c-4.572,0-8.293-3.72-8.293-8.292s3.721-8.292,8.293-8.292s8.291,3.72,8.291,8.292
			S55.177,29.446,50.604,29.446z M50.604,16.862c-2.367,0-4.293,1.926-4.293,4.292s1.926,4.292,4.293,4.292s4.291-1.926,4.291-4.292
			S52.972,16.862,50.604,16.862z"/>
	</g>
</g>
</svg>
