<?xml version="1.0" encoding="utf-8"?>
<!-- Generator: Adobe Illustrator 16.0.0, SVG Export Plug-In . SVG Version: 6.00 Build 0)  -->
<!DOCTYPE svg PUBLIC "-//W3C//DTD SVG 1.1//EN" "http://www.w3.org/Graphics/SVG/1.1/DTD/svg11.dtd">
<svg version="1.1" id="Layer_1" xmlns="http://www.w3.org/2000/svg" xmlns:xlink="http://www.w3.org/1999/xlink" x="0px" y="0px"
	 width="72px" height="72px" viewBox="0 0 72 72" enable-background="new 0 0 72 72" xml:space="preserve">
<g>
	<g>
		<path d="M36.093,69c-9.33,0-16.904-7.551-16.904-16.834c0-6.328,4.342-11.217,7.342-13.936V12.5c0-5.238,4.262-9.5,9.5-9.5
			s9.5,4.262,9.5,9.5v25.823c5,2.908,7.281,7.777,7.281,13.844C52.812,61.45,45.303,69,36.093,69z M36.03,7
			c-3.032,0-5.5,2.468-5.5,5.5v26.784c0,0.682-0.363,1.318-0.938,1.686c-2.954,1.887-6.412,5.951-6.412,11.197
			C23.18,59.243,28.973,65,36.097,65c7.005,0,12.7-5.758,12.7-12.834c0-3.5-1.063-8.232-6.203-10.906
			c-0.662-0.344-1.063-1.027-1.063-1.773V12.5C41.53,9.468,39.063,7,36.03,7z"/>
	</g>
	<g>
		<path d="M36.18,63.334c-0.552,0-1-0.447-1-1s0.448-1,1-1c3.763,0,7.2-2.357,8.554-5.865c0.199-0.516,0.78-0.771,1.293-0.572
			c0.516,0.197,0.771,0.777,0.573,1.293C44.95,60.463,40.763,63.334,36.18,63.334z"/>
	</g>
	<g>
		<path d="M46.313,54.01c-0.026,0-0.054-0.002-0.081-0.004c-0.551-0.045-0.961-0.527-0.916-1.078c0.02-0.25,0.03-0.504,0.03-0.762
			c0-0.553,0.448-1,1-1c0.553,0,1,0.447,1,1c0,0.313-0.013,0.619-0.037,0.924C47.267,53.614,46.828,54.01,46.313,54.01z"/>
	</g>
	<g>
		<path d="M34.499,35.584h-5c-0.552,0-1-0.447-1-1s0.448-1,1-1h5c0.553,0,1,0.447,1,1S35.052,35.584,34.499,35.584z"/>
	</g>
	<g>
		<path d="M34.499,31.584h-5c-0.552,0-1-0.447-1-1s0.448-1,1-1h5c0.553,0,1,0.447,1,1S35.052,31.584,34.499,31.584z"/>
	</g>
	<g>
		<path d="M34.499,21.584h-5c-0.552,0-1-0.447-1-1s0.448-1,1-1h5c0.553,0,1,0.447,1,1S35.052,21.584,34.499,21.584z"/>
	</g>
	<g>
		<path d="M34.499,17.584h-5c-0.552,0-1-0.447-1-1s0.448-1,1-1h5c0.553,0,1,0.447,1,1S35.052,17.584,34.499,17.584z"/>
	</g>
	<g>
		<path d="M37.499,26.584h-8c-0.552,0-1-0.447-1-1s0.448-1,1-1h8c0.553,0,1,0.447,1,1S38.052,26.584,37.499,26.584z"/>
	</g>
</g>
</svg>
