<?xml version="1.0" encoding="utf-8"?>
<!-- Generator: Adobe Illustrator 16.0.0, SVG Export Plug-In . SVG Version: 6.00 Build 0)  -->
<!DOCTYPE svg PUBLIC "-//W3C//DTD SVG 1.1//EN" "http://www.w3.org/Graphics/SVG/1.1/DTD/svg11.dtd">
<svg version="1.1" id="Layer_1" xmlns="http://www.w3.org/2000/svg" xmlns:xlink="http://www.w3.org/1999/xlink" x="0px" y="0px"
	 width="72px" height="72px" viewBox="0 0 72 72" enable-background="new 0 0 72 72" xml:space="preserve">
<g>
	<g>
		<g>
			<path d="M55.256,69.055c-0.005,0-0.013,0-0.02,0H16.291c-0.621,0-1.207-0.289-1.586-0.781c-0.378-0.492-0.507-1.133-0.347-1.732
				c0.55-2.066,13.49-50.68,15.78-57.185c0.969-2.752,2.6-6.411,5.562-6.411c2.94,0,4.552,3.597,5.508,6.303
				c2.405,6.803,14.717,52.655,15.889,57.024c0.103,0.24,0.159,0.506,0.159,0.783C57.256,68.16,56.361,69.055,55.256,69.055z
				 M18.895,65.055h33.733C49.871,54.807,39.54,16.531,37.437,10.581c-0.788-2.231-1.423-3.138-1.737-3.482
				c-0.321,0.35-0.975,1.277-1.787,3.586C31.966,16.213,21.641,54.77,18.895,65.055z"/>
		</g>
	</g>
	<g>
		<path d="M62,69.055H10c-1.104,0-2-0.895-2-2c0-1.104,0.896-2,2-2h52c1.104,0,2,0.896,2,2C64,68.16,63.104,69.055,62,69.055z"/>
	</g>
	<g>
		<path d="M51,56.055H19c-0.553,0-1-0.447-1-1s0.447-1,1-1h32c0.553,0,1,0.447,1,1S51.553,56.055,51,56.055z"/>
	</g>
	<g>
		<path d="M48,41.055h-7c-0.553,0-1-0.447-1-1s0.447-1,1-1h7c0.553,0,1,0.447,1,1S48.553,41.055,48,41.055z"/>
	</g>
	<g>
		<path d="M36.999,41.055h-14c-0.553,0-1-0.447-1-1s0.447-1,1-1h14c0.553,0,1,0.447,1,1S37.552,41.055,36.999,41.055z"/>
	</g>
	<g>
		<path d="M44,26.055H28c-0.553,0-1-0.447-1-1s0.447-1,1-1h16c0.553,0,1,0.447,1,1S44.553,26.055,44,26.055z"/>
	</g>
</g>
</svg>
