<?xml version="1.0" encoding="utf-8"?>
<!-- Generator: Adobe Illustrator 16.0.0, SVG Export Plug-In . SVG Version: 6.00 Build 0)  -->
<!DOCTYPE svg PUBLIC "-//W3C//DTD SVG 1.1//EN" "http://www.w3.org/Graphics/SVG/1.1/DTD/svg11.dtd">
<svg version="1.1" id="Layer_1" xmlns="http://www.w3.org/2000/svg" xmlns:xlink="http://www.w3.org/1999/xlink" x="0px" y="0px"
	 width="72px" height="72px" viewBox="0 0 72 72" enable-background="new 0 0 72 72" xml:space="preserve">
<g>
	<g>
		<path d="M36,64.005c-11.84,0-21.473-9.633-21.473-21.473c0-5.862,6.18-18.841,12.857-31.993c0.421-0.828,0.789-1.553,1.089-2.151
			c1.894-3.777,4.532-5.857,7.429-5.857c1.671,0,4.858,0.76,7.44,5.849c0.34,0.67,0.761,1.486,1.242,2.422
			c6.693,12.999,12.888,25.84,12.888,31.731C57.473,54.373,47.84,64.005,36,64.005z M35.902,6.531c-1.267,0-2.707,1.364-3.853,3.65
			c-0.304,0.604-0.675,1.335-1.099,2.17c-3.397,6.691-12.424,24.469-12.424,30.182c0,9.635,7.838,17.473,17.473,17.473
			c9.634,0,17.473-7.838,17.473-17.473c0-5.734-8.721-22.669-12.444-29.9c-0.485-0.943-0.91-1.768-1.253-2.443
			C38.596,7.864,37.185,6.531,35.902,6.531z"/>
	</g>
	<g>
		<path d="M36.381,69.47c-1.104,0-2-0.896-2-2v-5c0-1.105,0.896-2,2-2s2,0.895,2,2v5C38.381,68.574,37.485,69.47,36.381,69.47z"/>
	</g>
	<g>
		<path d="M36.381,24.469c-0.553,0-1-0.447-1-1v-1c0-0.553,0.447-1,1-1c0.552,0,1,0.447,1,1v1
			C37.381,24.022,36.933,24.469,36.381,24.469z"/>
	</g>
	<g>
		<path d="M36.381,62.47c-0.553,0-1-0.447-1-1V26.469c0-0.553,0.447-1,1-1c0.552,0,1,0.447,1,1V61.47
			C37.381,62.023,36.933,62.47,36.381,62.47z"/>
	</g>
	<g>
		<path d="M36.027,55.031c-0.256,0-0.512-0.098-0.707-0.293c-0.391-0.391-0.391-1.023,0-1.414l7.938-7.938
			c0.391-0.391,1.023-0.391,1.414,0s0.391,1.023,0,1.414l-7.938,7.938C36.539,54.933,36.283,55.031,36.027,55.031z"/>
	</g>
	<g>
		<path d="M27.449,37.729c-0.26,0-0.52-0.1-0.71-0.29c-0.18-0.18-0.29-0.439-0.29-0.71c0-0.26,0.11-0.52,0.3-0.71
			c0.36-0.36,1.04-0.36,1.41,0.01c0.19,0.181,0.29,0.44,0.29,0.7c0,0.271-0.109,0.521-0.29,0.71
			C27.97,37.629,27.72,37.729,27.449,37.729z"/>
	</g>
	<g>
		<path d="M36,46.281c-0.256,0-0.512-0.098-0.707-0.293l-6.55-6.551c-0.391-0.391-0.391-1.023,0-1.414s1.023-0.391,1.414,0
			l6.55,6.551c0.391,0.391,0.391,1.023,0,1.414C36.512,46.183,36.256,46.281,36,46.281z"/>
	</g>
	<g>
		<path d="M36.027,32.781c-0.256,0-0.512-0.098-0.707-0.293c-0.391-0.391-0.391-1.023,0-1.414l6.25-6.25
			c0.391-0.391,1.023-0.391,1.414,0s0.391,1.023,0,1.414l-6.25,6.25C36.539,32.683,36.283,32.781,36.027,32.781z"/>
	</g>
</g>
</svg>
