<?xml version="1.0" encoding="utf-8"?>
<!-- Generator: Adobe Illustrator 16.0.0, SVG Export Plug-In . SVG Version: 6.00 Build 0)  -->
<!DOCTYPE svg PUBLIC "-//W3C//DTD SVG 1.1//EN" "http://www.w3.org/Graphics/SVG/1.1/DTD/svg11.dtd">
<svg version="1.1" id="Layer_1" xmlns="http://www.w3.org/2000/svg" xmlns:xlink="http://www.w3.org/1999/xlink" x="0px" y="0px"
	 width="72px" height="72px" viewBox="0 0 72 72" enable-background="new 0 0 72 72" xml:space="preserve">
<g>
	<g>
		<path d="M68,18.761C68,26.901,61.401,33.5,53.262,33.5H18.738C10.599,33.5,4,26.901,4,18.761v-0.521
			C4,10.099,10.599,3.5,18.738,3.5h34.523C61.401,3.5,68,10.099,68,18.239V18.761z M64,18.239C64,12.309,59.192,7.5,53.262,7.5
			H18.738C12.808,7.5,8,12.309,8,18.239v0.521C8,24.691,12.808,29.5,18.738,29.5h34.523C59.192,29.5,64,24.691,64,18.761V18.239z"/>
	</g>
	<g>
		<g>
			<path d="M60,21.5c-0.553,0-1-0.447-1-1v-0.52c0-4.265-3.697-7.48-8.109-7.48H46.63c-0.553,0-1-0.447-1-1s0.447-1,1-1h4.261
				C56.352,10.5,61,14.664,61,19.98v0.52C61,21.053,60.553,21.5,60,21.5z"/>
		</g>
		<g>
			<path d="M42.63,12.5h-2c-0.553,0-1-0.447-1-1s0.447-1,1-1h2c0.553,0,1,0.447,1,1S43.183,12.5,42.63,12.5z"/>
		</g>
	</g>
	<g>
		<path d="M19.656,26.858c-4.796,0-8.697-3.901-8.697-8.697s3.901-8.697,8.697-8.697s8.697,3.901,8.697,8.697
			S24.452,26.858,19.656,26.858z M19.656,13.464c-2.59,0-4.697,2.107-4.697,4.697s2.107,4.697,4.697,4.697s4.697-2.107,4.697-4.697
			S22.246,13.464,19.656,13.464z"/>
	</g>
	<g>
		<path d="M68,53.76c0,8.141-6.599,14.74-14.738,14.74H18.738C10.599,68.5,4,61.901,4,53.76v-0.521
			C4,45.098,10.599,38.5,18.738,38.5h34.523C61.401,38.5,68,45.098,68,53.239V53.76z M64,53.239c0-5.93-4.808-10.738-10.738-10.738
			H18.738C12.808,42.5,8,47.309,8,53.239v0.521c0,5.932,4.808,10.74,10.738,10.74h34.523C59.192,64.5,64,59.692,64,53.76V53.239z"/>
	</g>
	<g>
		<g>
			<path d="M12,56.161c-0.553,0-1-0.447-1-1v-0.18c0-0.357-0.126-0.711-0.089-1.059c0.059-0.551,0.466-0.951,1.026-0.889
				c0.549,0.057,1.057,0.549,0.998,1.1C12.906,54.411,13,54.694,13,54.981v0.18C13,55.713,12.553,56.161,12,56.161z"/>
		</g>
		<g>
			<path d="M12.882,51.581c-0.17,0-0.341-0.043-0.499-0.133c-0.478-0.275-0.643-0.889-0.366-1.367c1.75-3.033,5.012-4.92,8.511-4.92
				c0.553,0,1,0.447,1,1s-0.447,1-1,1c-2.787,0-5.384,1.502-6.778,3.92C13.563,51.401,13.228,51.581,12.882,51.581z"/>
		</g>
	</g>
	<g>
		<path d="M51.762,61.858c-4.796,0-8.697-3.9-8.697-8.697c0-4.795,3.901-8.697,8.697-8.697s8.697,3.902,8.697,8.697
			C60.459,57.958,56.558,61.858,51.762,61.858z M51.762,48.463c-2.59,0-4.697,2.107-4.697,4.697s2.107,4.697,4.697,4.697
			s4.697-2.107,4.697-4.697S54.352,48.463,51.762,48.463z"/>
	</g>
</g>
</svg>
