<?xml version="1.0" encoding="utf-8"?>
<!-- Generator: Adobe Illustrator 16.0.0, SVG Export Plug-In . SVG Version: 6.00 Build 0)  -->
<!DOCTYPE svg PUBLIC "-//W3C//DTD SVG 1.1//EN" "http://www.w3.org/Graphics/SVG/1.1/DTD/svg11.dtd">
<svg version="1.1" id="Layer_1" xmlns="http://www.w3.org/2000/svg" xmlns:xlink="http://www.w3.org/1999/xlink" x="0px" y="0px"
	 width="72px" height="72px" viewBox="0 0 72 72" enable-background="new 0 0 72 72" xml:space="preserve">
<g>
	<g>
		<g>
			<path d="M36.639,50.791c-2.481,0-4.616-1.289-5.427-3.361c-0.2-0.514,0.008-1.094,0.523-1.295
				c0.518-0.203,1.073,0.053,1.273,0.566c0.511,1.309,1.978,2.09,3.643,2.09c1.984,0,3.896-1.873,3.896-4.008v-3.594
				c0-0.553,0.086-1.152,0.637-1.152h3.408c0.379,0,1.051,0,1.299-0.508c0.219-0.449,0.049-1.08-0.443-1.707l-7.59-9.932
				c-1.027-1.311-2.717-1.402-3.72-0.123L26.568,37.91c-0.498,0.635-0.67,1.209-0.464,1.635c0.176,0.359,0.651,0.492,1.307,0.492
				h4.773c0.553,0,1,0.447,1,1s-0.447,1-1,1h-4.773c-1.45,0-2.582-0.541-3.104-1.615c-0.553-1.137-0.301-2.518,0.674-3.762
				l7.568-10.118c0.878-1.121,2.061-1.718,3.343-1.718c1.333,0,2.626,0.68,3.548,1.855l7.59,9.955
				c0.975,1.242,1.225,2.607,0.66,3.768c-0.529,1.086-1.658,1.635-3.098,1.635h-2.045v2.746
				C42.547,48.039,39.742,50.791,36.639,50.791z"/>
		</g>
		<g>
			<path d="M31.705,44.508c-0.271,0-0.521-0.109-0.71-0.289c-0.19-0.189-0.29-0.449-0.29-0.711c0-0.27,0.1-0.529,0.29-0.709
				c0.369-0.369,1.039-0.369,1.409,0c0.19,0.189,0.301,0.449,0.301,0.709c0,0.262-0.11,0.521-0.301,0.701
				C32.214,44.398,31.964,44.508,31.705,44.508z"/>
		</g>
	</g>
	<g>
		<path d="M36,68.482C18.09,68.482,3.518,53.91,3.518,36C3.518,18.089,18.09,3.518,36,3.518c17.91,0,32.482,14.571,32.482,32.482
			C68.482,53.91,53.91,68.482,36,68.482z M36,7.518C20.295,7.518,7.518,20.295,7.518,36c0,15.705,12.777,28.482,28.482,28.482
			c15.705,0,28.482-12.777,28.482-28.482C64.482,20.295,51.705,7.518,36,7.518z"/>
	</g>
	<g>
		<path d="M60.148,37c-0.551,0-1-0.447-1-1c0-10.407-7.002-19.59-17.029-22.331c-0.531-0.146-0.846-0.695-0.701-1.229
			c0.146-0.533,0.695-0.845,1.229-0.701C53.541,14.718,61.148,24.694,61.148,36C61.148,36.553,60.701,37,60.148,37z"/>
	</g>
	<g>
		<path d="M37.35,12.888c-0.02,0-0.037,0-0.057-0.002c-0.428-0.023-0.859-0.035-1.292-0.035c-0.552,0-1-0.447-1-1s0.448-1,1-1
			c0.47,0,0.937,0.014,1.402,0.039c0.553,0.029,0.975,0.501,0.945,1.053C38.318,12.475,37.877,12.888,37.35,12.888z"/>
	</g>
</g>
</svg>
