<?xml version="1.0" encoding="utf-8"?>
<!-- Generator: Adobe Illustrator 16.0.0, SVG Export Plug-In . SVG Version: 6.00 Build 0)  -->
<!DOCTYPE svg PUBLIC "-//W3C//DTD SVG 1.1//EN" "http://www.w3.org/Graphics/SVG/1.1/DTD/svg11.dtd">
<svg version="1.1" id="Layer_1" xmlns="http://www.w3.org/2000/svg" xmlns:xlink="http://www.w3.org/1999/xlink" x="0px" y="0px"
	 width="72px" height="72px" viewBox="0 0 72 72" enable-background="new 0 0 72 72" xml:space="preserve">
<g>
	<g>
		<path d="M43,63.291H18c-8.822,0-16-7.234-16-16.125c0-5.543,2.925-10.793,7.541-13.696c0.422-4.595,4.018-8.286,8.57-8.854
			c4.41-9.706,13.978-15.907,24.723-15.907C57.813,8.709,70,20.896,70,35.875c0,14.664-11.724,26.781-26.248,27.269
			C43.455,63.264,43.184,63.291,43,63.291z M19.251,28.54c-3.134,0.002-5.751,2.619-5.751,5.836l0.013,0.2
			c0.025,0.767-0.391,1.48-1.07,1.837C8.528,38.463,6,42.686,6,47.166c0,6.686,5.383,12.125,12,12.125h24.45
			c0.284-0.107,0.541-0.133,0.718-0.133C55.746,58.994,66,48.549,66,35.875c0-12.773-10.393-23.166-23.166-23.166
			c-9.532,0-17.978,5.724-21.516,14.581c-0.304,0.761-1.041,1.258-1.857,1.258C19.412,28.549,19.301,28.542,19.251,28.54z"/>
	</g>
	<g>
		<path d="M60.834,35.291c-0.552,0-0.999-0.504-1-1.057c-0.001-0.525-0.028-1.078-0.082-1.588c-0.059-0.549,0.34-1.056,0.89-1.113
			c0.536-0.063,1.041,0.334,1.099,0.883c0.062,0.576,0.093,1.225,0.094,1.818c0.001,0.553-0.446,1.057-0.998,1.057
			C60.835,35.291,60.835,35.291,60.834,35.291z"/>
	</g>
	<g>
		<path d="M58.907,27.631c-0.354,0-0.695-0.188-0.878-0.519c-2.586-4.713-7.527-7.64-12.896-7.64c-0.553,0-1-0.447-1-1s0.447-1,1-1
			c6.1,0,11.713,3.325,14.65,8.677c0.266,0.484,0.088,1.093-0.396,1.358C59.234,27.591,59.069,27.631,58.907,27.631z"/>
	</g>
	<g>
		<g>
			<path d="M37.372,53.217c-2.374,0-4.405-1.264-5.267-3.467c-0.201-0.516-0.034-1.096,0.479-1.297
				c0.516-0.201,1.051,0.053,1.252,0.568c0.553,1.416,2.028,2.195,3.557,2.195c1.952,0,3.812-1.713,3.812-3.9v-4.025
				c0-0.553-0.258-1,0.295-1h4.393c0.676,0,1.157-0.193,1.321-0.531c0.183-0.375,0.005-0.98-0.465-1.578l-7.588-9.845
				c-0.528-0.674-1.215-1.049-1.926-1.049h-0.001c-0.669,0-1.307,0.344-1.797,0.969l-7.574,9.955
				c-0.475,0.605-0.654,1.199-0.478,1.561c0.157,0.326,0.653,0.52,1.325,0.52H32.5c0.553,0,1,0.447,1,1s-0.447,1-1,1h-3.789
				c-1.478,0-2.615-0.6-3.124-1.645c-0.529-1.088-0.276-2.422,0.693-3.658l7.574-9.955c0.887-1.13,2.084-1.746,3.38-1.746h0.001
				c1.319,0,2.598,0.664,3.505,1.821l7.587,9.844c0.955,1.215,1.214,2.596,0.686,3.682c-0.512,1.053-1.649,1.656-3.12,1.656h-2.688
				v3.025C43.205,50.625,40.445,53.217,37.372,53.217z"/>
		</g>
		<g>
			<path d="M33,47.041c-0.26,0-0.521-0.111-0.71-0.291C32.109,46.561,32,46.301,32,46.041s0.109-0.521,0.29-0.711
				c0.37-0.369,1.04-0.369,1.42,0C33.89,45.52,34,45.781,34,46.041s-0.11,0.52-0.29,0.709C33.52,46.93,33.26,47.041,33,47.041z"/>
		</g>
	</g>
</g>
</svg>
