<?xml version="1.0" encoding="utf-8"?>
<!-- Generator: Adobe Illustrator 16.0.0, SVG Export Plug-In . SVG Version: 6.00 Build 0)  -->
<!DOCTYPE svg PUBLIC "-//W3C//DTD SVG 1.1//EN" "http://www.w3.org/Graphics/SVG/1.1/DTD/svg11.dtd">
<svg version="1.1" id="Layer_1" xmlns="http://www.w3.org/2000/svg" xmlns:xlink="http://www.w3.org/1999/xlink" x="0px" y="0px"
	 width="72px" height="72px" viewBox="0 0 72 72" enable-background="new 0 0 72 72" xml:space="preserve">
<g>
	<g>
		<path d="M48.002,67.974c-2.079,0-4.186-1.006-6.09-2.912L6.946,30.097c-2.424-2.423-3.386-5.149-2.709-7.676
			c0.671-2.506,2.84-4.368,6.106-5.244L58.069,4.42c3.573-0.956,6.755-0.145,8.502,2.133c1.426,1.858,1.779,4.49,0.996,7.411
			L54.845,61.652C53.783,65.611,51.226,67.974,48.002,67.974z M60.973,8.015c-0.571,0-1.2,0.091-1.869,0.27L11.378,21.042
			c-1.801,0.482-2.996,1.363-3.278,2.415c-0.287,1.072,0.323,2.462,1.674,3.813L44.74,62.234c1.122,1.123,2.28,1.74,3.262,1.74
			c1.876,0,2.708-2.348,2.979-3.355L63.703,12.93c0.454-1.694,0.346-3.093-0.306-3.942C62.78,8.183,61.738,8.015,60.973,8.015z"/>
	</g>
	<g>
		<g>
			<path d="M51.878,46.032c-0.084,0-0.169-0.011-0.253-0.032c-0.534-0.14-0.855-0.686-0.716-1.22l0.103-0.394
				c0.14-0.535,0.69-0.853,1.22-0.716c0.534,0.14,0.855,0.686,0.716,1.22l-0.103,0.394C52.728,45.734,52.322,46.032,51.878,46.032z"
				/>
		</g>
		<g>
			<path d="M49.096,56.75c-0.083,0-0.168-0.01-0.252-0.033c-0.535-0.139-0.855-0.684-0.717-1.219l2.132-8.209
				c0.139-0.534,0.686-0.86,1.219-0.717c0.535,0.139,0.855,0.685,0.717,1.219L50.063,56C49.945,56.451,49.54,56.75,49.096,56.75z"/>
		</g>
	</g>
	<g>
		<path d="M26.178,48.501c-0.512,0-1.023-0.195-1.414-0.586c-0.781-0.781-0.781-2.047,0-2.828l13.435-13.436
			c0.781-0.781,2.047-0.781,2.828,0s0.781,2.047,0,2.828L27.592,47.916C27.202,48.306,26.69,48.501,26.178,48.501z"/>
	</g>
</g>
</svg>
