<?xml version="1.0" encoding="utf-8"?>
<!-- Generator: Adobe Illustrator 16.0.0, SVG Export Plug-In . SVG Version: 6.00 Build 0)  -->
<!DOCTYPE svg PUBLIC "-//W3C//DTD SVG 1.1//EN" "http://www.w3.org/Graphics/SVG/1.1/DTD/svg11.dtd">
<svg version="1.1" id="Layer_1" xmlns="http://www.w3.org/2000/svg" xmlns:xlink="http://www.w3.org/1999/xlink" x="0px" y="0px"
	 width="72px" height="72px" viewBox="0 0 72 72" enable-background="new 0 0 72 72" xml:space="preserve">
<g>
	<g>
		<path d="M16.86,27.69c-6.847,0-12.416-5.569-12.416-12.416S10.014,2.857,16.86,2.857c6.848,0,12.418,5.57,12.418,12.417
			S23.708,27.69,16.86,27.69z M16.86,6.857c-4.641,0-8.416,3.775-8.416,8.417c0,4.641,3.775,8.416,8.416,8.416
			c4.642,0,8.418-3.775,8.418-8.416C25.278,10.633,21.502,6.857,16.86,6.857z"/>
	</g>
	<g>
		<path d="M11.354,16.274c-0.553,0-1-0.447-1-1l-0.004-0.2c-0.007-0.21-0.007-0.361,0.056-0.688
			c0.104-0.542,0.632-0.894,1.171-0.794c0.542,0.104,0.897,0.629,0.794,1.171c-0.025,0.131-0.025,0.131-0.021,0.245l0.005,0.267
			C12.354,15.827,11.906,16.274,11.354,16.274z"/>
	</g>
	<g>
		<path d="M12.283,13.211c-0.191,0-0.385-0.055-0.556-0.169c-0.459-0.308-0.581-0.929-0.274-1.388
			c1.212-1.808,3.233-2.887,5.407-2.887c0.553,0,1,0.447,1,1s-0.447,1-1,1c-1.506,0-2.906,0.748-3.745,2
			C12.922,13.056,12.605,13.211,12.283,13.211z"/>
	</g>
	<g>
		<path d="M44.86,27.69c-6.847,0-12.416-5.569-12.416-12.416S38.014,2.857,44.86,2.857c6.848,0,12.418,5.57,12.418,12.417
			S51.708,27.69,44.86,27.69z M44.86,6.857c-4.641,0-8.416,3.775-8.416,8.417c0,4.641,3.775,8.416,8.416,8.416
			c4.642,0,8.418-3.775,8.418-8.416C53.278,10.633,49.502,6.857,44.86,6.857z"/>
	</g>
	<g>
		<path d="M40.283,13.211c-0.191,0-0.385-0.055-0.556-0.169c-0.459-0.308-0.581-0.929-0.274-1.388
			c1.212-1.808,3.233-2.887,5.407-2.887c0.553,0,1,0.447,1,1s-0.447,1-1,1c-1.506,0-2.906,0.748-3.745,2
			C40.922,13.056,40.605,13.211,40.283,13.211z"/>
	</g>
	<g>
		<path d="M46.187,69.143H9.05c-3.887,0-7.051-2.527-7.051-6.273V36.733c0-3.894,3.293-7.59,7.051-7.59h37.137
			c3.822,0,6.932,3.369,6.932,7.26c0,0.049-0.002,0.197-0.005,0.245l-0.05,0.75c2.941-1.531,7.439-3.894,10.582-5.576
			c1.06-0.512,1.932-0.729,2.74-0.729c0.996,0,1.812,0.359,2.468,1.029c1.248,1.266,1.146,3.141,1.146,3.938v0.106v26.907
			c0,1.203-0.172,2.092-0.67,2.779c-0.423,0.586-1.297,1.291-2.741,1.291c-0.001,0,0.062,0,0.062,0c-0.809,0-1.646-0.223-2.7-0.547
			c-0.119-0.037-0.219-0.088-0.328-0.146c-3.828-2.016-7.956-4.156-10.613-5.488l0.103,1.664c0.003,0.039,0.006-0.125,0.006-0.086
			C53.116,66.356,50.073,69.143,46.187,69.143z M9.05,33.143c-1.562,0-3.051,1.895-3.051,3.59V62.87
			c0,1.553,1.353,2.273,3.051,2.273h37.137c1.626,0,2.903-1.002,2.932-2.551l-0.295-4.836c-0.033-0.551,0.162-1.039,0.54-1.439
			c0.378-0.402,0.905-0.604,1.456-0.604c0.594,0,1.062,0.012,14.514,7.094c0.208,0.063,0.506,0.156,0.785,0.223l0.002-27.035
			c0.006-0.393-0.01-0.656-0.034-0.835c-0.149,0.044-0.356,0.12-0.63,0.252c-13.81,7.387-13.984,7.389-14.637,7.389
			c-0.555,0-1.085-0.23-1.464-0.637c-0.378-0.406-0.57-0.953-0.531-1.506l0.293-4.319c-0.033-1.629-1.361-3.197-2.931-3.197H9.05z"
			/>
	</g>
	<g>
		<g>
			<path d="M8.999,45.549c-0.553,0-1-0.447-1-1v-5.082c0-1.85,1.618-4.325,3.625-4.325h8.494c0.553,0,1,0.447,1,1
				c0,0.553-0.447,1-1,1h-8.494c-0.731,0-1.625,1.393-1.625,2.324v5.082C9.999,45.102,9.552,45.549,8.999,45.549z"/>
		</g>
		<g>
			<path d="M25.118,37.143h-1c-0.553,0-1-0.447-1-1c0-0.553,0.447-1,1-1h1c0.553,0,1,0.447,1,1
				C26.118,36.696,25.671,37.143,25.118,37.143z"/>
		</g>
	</g>
</g>
</svg>
