<?xml version="1.0" encoding="utf-8"?>
<!-- Generator: Adobe Illustrator 16.0.0, SVG Export Plug-In . SVG Version: 6.00 Build 0)  -->
<!DOCTYPE svg PUBLIC "-//W3C//DTD SVG 1.1//EN" "http://www.w3.org/Graphics/SVG/1.1/DTD/svg11.dtd">
<svg version="1.1" id="Layer_1" xmlns="http://www.w3.org/2000/svg" xmlns:xlink="http://www.w3.org/1999/xlink" x="0px" y="0px"
	 width="72px" height="72px" viewBox="0 0 72 72" enable-background="new 0 0 72 72" xml:space="preserve">
<g>
	<g>
		<g>
			<path d="M51.193,67.1H9.056c-3.822,0-6.556-3.143-6.556-7.006V24.957c0-3.78,2.733-6.856,6.556-6.856h42.138
				c3.822,0,7.307,3.076,7.307,6.856V34.1c0,1.104-0.896,2-2,2s-2-0.896-2-2v-9.144c0-1.602-1.663-2.856-3.307-2.856H9.056
				c-1.644,0-2.556,1.255-2.556,2.856v35.137c0,1.629,0.967,3.006,2.556,3.006h42.138c1.589,0,3.307-1.377,3.307-3.006V51.1
				c0-1.104,0.896-2,2-2s2,0.896,2,2v8.994C58.5,63.957,55.016,67.1,51.193,67.1z"/>
		</g>
	</g>
	<g>
		<g>
			<path d="M15.244,60.063c-3.271,0-5.744-2.678-5.744-5.969V37.1c0-0.553,0.447-1,1-1c0.552,0,1,0.447,1,1v16.994
				c0,2.188,1.576,3.969,3.744,3.969c0.552,0,1,0.447,1,1S15.796,60.063,15.244,60.063z"/>
		</g>
		<g>
			<path d="M20.124,60.1h-1c-0.552,0-1-0.447-1-1s0.448-1,1-1h1c0.553,0,1,0.447,1,1S20.677,60.1,20.124,60.1z"/>
		</g>
	</g>
	<g>
		<g>
			<g>
				<path d="M69.5,45.168c0,3.828-3.104,6.932-6.932,6.932H48.432c-3.828,0-6.932-3.104-6.932-6.932v-4.137
					c0-3.828,3.104-6.931,6.932-6.931h14.137c3.828,0,6.932,3.103,6.932,6.931V45.168z M65.5,41.031
					c0-1.619-1.313-2.932-2.932-2.932H48.432c-1.619,0-2.932,1.313-2.932,2.932v4.137c0,1.619,1.313,2.932,2.932,2.932h14.137
					c1.619,0,2.932-1.313,2.932-2.932V41.031z"/>
			</g>
		</g>
		<circle cx="50.542" cy="43.025" r="1.917"/>
	</g>
	<g>
		<path d="M46.375,21.65c-1.104,0-2-0.896-2-2c0-5.928-4.822-10.75-10.75-10.75c-5.929,0-10.751,4.822-10.751,10.75
			c0,1.104-0.896,2-2,2s-2-0.896-2-2c0-8.133,6.617-14.75,14.751-14.75c8.133,0,14.75,6.617,14.75,14.75
			C48.375,20.754,47.479,21.65,46.375,21.65z"/>
	</g>
</g>
</svg>
