<?xml version="1.0" encoding="utf-8"?>
<!-- Generator: Adobe Illustrator 16.0.0, SVG Export Plug-In . SVG Version: 6.00 Build 0)  -->
<!DOCTYPE svg PUBLIC "-//W3C//DTD SVG 1.1//EN" "http://www.w3.org/Graphics/SVG/1.1/DTD/svg11.dtd">
<svg version="1.1" id="Layer_1" xmlns="http://www.w3.org/2000/svg" xmlns:xlink="http://www.w3.org/1999/xlink" x="0px" y="0px"
	 width="72px" height="72px" viewBox="0 0 72 72" enable-background="new 0 0 72 72" xml:space="preserve">
<g>
	<g>
		<g>
			<path d="M63,61.068C63,64.896,59.896,68,56.068,68H15.932C12.104,68,9,64.896,9,61.068V10.932C9,7.104,12.104,4,15.932,4h40.137
				C59.896,4,63,7.104,63,10.932V61.068z M59,10.932C59,9.313,57.688,8,56.068,8H15.932C14.313,8,13,9.313,13,10.932v50.137
				C13,62.688,14.313,64,15.932,64h40.137C57.688,64,59,62.688,59,61.068V10.932z"/>
		</g>
	</g>
	<g>
		<path d="M35.63,58.795c-9.029,0-16.375-7.346-16.375-16.375s7.346-16.375,16.375-16.375s16.375,7.346,16.375,16.375
			S44.659,58.795,35.63,58.795z M35.63,28.045c-7.927,0-14.375,6.448-14.375,14.375s6.448,14.375,14.375,14.375
			s14.375-6.448,14.375-14.375S43.557,28.045,35.63,28.045z"/>
	</g>
	<g>
		<path d="M31.113,52.205c-0.154,0-0.311-0.035-0.457-0.111c-3.64-1.874-5.901-5.581-5.901-9.674c0-0.553,0.447-1,1-1s1,0.447,1,1
			c0,3.34,1.846,6.366,4.817,7.896c0.491,0.253,0.684,0.855,0.431,1.347C31.826,52.008,31.476,52.205,31.113,52.205z"/>
	</g>
	<g>
		<path d="M35.63,53.295c-0.553,0-1-0.447-1-1s0.447-1,1-1c0.605,0,1.208-0.061,1.789-0.18c0.547-0.109,1.07,0.238,1.181,0.778
			c0.111,0.541-0.237,1.069-0.778,1.181C37.107,53.221,36.37,53.295,35.63,53.295z"/>
	</g>
	<g>
		<path d="M60.63,21h-50c-0.553,0-1-0.447-1-1s0.447-1,1-1h50c0.553,0,1,0.447,1,1S61.183,21,60.63,21z"/>
	</g>
	<g>
		<path d="M24.63,15h-2c-0.553,0-1-0.447-1-1s0.447-1,1-1h2c0.553,0,1,0.447,1,1S25.183,15,24.63,15z"/>
	</g>
	<g>
		<path d="M18.63,15h-2c-0.553,0-1-0.447-1-1s0.447-1,1-1h2c0.553,0,1,0.447,1,1S19.183,15,18.63,15z"/>
	</g>
</g>
</svg>
