<?xml version="1.0" encoding="utf-8"?>
<!-- Generator: Adobe Illustrator 16.0.0, SVG Export Plug-In . SVG Version: 6.00 Build 0)  -->
<!DOCTYPE svg PUBLIC "-//W3C//DTD SVG 1.1//EN" "http://www.w3.org/Graphics/SVG/1.1/DTD/svg11.dtd">
<svg version="1.1" id="Layer_1" xmlns="http://www.w3.org/2000/svg" xmlns:xlink="http://www.w3.org/1999/xlink" x="0px" y="0px"
	 width="72px" height="72px" viewBox="0 0 72 72" enable-background="new 0 0 72 72" xml:space="preserve">
<g>
	<g>
		<path d="M35.821,68.011c-7.88,0-14.291-6.411-14.291-14.292c0-7.88,6.411-14.291,14.291-14.291s14.291,6.411,14.291,14.291
			C50.112,61.6,43.701,68.011,35.821,68.011z M35.821,43.428c-5.675,0-10.291,4.616-10.291,10.291s4.616,10.292,10.291,10.292
			s10.291-4.617,10.291-10.292S41.496,43.428,35.821,43.428z"/>
	</g>
	<g>
		<path d="M30.066,51.374c-0.171,0-0.344-0.044-0.502-0.136c-0.478-0.278-0.639-0.891-0.361-1.367
			c1.367-2.349,3.903-3.807,6.618-3.807c0.553,0,1,0.447,1,1s-0.447,1-1,1c-2.006,0-3.879,1.078-4.89,2.813
			C30.746,51.196,30.411,51.374,30.066,51.374z"/>
	</g>
	<g>
		<path d="M29.389,56.434c-0.442,0-0.848-0.296-0.966-0.744c-0.17-0.643-0.256-1.306-0.256-1.971c0-0.553,0.447-1,1-1s1,0.447,1,1
			c0,0.492,0.063,0.983,0.189,1.459c0.142,0.534-0.178,1.082-0.711,1.223C29.56,56.423,29.474,56.434,29.389,56.434z"/>
	</g>
	<g>
		<path d="M48.063,36.063c-0.361,0-0.728-0.098-1.058-0.304c-3.348-2.091-7.215-3.195-11.185-3.195c-3.922,0-7.75,1.08-11.071,3.123
			c-0.939,0.579-2.173,0.285-2.751-0.655c-0.579-0.94-0.286-2.173,0.655-2.751c3.952-2.432,8.505-3.717,13.167-3.717
			c4.719,0,9.319,1.314,13.304,3.803c0.937,0.585,1.222,1.818,0.637,2.756C49.383,35.729,48.73,36.063,48.063,36.063z"/>
	</g>
	<g>
		<path d="M54.726,25.734c-0.365,0-0.734-0.1-1.066-0.31c-5.331-3.368-11.5-5.148-17.839-5.148c-6.088,0-12.046,1.651-17.231,4.775
			c-0.947,0.567-2.176,0.265-2.745-0.681c-0.57-0.946-0.266-2.175,0.681-2.745c5.809-3.5,12.48-5.35,19.296-5.35
			c7.097,0,14.004,1.994,19.976,5.768c0.934,0.59,1.213,1.825,0.622,2.759C56.038,25.405,55.389,25.734,54.726,25.734z"/>
	</g>
	<g>
		<path d="M60.614,14.927c-0.354,0-0.714-0.094-1.038-0.292c-7.137-4.348-15.352-6.646-23.757-6.646
			c-8.263,0-16.357,2.227-23.41,6.439c-0.948,0.567-2.177,0.256-2.742-0.691c-0.566-0.948-0.257-2.176,0.691-2.742
			c7.672-4.583,16.477-7.006,25.461-7.006c9.14,0,18.073,2.5,25.837,7.229c0.943,0.574,1.242,1.806,0.668,2.748
			C61.947,14.586,61.289,14.927,60.614,14.927z"/>
	</g>
</g>
</svg>
